Truculenta-72ptCondensedThin.ufo
<glyph name="exclam" format="2">
  <advance width="217"/>
  <unicode hex="0021"/>
  <outline>
    <contour>
      <point x="95" y="216" type="curve"/>
      <point x="123" y="216" type="line"/>
      <point x="124" y="250"/>
      <point x="125" y="367"/>
      <point x="126" y="425" type="curve" smooth="yes"/>
      <point x="127" y="487"/>
      <point x="133" y="655"/>
      <point x="135" y="708" type="curve"/>
      <point x="83" y="705" type="line"/>
      <point x="84" y="659"/>
      <point x="89" y="513"/>
      <point x="91" y="423" type="curve" smooth="yes"/>
      <point x="93" y="346"/>
      <point x="94" y="244"/>
    </contour>
    <contour>
      <point x="133" y="0" type="line"/>
      <point x="128" y="101" type="line"/>
      <point x="91" y="99" type="line"/>
      <point x="88" y="0" type="line"/>
    </contour>
  </outline>
</glyph>
<glyph name="quotedbl" format="2">
  <advance width="380"/>
  <unicode hex="0022"/>
  <outline>
    <contour>
      <point x="243" y="498" type="curve"/>
      <point x="274" y="503" type="line"/>
      <point x="278" y="532"/>
      <point x="283" y="569"/>
      <point x="288" y="604" type="curve" smooth="yes"/>
      <point x="293" y="642"/>
      <point x="299" y="678"/>
      <point x="304" y="699" type="curve"/>
      <point x="249" y="700" type="line"/>
      <point x="249" y="681"/>
      <point x="249" y="635"/>
      <point x="247" y="603" type="curve" smooth="yes"/>
      <point x="246" y="570"/>
      <point x="244" y="520"/>
    </contour>
    <contour>
      <point x="83" y="496" type="curve"/>
      <point x="114" y="504" type="line"/>
      <point x="115" y="531"/>
      <point x="117" y="568"/>
      <point x="120" y="604" type="curve" smooth="yes"/>
      <point x="123" y="646"/>
      <point x="126" y="684"/>
      <point x="129" y="702" type="curve"/>
      <point x="75" y="698" type="line"/>
      <point x="76" y="679"/>
      <point x="79" y="634"/>
      <point x="80" y="602" type="curve" smooth="yes"/>
      <point x="82" y="568"/>
      <point x="82" y="518"/>
    </contour>
  </outline>
</glyph>
<glyph name="numbersign" format="2">
  <advance width="690"/>
  <unicode hex="0023"/>
  <outline>
    <contour>
      <point x="117" y="1" type="line"/>
      <point x="153" y="3" type="line"/>
      <point x="236" y="378" type="line"/>
      <point x="319" y="695" type="line"/>
      <point x="284" y="693" type="line"/>
      <point x="215" y="381" type="line"/>
    </contour>
    <contour>
      <point x="57" y="192" type="line"/>
      <point x="105" y="194"/>
      <point x="240" y="197"/>
      <point x="338" y="196" type="curve" smooth="yes"/>
      <point x="436" y="195"/>
      <point x="543" y="194"/>
      <point x="585" y="194" type="curve"/>
      <point x="583" y="223" type="line"/>
      <point x="543" y="222"/>
      <point x="434" y="220"/>
      <point x="341" y="220" type="curve" smooth="yes"/>
      <point x="249" y="220"/>
      <point x="106" y="222"/>
      <point x="57" y="223" type="curve"/>
    </contour>
    <contour>
      <point x="368" y="0" type="line"/>
      <point x="404" y="1" type="line"/>
      <point x="484" y="367" type="line"/>
      <point x="567" y="682" type="line"/>
      <point x="532" y="683" type="line"/>
      <point x="466" y="381" type="line"/>
    </contour>
    <contour>
      <point x="104" y="479" type="line"/>
      <point x="150" y="481"/>
      <point x="289" y="484"/>
      <point x="389" y="483" type="curve" smooth="yes"/>
      <point x="487" y="482"/>
      <point x="592" y="481"/>
      <point x="632" y="480" type="curve"/>
      <point x="632" y="510" type="line"/>
      <point x="591" y="509"/>
      <point x="483" y="507"/>
      <point x="391" y="507" type="curve" smooth="yes"/>
      <point x="300" y="507"/>
      <point x="153" y="509"/>
      <point x="100" y="510" type="curve"/>
    </contour>
  </outline>
</glyph>
<glyph name="quotesingle" format="2">
  <advance width="204"/>
  <unicode hex="0027"/>
  <outline>
    <contour>
      <point x="83" y="496" type="curve"/>
      <point x="114" y="504" type="line"/>
      <point x="115" y="531"/>
      <point x="117" y="568"/>
      <point x="120" y="604" type="curve" smooth="yes"/>
      <point x="123" y="646"/>
      <point x="126" y="684"/>
      <point x="129" y="702" type="curve"/>
      <point x="75" y="698" type="line"/>
      <point x="76" y="679"/>
      <point x="79" y="634"/>
      <point x="80" y="602" type="curve" smooth="yes"/>
      <point x="82" y="568"/>
      <point x="82" y="518"/>
    </contour>
  </outline>
</glyph>
<glyph name="parenleft" format="2">
  <advance width="265"/>
  <unicode hex="0028"/>
  <outline>
    <contour>
      <point x="173" y="-139" type="curve"/>
      <point x="181" y="-117" type="line"/>
      <point x="109" y="-47"/>
      <point x="112" y="141"/>
      <point x="112" y="281" type="curve" smooth="yes"/>
      <point x="112" y="422"/>
      <point x="109" y="610"/>
      <point x="181" y="680" type="curve"/>
      <point x="173" y="702" type="line"/>
      <point x="105" y="653"/>
      <point x="85" y="528"/>
      <point x="85" y="281" type="curve" smooth="yes"/>
      <point x="85" y="35"/>
      <point x="105" y="-90"/>
    </contour>
  </outline>
</glyph>
<glyph name="parenright" format="2">
  <advance width="265"/>
  <unicode hex="0029"/>
  <outline>
    <contour>
      <point x="87" y="702" type="curve"/>
      <point x="79" y="680" type="line"/>
      <point x="151" y="610"/>
      <point x="148" y="422"/>
      <point x="148" y="282" type="curve" smooth="yes"/>
      <point x="148" y="141"/>
      <point x="151" y="-47"/>
      <point x="79" y="-117" type="curve"/>
      <point x="87" y="-139" type="line"/>
      <point x="155" y="-90"/>
      <point x="175" y="35"/>
      <point x="175" y="282" type="curve" smooth="yes"/>
      <point x="175" y="528"/>
      <point x="155" y="653"/>
    </contour>
  </outline>
</glyph>
<glyph name="asterisk" format="2">
  <advance width="504"/>
  <unicode hex="002A"/>
  <outline>
    <contour>
      <point x="397" y="436" type="curve"/>
      <point x="424" y="460" type="line"/>
      <point x="386" y="483"/>
      <point x="286" y="544"/>
      <point x="250" y="565" type="curve" smooth="yes"/>
      <point x="210" y="588"/>
      <point x="131" y="648"/>
      <point x="104" y="668" type="curve"/>
      <point x="79" y="638" type="line"/>
      <point x="114" y="621"/>
      <point x="204" y="570"/>
      <point x="246" y="546" type="curve" smooth="yes"/>
      <point x="287" y="522"/>
      <point x="371" y="457"/>
    </contour>
    <contour>
      <point x="98" y="428" type="line"/>
      <point x="132" y="454"/>
      <point x="222" y="523"/>
      <point x="263" y="546" type="curve" smooth="yes"/>
      <point x="306" y="570"/>
      <point x="395" y="625"/>
      <point x="423" y="640" type="curve"/>
      <point x="414" y="673" type="line"/>
      <point x="380" y="649"/>
      <point x="296" y="587"/>
      <point x="259" y="565" type="curve" smooth="yes"/>
      <point x="221" y="542"/>
      <point x="118" y="477"/>
      <point x="86" y="457" type="curve"/>
    </contour>
    <contour>
      <point x="276" y="361" type="line"/>
      <point x="272" y="400"/>
      <point x="265" y="509"/>
      <point x="265" y="562" type="curve" smooth="yes"/>
      <point x="265" y="616"/>
      <point x="271" y="704"/>
      <point x="274" y="736" type="curve"/>
      <point x="237" y="739" type="line"/>
      <point x="239" y="704"/>
      <point x="243" y="611"/>
      <point x="244" y="561" type="curve" smooth="yes"/>
      <point x="245" y="511"/>
      <point x="240" y="401"/>
      <point x="238" y="364" type="curve"/>
    </contour>
  </outline>
</glyph>
<glyph name="plus" format="2">
  <advance width="400"/>
  <unicode hex="002B"/>
  <outline>
    <contour>
      <point x="221" y="150" type="line"/>
      <point x="218" y="181"/>
      <point x="213" y="251"/>
      <point x="213" y="302" type="curve" smooth="yes"/>
      <point x="213" y="352"/>
      <point x="217" y="418"/>
      <point x="219" y="440" type="curve"/>
      <point x="180" y="437" type="line"/>
      <point x="181" y="411"/>
      <point x="183" y="348"/>
      <point x="184" y="301" type="curve" smooth="yes"/>
      <point x="185" y="253"/>
      <point x="182" y="175"/>
      <point x="181" y="147" type="curve"/>
    </contour>
    <contour>
      <point x="72" y="273" type="line"/>
      <point x="100" y="275"/>
      <point x="169" y="278"/>
      <point x="212" y="278" type="curve" smooth="yes"/>
      <point x="255" y="278"/>
      <point x="301" y="276"/>
      <point x="319" y="274" type="curve"/>
      <point x="328" y="309" type="line"/>
      <point x="304" y="308"/>
      <point x="250" y="307"/>
      <point x="211" y="306" type="curve" smooth="yes"/>
      <point x="169" y="305"/>
      <point x="101" y="307"/>
      <point x="76" y="307" type="curve"/>
    </contour>
  </outline>
</glyph>
<glyph name="comma" format="2">
  <advance width="217"/>
  <unicode hex="002C"/>
  <outline>
    <contour>
      <point x="111" y="-100" type="line"/>
      <point x="127" y="-73"/>
      <point x="135" y="-38"/>
      <point x="135" y="5" type="curve" smooth="yes"/>
      <point x="135" y="98" type="line"/>
      <point x="83" y="93" type="line"/>
      <point x="85" y="1" type="line"/>
      <point x="107" y="-1" type="line"/>
      <point x="108" y="-33"/>
      <point x="100" y="-61"/>
      <point x="87" y="-91" type="curve"/>
    </contour>
  </outline>
</glyph>
<glyph name="hyphen" format="2">
  <advance width="281"/>
  <unicode hex="002D"/>
  <outline>
    <contour>
      <point x="45" y="272" type="line"/>
      <point x="45" y="272"/>
      <point x="92" y="274"/>
      <point x="137" y="274" type="curve" smooth="yes"/>
      <point x="180" y="274"/>
      <point x="236" y="272"/>
      <point x="236" y="272" type="curve"/>
      <point x="234" y="310" type="line"/>
      <point x="234" y="310"/>
      <point x="189" y="306"/>
      <point x="142" y="307" type="curve" smooth="yes"/>
      <point x="94" y="308"/>
      <point x="49" y="310"/>
      <point x="49" y="310" type="curve"/>
    </contour>
  </outline>
</glyph>
<glyph name="period" format="2">
  <advance width="207"/>
  <unicode hex="002E"/>
  <outline>
    <contour>
      <point x="125" y="1" type="line"/>
      <point x="125" y="104" type="line"/>
      <point x="83" y="99" type="line"/>
      <point x="86" y="1" type="line"/>
    </contour>
  </outline>
</glyph>
<glyph name="slash" format="2">
  <advance width="255"/>
  <unicode hex="002F"/>
  <outline>
    <contour>
      <point x="35" y="0" type="curve"/>
      <point x="63" y="1" type="line"/>
      <point x="89" y="116"/>
      <point x="117" y="242"/>
      <point x="144" y="361" type="curve" smooth="yes"/>
      <point x="172" y="486"/>
      <point x="199" y="603"/>
      <point x="221" y="694" type="curve"/>
      <point x="193" y="695" type="line"/>
      <point x="176" y="612"/>
      <point x="150" y="491"/>
      <point x="122" y="365" type="curve" smooth="yes"/>
      <point x="94" y="238"/>
      <point x="62" y="105"/>
    </contour>
  </outline>
</glyph>
<glyph name="one" format="2">
  <advance width="225"/>
  <unicode hex="0031"/>
  <outline>
    <contour>
      <point x="108" y="0" type="curve"/>
      <point x="142" y="0" type="line"/>
      <point x="140" y="48"/>
      <point x="138" y="202"/>
      <point x="138" y="341" type="curve" smooth="yes"/>
      <point x="138" y="481"/>
      <point x="142" y="644"/>
      <point x="143" y="694" type="curve"/>
      <point x="128" y="694" type="line"/>
      <point x="112" y="638" type="line"/>
      <point x="113" y="562"/>
      <point x="112" y="418"/>
      <point x="112" y="342" type="curve" smooth="yes"/>
      <point x="112" y="245"/>
      <point x="110" y="55"/>
    </contour>
    <contour>
      <point x="24" y="620" type="line"/>
      <point x="51" y="621"/>
      <point x="103" y="632"/>
      <point x="130" y="643" type="curve"/>
      <point x="128" y="694" type="line"/>
      <point x="103" y="667"/>
      <point x="58" y="652"/>
      <point x="23" y="646" type="curve"/>
    </contour>
  </outline>
</glyph>
<glyph name="two" format="2">
  <advance width="358"/>
  <unicode hex="0032"/>
  <outline>
    <contour>
      <point x="75" y="17" type="line"/>
      <point x="173" y="134"/>
      <point x="296" y="377"/>
      <point x="296" y="545" type="curve" smooth="yes"/>
      <point x="296" y="640"/>
      <point x="261" y="700"/>
      <point x="183" y="700" type="curve" smooth="yes"/>
      <point x="92" y="700"/>
      <point x="61" y="625"/>
      <point x="61" y="526" type="curve" smooth="yes"/>
      <point x="61" y="504"/>
      <point x="63" y="481"/>
      <point x="65" y="457" type="curve"/>
      <point x="94" y="458" type="line"/>
      <point x="91" y="482"/>
      <point x="90" y="505"/>
      <point x="90" y="527" type="curve" smooth="yes"/>
      <point x="90" y="615"/>
      <point x="114" y="674"/>
      <point x="178" y="674" type="curve" smooth="yes"/>
      <point x="238" y="674"/>
      <point x="264" y="632"/>
      <point x="264" y="533" type="curve" smooth="yes"/>
      <point x="264" y="381"/>
      <point x="162" y="165"/>
      <point x="46" y="24" type="curve"/>
    </contour>
    <contour>
      <point x="46" y="-3" type="line"/>
      <point x="67" y="-2"/>
      <point x="133" y="0"/>
      <point x="177" y="0" type="curve" smooth="yes"/>
      <point x="190" y="0"/>
      <point x="292" y="0"/>
      <point x="301" y="0" type="curve"/>
      <point x="300" y="29" type="line"/>
      <point x="267" y="27"/>
      <point x="230" y="25"/>
      <point x="188" y="25" type="curve" smooth="yes"/>
      <point x="148" y="25"/>
      <point x="94" y="24"/>
      <point x="46" y="24" type="curve"/>
    </contour>
  </outline>
</glyph>
<glyph name="three" format="2">
  <advance width="329"/>
  <unicode hex="0033"/>
  <outline>
    <contour>
      <point x="158" y="-10" type="curve" smooth="yes"/>
      <point x="236" y="-10"/>
      <point x="280" y="38"/>
      <point x="280" y="127" type="curve" smooth="yes"/>
      <point x="280" y="213"/>
      <point x="244" y="278"/>
      <point x="177" y="296" type="curve"/>
      <point x="237" y="332"/>
      <point x="274" y="402"/>
      <point x="274" y="522" type="curve" smooth="yes"/>
      <point x="274" y="632"/>
      <point x="242" y="697"/>
      <point x="161" y="697" type="curve" smooth="yes"/>
      <point x="76" y="697"/>
      <point x="47" y="632"/>
      <point x="47" y="556" type="curve"/>
      <point x="74" y="558" type="line"/>
      <point x="74" y="624"/>
      <point x="95" y="674"/>
      <point x="155" y="674" type="curve" smooth="yes"/>
      <point x="218" y="674"/>
      <point x="243" y="625"/>
      <point x="243" y="512" type="curve" smooth="yes"/>
      <point x="243" y="389"/>
      <point x="197" y="306"/>
      <point x="126" y="306" type="curve" smooth="yes"/>
      <point x="116" y="306"/>
      <point x="107" y="306"/>
      <point x="99" y="307" type="curve"/>
      <point x="100" y="280" type="line"/>
      <point x="111" y="281"/>
      <point x="122" y="281"/>
      <point x="130" y="281" type="curve" smooth="yes"/>
      <point x="218" y="281"/>
      <point x="251" y="214"/>
      <point x="251" y="119" type="curve" smooth="yes"/>
      <point x="251" y="52"/>
      <point x="221" y="14"/>
      <point x="160" y="14" type="curve" smooth="yes"/>
      <point x="104" y="14"/>
      <point x="72" y="45"/>
      <point x="71" y="97" type="curve"/>
      <point x="45" y="98" type="line"/>
      <point x="46" y="31"/>
      <point x="84" y="-10"/>
    </contour>
  </outline>
</glyph>
<glyph name="four" format="2">
  <advance width="355"/>
  <unicode hex="0034"/>
  <outline>
    <contour>
      <point x="55" y="177" type="line"/>
      <point x="69" y="216"/>
      <point x="111" y="331"/>
      <point x="150" y="440" type="curve" smooth="yes"/>
      <point x="184" y="536"/>
      <point x="209" y="613"/>
      <point x="223" y="647" type="curve" smooth="yes"/>
      <point x="235" y="675"/>
      <point x="241" y="683"/>
      <point x="252" y="697" type="curve"/>
      <point x="212" y="698" type="line"/>
      <point x="201" y="660"/>
      <point x="153" y="528"/>
      <point x="123" y="439" type="curve" smooth="yes"/>
      <point x="98" y="364"/>
      <point x="45" y="229"/>
      <point x="29" y="191" type="curve"/>
    </contour>
    <contour>
      <point x="35" y="164" type="line"/>
      <point x="62" y="165"/>
      <point x="129" y="167"/>
      <point x="176" y="168" type="curve" smooth="yes"/>
      <point x="224" y="169"/>
      <point x="289" y="168"/>
      <point x="319" y="168" type="curve"/>
      <point x="319" y="198" type="line"/>
      <point x="289" y="196"/>
      <point x="226" y="192"/>
      <point x="176" y="190" type="curve" smooth="yes"/>
      <point x="128" y="188"/>
      <point x="60" y="190"/>
      <point x="29" y="191" type="curve"/>
    </contour>
    <contour>
      <point x="217" y="-1" type="curve"/>
      <point x="251" y="0" type="line"/>
      <point x="250" y="53"/>
      <point x="248" y="236"/>
      <point x="248" y="378" type="curve" smooth="yes"/>
      <point x="248" y="512"/>
      <point x="250" y="651"/>
      <point x="252" y="697" type="curve"/>
      <point x="221" y="692" type="line"/>
      <point x="221" y="645"/>
      <point x="221" y="477"/>
      <point x="221" y="380" type="curve" smooth="yes"/>
      <point x="221" y="282"/>
      <point x="218" y="61"/>
    </contour>
  </outline>
</glyph>
<glyph name="five" format="2">
  <advance width="349"/>
  <unicode hex="0035"/>
  <outline>
    <contour>
      <point x="165" y="-10" type="curve" smooth="yes"/>
      <point x="256" y="-10"/>
      <point x="303" y="68"/>
      <point x="303" y="225" type="curve" smooth="yes"/>
      <point x="303" y="356"/>
      <point x="264" y="427"/>
      <point x="188" y="427" type="curve" smooth="yes"/>
      <point x="144" y="427"/>
      <point x="96" y="399"/>
      <point x="71" y="320" type="curve"/>
      <point x="91" y="318" type="line"/>
      <point x="100" y="357"/>
      <point x="137" y="400"/>
      <point x="183" y="400" type="curve" smooth="yes"/>
      <point x="241" y="400"/>
      <point x="273" y="338"/>
      <point x="273" y="235" type="curve" smooth="yes"/>
      <point x="273" y="84"/>
      <point x="239" y="16"/>
      <point x="169" y="16" type="curve" smooth="yes"/>
      <point x="109" y="16"/>
      <point x="82" y="46"/>
      <point x="78" y="116" type="curve"/>
      <point x="49" y="114" type="line"/>
      <point x="54" y="32"/>
      <point x="92" y="-10"/>
    </contour>
    <contour>
      <point x="91" y="318" type="line"/>
      <point x="92" y="360"/>
      <point x="94" y="446"/>
      <point x="96" y="503" type="curve" smooth="yes"/>
      <point x="98" y="565"/>
      <point x="101" y="661"/>
      <point x="103" y="695" type="curve"/>
      <point x="70" y="698" type="line"/>
      <point x="71" y="663"/>
      <point x="72" y="569"/>
      <point x="70" y="505" type="curve" smooth="yes"/>
      <point x="68" y="438"/>
      <point x="63" y="349"/>
      <point x="61" y="317" type="curve"/>
    </contour>
    <contour>
      <point x="88" y="669" type="line"/>
      <point x="107" y="670"/>
      <point x="144" y="671"/>
      <point x="181" y="671" type="curve" smooth="yes"/>
      <point x="214" y="671"/>
      <point x="260" y="669"/>
      <point x="282" y="668" type="curve"/>
      <point x="284" y="695" type="line"/>
      <point x="260" y="695"/>
      <point x="215" y="695"/>
      <point x="179" y="696" type="curve" smooth="yes"/>
      <point x="145" y="697"/>
      <point x="103" y="698"/>
      <point x="77" y="698" type="curve"/>
    </contour>
  </outline>
</glyph>
<glyph name="six" format="2">
  <advance width="366"/>
  <unicode hex="0036"/>
  <outline>
    <contour>
      <point x="187" y="-10" type="curve" smooth="yes"/>
      <point x="259" y="-10"/>
      <point x="305" y="63"/>
      <point x="305" y="177" type="curve" smooth="yes"/>
      <point x="305" y="302"/>
      <point x="270" y="368"/>
      <point x="190" y="368" type="curve" smooth="yes"/>
      <point x="145" y="368"/>
      <point x="91" y="334"/>
      <point x="73" y="254" type="curve"/>
      <point x="88" y="203" type="line"/>
      <point x="88" y="282"/>
      <point x="132" y="341"/>
      <point x="190" y="341" type="curve" smooth="yes"/>
      <point x="249" y="341"/>
      <point x="276" y="276"/>
      <point x="276" y="181" type="curve" smooth="yes"/>
      <point x="276" y="82"/>
      <point x="248" y="16"/>
      <point x="188" y="16" type="curve" smooth="yes"/>
      <point x="76" y="16"/>
      <point x="88" y="167"/>
      <point x="88" y="370" type="curve" smooth="yes"/>
      <point x="88" y="582"/>
      <point x="121" y="690"/>
      <point x="196" y="690" type="curve" smooth="yes"/>
      <point x="249" y="690"/>
      <point x="270" y="645"/>
      <point x="270" y="571" type="curve" smooth="yes"/>
      <point x="270" y="555"/>
      <point x="269" y="537"/>
      <point x="267" y="517" type="curve"/>
      <point x="297" y="518" type="line"/>
      <point x="299" y="535"/>
      <point x="300" y="551"/>
      <point x="300" y="567" type="curve" smooth="yes"/>
      <point x="300" y="649"/>
      <point x="275" y="713"/>
      <point x="197" y="713" type="curve" smooth="yes"/>
      <point x="109" y="713"/>
      <point x="57" y="626"/>
      <point x="57" y="321" type="curve" smooth="yes"/>
      <point x="57" y="66"/>
      <point x="84" y="-10"/>
    </contour>
  </outline>
</glyph>
<glyph name="seven" format="2">
  <advance width="281"/>
  <unicode hex="0037"/>
  <outline>
    <contour>
      <point x="84" y="-1" type="curve"/>
      <point x="118" y="0" type="line"/>
      <point x="113" y="124"/>
      <point x="116" y="240"/>
      <point x="143" y="358" type="curve" smooth="yes"/>
      <point x="166" y="458"/>
      <point x="197" y="547"/>
      <point x="259" y="657" type="curve"/>
      <point x="259" y="698" type="line"/>
      <point x="200" y="629"/>
      <point x="141" y="463"/>
      <point x="118" y="366" type="curve" smooth="yes"/>
      <point x="88" y="239"/>
      <point x="82" y="119"/>
    </contour>
    <contour>
      <point x="19" y="667" type="line"/>
      <point x="40" y="667"/>
      <point x="82" y="668"/>
      <point x="114" y="668" type="curve" smooth="yes"/>
      <point x="149" y="668"/>
      <point x="228" y="669"/>
      <point x="256" y="670" type="curve"/>
      <point x="259" y="698" type="line"/>
      <point x="231" y="698"/>
      <point x="161" y="697"/>
      <point x="127" y="697" type="curve" smooth="yes"/>
      <point x="93" y="697"/>
      <point x="43" y="698"/>
      <point x="18" y="699" type="curve"/>
    </contour>
  </outline>
</glyph>
<glyph name="eight" format="2">
  <advance width="348"/>
  <unicode hex="0038"/>
  <outline>
    <contour>
      <point x="166" y="291" type="curve" smooth="yes"/>
      <point x="246" y="291"/>
      <point x="288" y="364"/>
      <point x="288" y="491" type="curve" smooth="yes"/>
      <point x="288" y="645"/>
      <point x="254" y="707"/>
      <point x="178" y="707" type="curve" smooth="yes"/>
      <point x="99" y="707"/>
      <point x="60" y="636"/>
      <point x="60" y="481" type="curve" smooth="yes"/>
      <point x="60" y="371"/>
      <point x="102" y="291"/>
    </contour>
    <contour>
      <point x="171" y="-10" type="curve" smooth="yes"/>
      <point x="259" y="-10"/>
      <point x="304" y="37"/>
      <point x="304" y="145" type="curve" smooth="yes"/>
      <point x="304" y="251"/>
      <point x="260" y="313"/>
      <point x="177" y="313" type="curve" smooth="yes"/>
      <point x="90" y="313"/>
      <point x="44" y="245"/>
      <point x="44" y="137" type="curve" smooth="yes"/>
      <point x="44" y="41"/>
      <point x="92" y="-10"/>
    </contour>
    <contour>
      <point x="174" y="12" type="curve" smooth="yes"/>
      <point x="106" y="12"/>
      <point x="72" y="55"/>
      <point x="72" y="146" type="curve" smooth="yes"/>
      <point x="72" y="229"/>
      <point x="107" y="291"/>
      <point x="176" y="291" type="curve" smooth="yes"/>
      <point x="243" y="291"/>
      <point x="276" y="232"/>
      <point x="276" y="140" type="curve" smooth="yes"/>
      <point x="276" y="50"/>
      <point x="244" y="12"/>
    </contour>
    <contour>
      <point x="174" y="313" type="curve" smooth="yes"/>
      <point x="119" y="313"/>
      <point x="90" y="385"/>
      <point x="90" y="493" type="curve" smooth="yes"/>
      <point x="90" y="621"/>
      <point x="117" y="680"/>
      <point x="177" y="680" type="curve" smooth="yes"/>
      <point x="238" y="680"/>
      <point x="259" y="628"/>
      <point x="259" y="486" type="curve" smooth="yes"/>
      <point x="259" y="384"/>
      <point x="228" y="313"/>
    </contour>
  </outline>
</glyph>
<glyph name="nine" format="2">
  <advance width="360"/>
  <unicode hex="0039"/>
  <outline>
    <contour>
      <point x="167" y="-10" type="curve" smooth="yes"/>
      <point x="269" y="-10"/>
      <point x="307" y="77"/>
      <point x="307" y="402" type="curve" smooth="yes"/>
      <point x="307" y="647"/>
      <point x="267" y="713"/>
      <point x="180" y="713" type="curve" smooth="yes"/>
      <point x="91" y="713"/>
      <point x="59" y="610"/>
      <point x="59" y="496" type="curve" smooth="yes"/>
      <point x="59" y="369"/>
      <point x="84" y="275"/>
      <point x="174" y="275" type="curve" smooth="yes"/>
      <point x="219" y="275"/>
      <point x="273" y="309"/>
      <point x="291" y="389" type="curve"/>
      <point x="276" y="440" type="line"/>
      <point x="276" y="361"/>
      <point x="232" y="302"/>
      <point x="174" y="302" type="curve" smooth="yes"/>
      <point x="105" y="302"/>
      <point x="88" y="387"/>
      <point x="88" y="492" type="curve" smooth="yes"/>
      <point x="88" y="591"/>
      <point x="106" y="687"/>
      <point x="179" y="687" type="curve" smooth="yes"/>
      <point x="273" y="687"/>
      <point x="276" y="568"/>
      <point x="276" y="379" type="curve" smooth="yes"/>
      <point x="276" y="193"/>
      <point x="273" y="14"/>
      <point x="169" y="14" type="curve" smooth="yes"/>
      <point x="115" y="14"/>
      <point x="93" y="57"/>
      <point x="93" y="124" type="curve" smooth="yes"/>
      <point x="93" y="136"/>
      <point x="94" y="148"/>
      <point x="95" y="161" type="curve"/>
      <point x="65" y="159" type="line"/>
      <point x="64" y="149"/>
      <point x="64" y="140"/>
      <point x="64" y="130" type="curve" smooth="yes"/>
      <point x="64" y="49"/>
      <point x="92" y="-10"/>
    </contour>
  </outline>
</glyph>
<glyph name="colon" format="2">
  <advance width="206"/>
  <unicode hex="003A"/>
  <outline>
    <contour>
      <point x="124" y="1" type="line"/>
      <point x="124" y="104" type="line"/>
      <point x="82" y="100" type="line"/>
      <point x="85" y="1" type="line"/>
    </contour>
    <contour>
      <point x="124" y="441" type="line"/>
      <point x="124" y="543" type="line"/>
      <point x="82" y="539" type="line"/>
      <point x="85" y="442" type="line"/>
    </contour>
  </outline>
</glyph>
<glyph name="less" format="2">
  <advance width="508"/>
  <unicode hex="003C"/>
  <outline>
    <contour>
      <point x="417" y="454" type="line"/>
      <point x="382" y="438"/>
      <point x="309" y="407"/>
      <point x="255" y="387" type="curve" smooth="yes"/>
      <point x="196" y="365"/>
      <point x="117" y="333"/>
      <point x="89" y="322" type="curve"/>
      <point x="89" y="290" type="line"/>
      <point x="123" y="303"/>
      <point x="204" y="332"/>
      <point x="257" y="351" type="curve" smooth="yes"/>
      <point x="312" y="371"/>
      <point x="389" y="397"/>
      <point x="414" y="405" type="curve"/>
    </contour>
    <contour>
      <point x="417" y="158" type="curve"/>
      <point x="414" y="207" type="line"/>
      <point x="389" y="215"/>
      <point x="312" y="241"/>
      <point x="257" y="261" type="curve" smooth="yes"/>
      <point x="204" y="280"/>
      <point x="123" y="309"/>
      <point x="89" y="322" type="curve"/>
      <point x="89" y="290" type="line"/>
      <point x="117" y="279"/>
      <point x="196" y="248"/>
      <point x="255" y="225" type="curve" smooth="yes"/>
      <point x="309" y="204"/>
      <point x="382" y="174"/>
    </contour>
  </outline>
</glyph>
<glyph name="equal" format="2">
  <advance width="374"/>
  <unicode hex="003D"/>
  <outline>
    <contour>
      <point x="86" y="203" type="line"/>
      <point x="106" y="204"/>
      <point x="152" y="205"/>
      <point x="183" y="205" type="curve" smooth="yes"/>
      <point x="214" y="205"/>
      <point x="265" y="204"/>
      <point x="288" y="203" type="curve"/>
      <point x="286" y="236" type="line"/>
      <point x="267" y="235"/>
      <point x="220" y="233"/>
      <point x="188" y="234" type="curve" smooth="yes"/>
      <point x="154" y="235"/>
      <point x="107" y="236"/>
      <point x="88" y="237" type="curve"/>
    </contour>
    <contour>
      <point x="86" y="333" type="line"/>
      <point x="106" y="334"/>
      <point x="152" y="335"/>
      <point x="183" y="335" type="curve" smooth="yes"/>
      <point x="214" y="335"/>
      <point x="265" y="334"/>
      <point x="288" y="333" type="curve"/>
      <point x="286" y="366" type="line"/>
      <point x="267" y="365"/>
      <point x="220" y="363"/>
      <point x="188" y="364" type="curve" smooth="yes"/>
      <point x="154" y="365"/>
      <point x="107" y="366"/>
      <point x="88" y="367" type="curve"/>
    </contour>
  </outline>
</glyph>
<glyph name="question" format="2">
  <advance width="395"/>
  <unicode hex="003F"/>
  <outline>
    <contour>
      <point x="203" y="216" type="line"/>
      <point x="201" y="231"/>
      <point x="199" y="245"/>
      <point x="199" y="259" type="curve" smooth="yes"/>
      <point x="199" y="308"/>
      <point x="216" y="347"/>
      <point x="248" y="388" type="curve" smooth="yes"/>
      <point x="279" y="428"/>
      <point x="312" y="483"/>
      <point x="312" y="588" type="curve" smooth="yes"/>
      <point x="312" y="667"/>
      <point x="272" y="715"/>
      <point x="201" y="715" type="curve" smooth="yes"/>
      <point x="109" y="715"/>
      <point x="80" y="645"/>
      <point x="80" y="558" type="curve" smooth="yes"/>
      <point x="80" y="531"/>
      <point x="84" y="502"/>
      <point x="89" y="473" type="curve"/>
      <point x="119" y="472" type="line"/>
      <point x="114" y="498"/>
      <point x="111" y="525"/>
      <point x="111" y="550" type="curve" smooth="yes"/>
      <point x="111" y="624"/>
      <point x="126" y="688"/>
      <point x="198" y="688" type="curve" smooth="yes"/>
      <point x="252" y="688"/>
      <point x="282" y="654"/>
      <point x="282" y="596" type="curve" smooth="yes"/>
      <point x="282" y="477"/>
      <point x="247" y="435"/>
      <point x="217" y="393" type="curve" smooth="yes"/>
      <point x="185" y="349"/>
      <point x="171" y="314"/>
      <point x="171" y="264" type="curve" smooth="yes"/>
      <point x="171" y="250"/>
      <point x="172" y="234"/>
      <point x="174" y="217" type="curve"/>
    </contour>
    <contour>
      <point x="219" y="-2" type="line"/>
      <point x="212" y="94" type="line"/>
      <point x="175" y="92" type="line"/>
      <point x="174" y="-1" type="line"/>
    </contour>
  </outline>
</glyph>
<glyph name="A" format="2">
  <advance width="335"/>
  <unicode hex="0041"/>
  <anchor x="166" y="0" name="bottom"/>
  <anchor x="312" y="6" name="ogonek"/>
  <anchor x="170" y="693" name="top"/>
  <outline>
    <contour>
      <point x="277" y="-3" type="curve"/>
      <point x="311" y="0" type="line"/>
      <point x="296" y="78"/>
      <point x="268" y="230"/>
      <point x="249" y="360" type="curve"/>
      <point x="234" y="456"/>
      <point x="210" y="614"/>
      <point x="196" y="706" type="curve"/>
      <point x="135" y="704" type="line"/>
      <point x="165" y="682" type="line"/>
      <point x="177" y="619"/>
      <point x="210" y="433"/>
      <point x="223" y="350" type="curve"/>
      <point x="243" y="219"/>
      <point x="265" y="71"/>
    </contour>
    <contour>
      <point x="67" y="181" type="line"/>
      <point x="263" y="185" type="line"/>
      <point x="263" y="211" type="line"/>
      <point x="67" y="215" type="line"/>
    </contour>
    <contour>
      <point x="60" y="6" type="line"/>
      <point x="73" y="89"/>
      <point x="97" y="240"/>
      <point x="113" y="350" type="curve"/>
      <point x="132" y="475"/>
      <point x="154" y="626"/>
      <point x="166" y="688" type="curve"/>
      <point x="196" y="706" type="line"/>
      <point x="135" y="704" type="line"/>
      <point x="126" y="632"/>
      <point x="105" y="489"/>
      <point x="85" y="360" type="curve"/>
      <point x="65" y="229"/>
      <point x="39" y="82"/>
      <point x="25" y="7" type="curve"/>
    </contour>
  </outline>
</glyph>
<glyph name="B" format="2">
  <advance width="333"/>
  <unicode hex="0042"/>
  <outline>
    <contour>
      <point x="86" y="223" type="line"/>
      <point x="219" y="223"/>
      <point x="282" y="276"/>
      <point x="282" y="472" type="curve" smooth="yes"/>
      <point x="282" y="669"/>
      <point x="243" y="719"/>
      <point x="146" y="719" type="curve" smooth="yes"/>
      <point x="109" y="719"/>
      <point x="84" y="717"/>
      <point x="52" y="714" type="curve"/>
      <point x="66" y="678" type="line"/>
      <point x="91" y="684"/>
      <point x="107" y="687"/>
      <point x="153" y="687" type="curve" smooth="yes"/>
      <point x="227" y="687"/>
      <point x="247" y="616"/>
      <point x="247" y="469" type="curve" smooth="yes"/>
      <point x="247" y="303"/>
      <point x="207" y="248"/>
      <point x="82" y="248" type="curve"/>
    </contour>
    <contour>
      <point x="153" y="-10" type="curve"/>
      <point x="237" y="-10"/>
      <point x="289" y="34"/>
      <point x="289" y="124" type="curve" smooth="yes"/>
      <point x="289" y="217"/>
      <point x="228" y="248"/>
      <point x="82" y="248" type="curve"/>
      <point x="86" y="218" type="line"/>
      <point x="97" y="219"/>
      <point x="108" y="219"/>
      <point x="118" y="219" type="curve" smooth="yes"/>
      <point x="220" y="219"/>
      <point x="254" y="175"/>
      <point x="254" y="126" type="curve" smooth="yes"/>
      <point x="254" y="66"/>
      <point x="225" y="21"/>
      <point x="156" y="21" type="curve" smooth="yes"/>
      <point x="130" y="21"/>
      <point x="99" y="25"/>
      <point x="74" y="29" type="curve"/>
      <point x="55" y="-5" type="line"/>
      <point x="87" y="-8"/>
      <point x="116" y="-10"/>
    </contour>
    <contour>
      <point x="55" y="-5" type="curve"/>
      <point x="93" y="1" type="line"/>
      <point x="93" y="1"/>
      <point x="89" y="234"/>
      <point x="89" y="350" type="curve"/>
      <point x="89" y="466"/>
      <point x="92" y="704"/>
      <point x="92" y="704" type="curve"/>
      <point x="52" y="714" type="line"/>
      <point x="52" y="714"/>
      <point x="59" y="523"/>
      <point x="59" y="352" type="curve"/>
      <point x="59" y="181"/>
      <point x="55" y="-5"/>
    </contour>
  </outline>
</glyph>
<glyph name="C" format="2">
  <advance width="332"/>
  <unicode hex="0043"/>
  <anchor x="173" y="0" name="bottom"/>
  <anchor x="174" y="693" name="top"/>
  <outline>
    <contour>
      <point x="171" y="-6" type="curve" smooth="yes"/>
      <point x="259" y="-6"/>
      <point x="288" y="62"/>
      <point x="288" y="156" type="curve" smooth="yes"/>
      <point x="288" y="171"/>
      <point x="287" y="187"/>
      <point x="286" y="203" type="curve"/>
      <point x="256" y="202" type="line"/>
      <point x="258" y="184"/>
      <point x="259" y="164"/>
      <point x="259" y="148" type="curve" smooth="yes"/>
      <point x="259" y="72"/>
      <point x="236" y="24"/>
      <point x="174" y="24" type="curve" smooth="yes"/>
      <point x="105" y="24"/>
      <point x="91" y="71"/>
      <point x="83" y="154" type="curve" smooth="yes"/>
      <point x="78" y="209"/>
      <point x="77" y="273"/>
      <point x="77" y="341" type="curve" smooth="yes"/>
      <point x="77" y="404"/>
      <point x="80" y="508"/>
      <point x="87" y="563" type="curve" smooth="yes"/>
      <point x="97" y="638"/>
      <point x="122" y="676"/>
      <point x="182" y="676" type="curve" smooth="yes"/>
      <point x="255" y="676"/>
      <point x="268" y="611"/>
      <point x="268" y="516" type="curve" smooth="yes"/>
      <point x="268" y="468"/>
      <point x="264" y="409"/>
      <point x="258" y="354" type="curve"/>
      <point x="289" y="354" type="line"/>
      <point x="296" y="407"/>
      <point x="300" y="462"/>
      <point x="300" y="511" type="curve" smooth="yes"/>
      <point x="300" y="619"/>
      <point x="282" y="705"/>
      <point x="187" y="705" type="curve" smooth="yes"/>
      <point x="111" y="705"/>
      <point x="68" y="668"/>
      <point x="55" y="562" type="curve" smooth="yes"/>
      <point x="50" y="522"/>
      <point x="44" y="410"/>
      <point x="44" y="356" type="curve" smooth="yes"/>
      <point x="44" y="303"/>
      <point x="44" y="212"/>
      <point x="52" y="146" type="curve" smooth="yes"/>
      <point x="64" y="48"/>
      <point x="83" y="-6"/>
    </contour>
  </outline>
</glyph>
<glyph name="D" format="2">
  <advance width="346"/>
  <unicode hex="0044"/>
  <anchor x="72" y="348" name="center"/>
  <anchor x="144" y="693" name="top"/>
  <outline>
    <contour>
      <point x="116" y="-10" type="curve" smooth="yes"/>
      <point x="275" y="-10"/>
      <point x="306" y="99"/>
      <point x="306" y="359" type="curve" smooth="yes"/>
      <point x="306" y="614"/>
      <point x="297" y="709"/>
      <point x="126" y="709" type="curve" smooth="yes"/>
      <point x="103" y="709"/>
      <point x="76" y="707"/>
      <point x="47" y="704" type="curve"/>
      <point x="61" y="671" type="line"/>
      <point x="91" y="676"/>
      <point x="118" y="679"/>
      <point x="140" y="679" type="curve" smooth="yes"/>
      <point x="267" y="679"/>
      <point x="271" y="590"/>
      <point x="271" y="364" type="curve" smooth="yes"/>
      <point x="271" y="130"/>
      <point x="251" y="18"/>
      <point x="133" y="18" type="curve" smooth="yes"/>
      <point x="115" y="18"/>
      <point x="95" y="21"/>
      <point x="72" y="26" type="curve"/>
      <point x="50" y="-5" type="line"/>
      <point x="74" y="-8"/>
      <point x="96" y="-10"/>
    </contour>
    <contour>
      <point x="50" y="-5" type="curve"/>
      <point x="88" y="-4" type="line"/>
      <point x="87" y="12"/>
      <point x="84" y="226"/>
      <point x="84" y="348" type="curve" smooth="yes"/>
      <point x="84" y="421"/>
      <point x="86" y="652"/>
      <point x="87" y="702" type="curve"/>
      <point x="47" y="704" type="line"/>
      <point x="50" y="626"/>
      <point x="54" y="477"/>
      <point x="54" y="352" type="curve"/>
      <point x="54" y="227"/>
      <point x="52" y="75"/>
    </contour>
  </outline>
</glyph>
<glyph name="E" format="2">
  <advance width="303"/>
  <unicode hex="0045"/>
  <anchor x="152" y="0" name="bottom"/>
  <anchor x="269" y="5" name="ogonek"/>
  <anchor x="154" y="693" name="top"/>
  <outline>
    <contour>
      <point x="55" y="-5" type="curve"/>
      <point x="93" y="1" type="line"/>
      <point x="93" y="1"/>
      <point x="89" y="234"/>
      <point x="89" y="350" type="curve"/>
      <point x="89" y="466"/>
      <point x="92" y="687"/>
      <point x="92" y="687" type="curve"/>
      <point x="52" y="699" type="line"/>
      <point x="52" y="699"/>
      <point x="59" y="523"/>
      <point x="59" y="352" type="curve"/>
      <point x="59" y="181"/>
      <point x="55" y="-5"/>
    </contour>
    <contour>
      <point x="55" y="-5" type="line"/>
      <point x="265" y="0" type="line"/>
      <point x="265" y="23" type="line"/>
      <point x="89" y="28" type="line"/>
    </contour>
    <contour>
      <point x="74" y="217" type="line"/>
      <point x="258" y="221" type="line"/>
      <point x="260" y="247" type="line"/>
      <point x="74" y="250" type="line"/>
    </contour>
    <contour>
      <point x="80" y="664" type="line"/>
      <point x="255" y="665" type="line"/>
      <point x="255" y="693" type="line"/>
      <point x="52" y="699" type="line"/>
    </contour>
  </outline>
</glyph>
<glyph name="F" format="2">
  <advance width="286"/>
  <unicode hex="0046"/>
  <outline>
    <contour>
      <point x="55" y="-5" type="curve"/>
      <point x="93" y="1" type="line"/>
      <point x="93" y="1"/>
      <point x="89" y="234"/>
      <point x="89" y="350" type="curve"/>
      <point x="89" y="466"/>
      <point x="92" y="693"/>
      <point x="92" y="693" type="curve"/>
      <point x="52" y="705" type="line"/>
      <point x="52" y="705"/>
      <point x="59" y="523"/>
      <point x="59" y="352" type="curve"/>
      <point x="59" y="181"/>
      <point x="55" y="-5"/>
    </contour>
    <contour>
      <point x="74" y="257" type="line"/>
      <point x="255" y="261" type="line"/>
      <point x="254" y="287" type="line"/>
      <point x="74" y="290" type="line"/>
    </contour>
    <contour>
      <point x="80" y="670" type="line"/>
      <point x="252" y="671" type="line"/>
      <point x="254" y="699" type="line"/>
      <point x="52" y="705" type="line"/>
    </contour>
  </outline>
</glyph>
<glyph name="G" format="2">
  <advance width="333"/>
  <unicode hex="0047"/>
  <anchor x="170" y="0" name="bottom"/>
  <anchor x="178" y="693" name="top"/>
  <outline>
    <contour>
      <point x="44" y="361" type="curve" smooth="yes"/>
      <point x="44" y="308"/>
      <point x="43" y="208"/>
      <point x="52" y="142" type="curve" smooth="yes"/>
      <point x="64" y="49"/>
      <point x="86" y="-10"/>
      <point x="171" y="-10" type="curve" smooth="yes"/>
      <point x="217" y="-10"/>
      <point x="246" y="8"/>
      <point x="264" y="40" type="curve"/>
      <point x="273" y="0" type="line"/>
      <point x="290" y="0" type="line"/>
      <point x="286" y="254" type="line"/>
      <point x="184" y="256" type="line"/>
      <point x="184" y="232" type="line"/>
      <point x="257" y="234" type="line"/>
      <point x="258" y="208"/>
      <point x="259" y="177"/>
      <point x="259" y="159" type="curve" smooth="yes"/>
      <point x="259" y="64"/>
      <point x="237" y="20"/>
      <point x="174" y="20" type="curve" smooth="yes"/>
      <point x="105" y="20"/>
      <point x="91" y="70"/>
      <point x="83" y="150" type="curve" smooth="yes"/>
      <point x="78" y="200"/>
      <point x="77" y="248"/>
      <point x="77" y="350" type="curve" smooth="yes"/>
      <point x="77" y="400"/>
      <point x="80" y="517"/>
      <point x="87" y="571" type="curve" smooth="yes"/>
      <point x="97" y="646"/>
      <point x="122" y="684"/>
      <point x="182" y="684" type="curve" smooth="yes"/>
      <point x="255" y="684"/>
      <point x="268" y="619"/>
      <point x="268" y="524" type="curve" smooth="yes"/>
      <point x="268" y="484"/>
      <point x="265" y="436"/>
      <point x="261" y="389" type="curve"/>
      <point x="292" y="389" type="line"/>
      <point x="297" y="433"/>
      <point x="300" y="478"/>
      <point x="300" y="519" type="curve" smooth="yes"/>
      <point x="300" y="627"/>
      <point x="282" y="713"/>
      <point x="187" y="713" type="curve" smooth="yes"/>
      <point x="111" y="713"/>
      <point x="68" y="676"/>
      <point x="55" y="570" type="curve" smooth="yes"/>
      <point x="50" y="530"/>
      <point x="44" y="415"/>
    </contour>
  </outline>
</glyph>
<glyph name="H" format="2">
  <advance width="364"/>
  <unicode hex="0048"/>
  <anchor x="183" y="0" name="bottom"/>
  <anchor x="182" y="459" name="center"/>
  <anchor x="182" y="693" name="top"/>
  <outline>
    <contour>
      <point x="275" y="-2" type="curve"/>
      <point x="312" y="-2" type="line"/>
      <point x="312" y="-2"/>
      <point x="308" y="210"/>
      <point x="308" y="381" type="curve"/>
      <point x="308" y="552"/>
      <point x="312" y="707"/>
      <point x="312" y="707" type="curve"/>
      <point x="274" y="705" type="line"/>
      <point x="274" y="705"/>
      <point x="277" y="496"/>
      <point x="277" y="379" type="curve"/>
      <point x="277" y="263"/>
      <point x="275" y="-2"/>
    </contour>
    <contour>
      <point x="71" y="248" type="line"/>
      <point x="71" y="217" type="line"/>
      <point x="289" y="217" type="line"/>
      <point x="288" y="253" type="line"/>
    </contour>
    <contour>
      <point x="55" y="0" type="curve"/>
      <point x="93" y="1" type="line"/>
      <point x="93" y="1"/>
      <point x="89" y="234"/>
      <point x="89" y="350" type="curve"/>
      <point x="89" y="466"/>
      <point x="92" y="697"/>
      <point x="92" y="697" type="curve"/>
      <point x="52" y="695" type="line"/>
      <point x="52" y="695"/>
      <point x="59" y="523"/>
      <point x="59" y="352" type="curve"/>
      <point x="59" y="181"/>
      <point x="55" y="0"/>
    </contour>
  </outline>
</glyph>
<glyph name="I" format="2">
  <advance width="164"/>
  <unicode hex="0049"/>
  <anchor x="81" y="0" name="bottom"/>
  <anchor x="101" y="7" name="ogonek"/>
  <anchor x="83" y="693" name="top"/>
  <outline>
    <contour>
      <point x="63" y="700" type="line"/>
      <point x="66" y="644"/>
      <point x="67" y="474"/>
      <point x="66" y="379" type="curve"/>
      <point x="66" y="263"/>
      <point x="64" y="-2"/>
      <point x="64" y="-2" type="curve"/>
      <point x="101" y="-2" type="line"/>
      <point x="101" y="-2"/>
      <point x="97" y="210"/>
      <point x="97" y="381" type="curve"/>
      <point x="97" y="552"/>
      <point x="101" y="702"/>
      <point x="101" y="702" type="curve"/>
    </contour>
  </outline>
</glyph>
<glyph name="J" format="2">
  <advance width="298"/>
  <unicode hex="004A"/>
  <anchor x="219" y="693" name="top"/>
  <outline>
    <contour>
      <point x="132" y="-6" type="curve"/>
      <point x="227" y="-6"/>
      <point x="236" y="91"/>
      <point x="236" y="190" type="curve" smooth="yes"/>
      <point x="236" y="260"/>
      <point x="236" y="334"/>
      <point x="236" y="402" type="curve"/>
      <point x="236" y="492"/>
      <point x="236" y="607"/>
      <point x="238" y="700" type="curve"/>
      <point x="196" y="698" type="line"/>
      <point x="200" y="611"/>
      <point x="201" y="464"/>
      <point x="201" y="396" type="curve"/>
      <point x="202" y="319"/>
      <point x="202" y="207"/>
      <point x="202" y="167" type="curve" smooth="yes"/>
      <point x="202" y="66"/>
      <point x="188" y="23"/>
      <point x="132" y="23" type="curve"/>
      <point x="73" y="23"/>
      <point x="58" y="90"/>
      <point x="58" y="179" type="curve" smooth="yes"/>
      <point x="58" y="216"/>
      <point x="60" y="257"/>
      <point x="64" y="298" type="curve"/>
      <point x="34" y="299" type="line"/>
      <point x="31" y="259"/>
      <point x="28" y="218"/>
      <point x="28" y="180" type="curve" smooth="yes"/>
      <point x="28" y="77"/>
      <point x="48" y="-6"/>
    </contour>
  </outline>
</glyph>
<glyph name="K" format="2">
  <advance width="319"/>
  <unicode hex="004B"/>
  <anchor x="170" y="0" name="bottom"/>
  <outline>
    <contour>
      <point x="275" y="1" type="curve"/>
      <point x="321" y="5" type="line"/>
      <point x="249" y="100"/>
      <point x="162" y="227"/>
      <point x="118" y="296" type="curve"/>
      <point x="169" y="400"/>
      <point x="271" y="605"/>
      <point x="323" y="704" type="curve"/>
      <point x="282" y="702" type="line"/>
      <point x="242" y="609"/>
      <point x="159" y="434"/>
      <point x="82" y="289" type="curve"/>
      <point x="147" y="198"/>
      <point x="220" y="89"/>
    </contour>
    <contour>
      <point x="55" y="0" type="curve"/>
      <point x="93" y="1" type="line"/>
      <point x="93" y="1"/>
      <point x="89" y="234"/>
      <point x="89" y="350" type="curve"/>
      <point x="89" y="466"/>
      <point x="92" y="697"/>
      <point x="92" y="697" type="curve"/>
      <point x="52" y="699" type="line"/>
      <point x="52" y="699"/>
      <point x="59" y="523"/>
      <point x="59" y="352" type="curve"/>
      <point x="59" y="181"/>
      <point x="55" y="0"/>
    </contour>
  </outline>
</glyph>
<glyph name="L" format="2">
  <advance width="262"/>
  <unicode hex="004C"/>
  <anchor x="162" y="0" name="bottom"/>
  <anchor x="82" y="350" name="center"/>
  <anchor x="72" y="693" name="top"/>
  <anchor x="149" y="478" name="topright"/>
  <outline>
    <contour>
      <point x="55" y="-5" type="curve"/>
      <point x="93" y="1" type="line"/>
      <point x="93" y="1"/>
      <point x="89" y="234"/>
      <point x="89" y="350" type="curve"/>
      <point x="89" y="466"/>
      <point x="92" y="704"/>
      <point x="92" y="704" type="curve"/>
      <point x="52" y="700" type="line"/>
      <point x="52" y="700"/>
      <point x="59" y="523"/>
      <point x="59" y="352" type="curve"/>
      <point x="59" y="181"/>
      <point x="55" y="-5"/>
    </contour>
    <contour>
      <point x="55" y="-5" type="line"/>
      <point x="265" y="0" type="line"/>
      <point x="265" y="25" type="line"/>
      <point x="89" y="28" type="line"/>
    </contour>
  </outline>
</glyph>
<glyph name="M" format="2">
  <advance width="499"/>
  <unicode hex="004D"/>
  <outline>
    <contour>
      <point x="58" y="-1" type="curve"/>
      <point x="95" y="-1" type="line"/>
      <point x="95" y="-1"/>
      <point x="92" y="231"/>
      <point x="92" y="347" type="curve" smooth="yes"/>
      <point x="91" y="443"/>
      <point x="91" y="539"/>
      <point x="90" y="635" type="curve"/>
      <point x="105" y="567"/>
      <point x="134" y="452"/>
      <point x="155" y="361" type="curve" smooth="yes"/>
      <point x="195" y="184"/>
      <point x="215" y="97"/>
      <point x="229" y="26" type="curve"/>
      <point x="265" y="23" type="line"/>
      <point x="280" y="97"/>
      <point x="300" y="182"/>
      <point x="338" y="357" type="curve" smooth="yes"/>
      <point x="359" y="453"/>
      <point x="390" y="571"/>
      <point x="404" y="637" type="curve"/>
      <point x="405" y="567"/>
      <point x="406" y="451"/>
      <point x="406" y="374" type="curve" smooth="yes"/>
      <point x="406" y="298"/>
      <point x="404" y="0"/>
      <point x="404" y="0" type="curve"/>
      <point x="441" y="-1" type="line"/>
      <point x="441" y="-1"/>
      <point x="437" y="205"/>
      <point x="437" y="376" type="curve" smooth="yes"/>
      <point x="437" y="547"/>
      <point x="440" y="697"/>
      <point x="440" y="697" type="curve"/>
      <point x="383" y="697" type="line"/>
      <point x="383" y="697"/>
      <point x="344" y="530"/>
      <point x="308" y="356" type="curve" smooth="yes"/>
      <point x="291" y="274"/>
      <point x="264" y="161"/>
      <point x="248" y="90" type="curve"/>
      <point x="225" y="187"/>
      <point x="212" y="232"/>
      <point x="187" y="352" type="curve" smooth="yes"/>
      <point x="152" y="525"/>
      <point x="112" y="704"/>
      <point x="112" y="704" type="curve"/>
      <point x="59" y="702" type="line"/>
      <point x="59" y="702"/>
      <point x="62" y="520"/>
      <point x="62" y="349" type="curve" smooth="yes"/>
      <point x="62" y="178"/>
      <point x="58" y="-1"/>
    </contour>
  </outline>
</glyph>
<glyph name="N" format="2">
  <advance width="373"/>
  <unicode hex="004E"/>
  <anchor x="185" y="0" name="bottom"/>
  <anchor x="188" y="693" name="top"/>
  <outline>
    <contour>
      <point x="53" y="704" type="line"/>
      <point x="53" y="704"/>
      <point x="59" y="527"/>
      <point x="59" y="356" type="curve" smooth="yes"/>
      <point x="59" y="185"/>
      <point x="56" y="1"/>
      <point x="56" y="1" type="curve"/>
      <point x="93" y="0" type="line"/>
      <point x="93" y="0"/>
      <point x="90" y="238"/>
      <point x="90" y="354" type="curve" smooth="yes"/>
      <point x="90" y="444"/>
      <point x="89" y="533"/>
      <point x="89" y="623" type="curve"/>
      <point x="112" y="548"/>
      <point x="153" y="412"/>
      <point x="173" y="344" type="curve" smooth="yes"/>
      <point x="207" y="229"/>
      <point x="241" y="114"/>
      <point x="275" y="-1" type="curve"/>
      <point x="318" y="3" type="line"/>
      <point x="318" y="3"/>
      <point x="315" y="212"/>
      <point x="314" y="383" type="curve" smooth="yes"/>
      <point x="314" y="554"/>
      <point x="320" y="715"/>
      <point x="320" y="715" type="curve"/>
      <point x="280" y="715" type="line"/>
      <point x="280" y="715"/>
      <point x="283" y="497"/>
      <point x="283" y="381" type="curve" smooth="yes"/>
      <point x="283" y="305"/>
      <point x="285" y="157"/>
      <point x="284" y="73" type="curve"/>
      <point x="278" y="94"/>
      <point x="246" y="208"/>
      <point x="197" y="369" type="curve" smooth="yes"/>
      <point x="145" y="542"/>
      <point x="100" y="704"/>
      <point x="100" y="704" type="curve"/>
    </contour>
  </outline>
</glyph>
<glyph name="P" format="2">
  <advance width="313"/>
  <unicode hex="0050"/>
  <outline>
    <contour>
      <point x="86" y="220" type="line"/>
      <point x="223" y="220"/>
      <point x="282" y="276"/>
      <point x="282" y="472" type="curve" smooth="yes"/>
      <point x="282" y="663"/>
      <point x="243" y="713"/>
      <point x="146" y="713" type="curve" smooth="yes"/>
      <point x="109" y="713"/>
      <point x="84" y="711"/>
      <point x="52" y="708" type="curve"/>
      <point x="66" y="672" type="line"/>
      <point x="91" y="678"/>
      <point x="107" y="681"/>
      <point x="153" y="681" type="curve" smooth="yes"/>
      <point x="227" y="681"/>
      <point x="247" y="610"/>
      <point x="247" y="469" type="curve" smooth="yes"/>
      <point x="247" y="303"/>
      <point x="211" y="252"/>
      <point x="82" y="252" type="curve"/>
    </contour>
    <contour>
      <point x="55" y="-2" type="curve"/>
      <point x="93" y="1" type="line"/>
      <point x="91" y="101"/>
      <point x="89" y="265"/>
      <point x="89" y="350" type="curve"/>
      <point x="88" y="432"/>
      <point x="91" y="632"/>
      <point x="92" y="698" type="curve"/>
      <point x="52" y="708" type="line"/>
      <point x="55" y="628"/>
      <point x="59" y="477"/>
      <point x="59" y="352" type="curve"/>
      <point x="59" y="227"/>
      <point x="57" y="77"/>
    </contour>
  </outline>
</glyph>
<glyph name="Q" format="2">
  <advance width="353"/>
  <unicode hex="0051"/>
  <outline>
    <contour>
      <point x="171" y="-2" type="curve" smooth="yes"/>
      <point x="253" y="-2"/>
      <point x="285" y="59"/>
      <point x="296" y="150" type="curve" smooth="yes"/>
      <point x="307" y="241"/>
      <point x="309" y="287"/>
      <point x="309" y="359" type="curve" smooth="yes"/>
      <point x="309" y="439"/>
      <point x="311" y="503"/>
      <point x="304" y="572" type="curve" smooth="yes"/>
      <point x="295" y="663"/>
      <point x="255" y="709"/>
      <point x="189" y="709" type="curve" smooth="yes"/>
      <point x="113" y="709"/>
      <point x="68" y="670"/>
      <point x="55" y="566" type="curve" smooth="yes"/>
      <point x="50" y="526"/>
      <point x="44" y="414"/>
      <point x="44" y="360" type="curve" smooth="yes"/>
      <point x="44" y="307"/>
      <point x="44" y="216"/>
      <point x="52" y="150" type="curve" smooth="yes"/>
      <point x="64" y="52"/>
      <point x="83" y="-2"/>
    </contour>
    <contour>
      <point x="174" y="28" type="curve" smooth="yes"/>
      <point x="105" y="28"/>
      <point x="91" y="75"/>
      <point x="83" y="158" type="curve" smooth="yes"/>
      <point x="75" y="240"/>
      <point x="77" y="299"/>
      <point x="77" y="349" type="curve" smooth="yes"/>
      <point x="77" y="399"/>
      <point x="80" y="513"/>
      <point x="87" y="567" type="curve" smooth="yes"/>
      <point x="97" y="644"/>
      <point x="122" y="682"/>
      <point x="182" y="682" type="curve" smooth="yes"/>
      <point x="247" y="682"/>
      <point x="271" y="634"/>
      <point x="274" y="544" type="curve" smooth="yes"/>
      <point x="275" y="511"/>
      <point x="274" y="448"/>
      <point x="274" y="364" type="curve" smooth="yes"/>
      <point x="274" y="300"/>
      <point x="273" y="237"/>
      <point x="269" y="190" type="curve" smooth="yes"/>
      <point x="260" y="82"/>
      <point x="243" y="28"/>
    </contour>
    <contour>
      <point x="311" y="-59" type="line"/>
      <point x="333" y="-37" type="line"/>
      <point x="178" y="128" type="line"/>
      <point x="165" y="114" type="line"/>
    </contour>
  </outline>
</glyph>
<glyph name="R" format="2">
  <advance width="342"/>
  <unicode hex="0052"/>
  <anchor x="167" y="0" name="bottom"/>
  <anchor x="151" y="693" name="top"/>
  <outline>
    <contour>
      <point x="86" y="233" type="line"/>
      <point x="228" y="233"/>
      <point x="287" y="289"/>
      <point x="287" y="472" type="curve" smooth="yes"/>
      <point x="287" y="658"/>
      <point x="248" y="708"/>
      <point x="146" y="708" type="curve" smooth="yes"/>
      <point x="109" y="708"/>
      <point x="84" y="706"/>
      <point x="52" y="703" type="curve"/>
      <point x="66" y="667" type="line"/>
      <point x="91" y="673"/>
      <point x="107" y="676"/>
      <point x="153" y="676" type="curve" smooth="yes"/>
      <point x="232" y="676"/>
      <point x="252" y="605"/>
      <point x="252" y="469" type="curve" smooth="yes"/>
      <point x="252" y="316"/>
      <point x="216" y="265"/>
      <point x="82" y="265" type="curve"/>
    </contour>
    <contour>
      <point x="55" y="-3" type="curve"/>
      <point x="93" y="1" type="line"/>
      <point x="91" y="101"/>
      <point x="89" y="265"/>
      <point x="89" y="350" type="curve"/>
      <point x="89" y="435"/>
      <point x="91" y="595"/>
      <point x="92" y="693" type="curve"/>
      <point x="52" y="703" type="line"/>
      <point x="55" y="626"/>
      <point x="59" y="477"/>
      <point x="59" y="352" type="curve"/>
      <point x="59" y="227"/>
      <point x="57" y="76"/>
    </contour>
    <contour>
      <point x="266" y="-6" type="curve"/>
      <point x="311" y="-3" type="line"/>
      <point x="267" y="93"/>
      <point x="230" y="184"/>
      <point x="199" y="273" type="curve"/>
      <point x="172" y="248" type="line"/>
      <point x="208" y="159"/>
      <point x="238" y="78"/>
    </contour>
  </outline>
</glyph>
<glyph name="S" format="2">
  <advance width="329"/>
  <unicode hex="0053"/>
  <anchor x="153" y="0" name="bottom"/>
  <anchor x="169" y="693" name="top"/>
  <outline>
    <contour>
      <point x="164" y="-10" type="curve" smooth="yes"/>
      <point x="239" y="-10"/>
      <point x="283" y="39"/>
      <point x="283" y="124" type="curve" smooth="yes"/>
      <point x="283" y="192"/>
      <point x="245" y="238"/>
      <point x="170" y="318" type="curve" smooth="yes"/>
      <point x="115" y="376"/>
      <point x="82" y="440"/>
      <point x="82" y="527" type="curve" smooth="yes"/>
      <point x="82" y="627"/>
      <point x="111" y="675"/>
      <point x="170" y="675" type="curve" smooth="yes"/>
      <point x="222" y="675"/>
      <point x="251" y="625"/>
      <point x="251" y="546" type="curve" smooth="yes"/>
      <point x="251" y="510"/>
      <point x="252" y="474"/>
      <point x="248" y="428" type="curve"/>
      <point x="278" y="428" type="line"/>
      <point x="281" y="469"/>
      <point x="282" y="492"/>
      <point x="282" y="556" type="curve" smooth="yes"/>
      <point x="282" y="653"/>
      <point x="242" y="704"/>
      <point x="166" y="704" type="curve" smooth="yes"/>
      <point x="96" y="704"/>
      <point x="51" y="641"/>
      <point x="51" y="539" type="curve" smooth="yes"/>
      <point x="51" y="438"/>
      <point x="77" y="369"/>
      <point x="149" y="295" type="curve" smooth="yes"/>
      <point x="220" y="222"/>
      <point x="251" y="181"/>
      <point x="251" y="117" type="curve" smooth="yes"/>
      <point x="251" y="53"/>
      <point x="217" y="18"/>
      <point x="160" y="18" type="curve" smooth="yes"/>
      <point x="108" y="18"/>
      <point x="82" y="50"/>
      <point x="82" y="121" type="curve" smooth="yes"/>
      <point x="82" y="144"/>
      <point x="82" y="161"/>
      <point x="83" y="183" type="curve"/>
      <point x="56" y="183" type="line"/>
      <point x="53" y="163"/>
      <point x="52" y="144"/>
      <point x="52" y="124" type="curve" smooth="yes"/>
      <point x="52" y="34"/>
      <point x="88" y="-10"/>
    </contour>
  </outline>
</glyph>
<glyph name="T" format="2">
  <advance width="281"/>
  <unicode hex="0054"/>
  <anchor x="137" y="1" name="bottom"/>
  <anchor x="136" y="347" name="center"/>
  <anchor x="137" y="693" name="top"/>
  <outline>
    <contour>
      <point x="117" y="0" type="curve"/>
      <point x="155" y="1" type="line"/>
      <point x="155" y="1"/>
      <point x="151" y="234"/>
      <point x="151" y="350" type="curve"/>
      <point x="151" y="466"/>
      <point x="154" y="697"/>
      <point x="154" y="697" type="curve"/>
      <point x="114" y="699" type="line"/>
      <point x="114" y="699"/>
      <point x="121" y="523"/>
      <point x="121" y="352" type="curve"/>
      <point x="121" y="181"/>
      <point x="117" y="0"/>
    </contour>
    <contour>
      <point x="3" y="664" type="line"/>
      <point x="3" y="664"/>
      <point x="86" y="669"/>
      <point x="136" y="670" type="curve"/>
      <point x="186" y="670"/>
      <point x="278" y="672"/>
      <point x="278" y="672" type="curve"/>
      <point x="275" y="704" type="line"/>
      <point x="275" y="704"/>
      <point x="172" y="702"/>
      <point x="123" y="702" type="curve"/>
      <point x="74" y="702"/>
      <point x="6" y="701"/>
      <point x="6" y="701" type="curve"/>
    </contour>
  </outline>
</glyph>
<glyph name="U" format="2">
  <advance width="352"/>
  <unicode hex="0055"/>
  <anchor x="178" y="0" name="bottom"/>
  <anchor x="208" y="0" name="ogonek"/>
  <anchor x="179" y="693" name="top"/>
  <anchor x="255" y="693" name="topright"/>
  <outline>
    <contour>
      <point x="177" y="-10" type="curve"/>
      <point x="276" y="-10"/>
      <point x="302" y="64"/>
      <point x="302" y="152" type="curve" smooth="yes"/>
      <point x="302" y="182"/>
      <point x="302" y="278"/>
      <point x="301" y="392" type="curve"/>
      <point x="301" y="524"/>
      <point x="303" y="617"/>
      <point x="304" y="706" type="curve"/>
      <point x="264" y="707" type="line"/>
      <point x="266" y="645"/>
      <point x="269" y="521"/>
      <point x="270" y="394" type="curve"/>
      <point x="270" y="272"/>
      <point x="269" y="154"/>
      <point x="269" y="134" type="curve" smooth="yes"/>
      <point x="269" y="66"/>
      <point x="245" y="17"/>
      <point x="178" y="17" type="curve" smooth="yes"/>
      <point x="119" y="17"/>
      <point x="81" y="50"/>
      <point x="81" y="147" type="curve" smooth="yes"/>
      <point x="81" y="187"/>
      <point x="81" y="319"/>
      <point x="82" y="396" type="curve"/>
      <point x="83" y="464"/>
      <point x="84" y="607"/>
      <point x="87" y="695" type="curve"/>
      <point x="49" y="696" type="line"/>
      <point x="52" y="603"/>
      <point x="52" y="492"/>
      <point x="52" y="402" type="curve"/>
      <point x="52" y="334"/>
      <point x="51" y="220"/>
      <point x="51" y="150" type="curve" smooth="yes"/>
      <point x="51" y="36"/>
      <point x="89" y="-10"/>
    </contour>
  </outline>
</glyph>
<glyph name="V" format="2">
  <advance width="330"/>
  <unicode hex="0056"/>
  <outline>
    <contour>
      <point x="21" y="709" type="line"/>
      <point x="21" y="709"/>
      <point x="58" y="519"/>
      <point x="84" y="341" type="curve" smooth="yes"/>
      <point x="102" y="226"/>
      <point x="119" y="110"/>
      <point x="137" y="-5" type="curve"/>
      <point x="198" y="-6" type="line"/>
      <point x="198" y="-6"/>
      <point x="220" y="164"/>
      <point x="248" y="341" type="curve" smooth="yes"/>
      <point x="275" y="520"/>
      <point x="309" y="702"/>
      <point x="309" y="702" type="curve"/>
      <point x="274" y="700" type="line"/>
      <point x="274" y="700"/>
      <point x="242" y="502"/>
      <point x="220" y="351" type="curve" smooth="yes"/>
      <point x="201" y="226"/>
      <point x="182" y="83"/>
      <point x="170" y="21" type="curve"/>
      <point x="152" y="99"/>
      <point x="128" y="237"/>
      <point x="110" y="351" type="curve" smooth="yes"/>
      <point x="92" y="470"/>
      <point x="74" y="590"/>
      <point x="56" y="709" type="curve"/>
    </contour>
  </outline>
</glyph>
<glyph name="W" format="2">
  <advance width="567"/>
  <unicode hex="0057"/>
  <anchor x="283" y="693" name="top"/>
  <outline>
    <contour>
      <point x="191" y="-6" type="line"/>
      <point x="200" y="46"/>
      <point x="220" y="162"/>
      <point x="241" y="291" type="curve" smooth="yes"/>
      <point x="255" y="381"/>
      <point x="270" y="470"/>
      <point x="284" y="560" type="curve"/>
      <point x="295" y="490"/>
      <point x="311" y="390"/>
      <point x="328" y="291" type="curve" smooth="yes"/>
      <point x="344" y="195"/>
      <point x="368" y="66"/>
      <point x="381" y="-5" type="curve"/>
      <point x="442" y="-6" type="line"/>
      <point x="451" y="67"/>
      <point x="472" y="212"/>
      <point x="492" y="341" type="curve" smooth="yes"/>
      <point x="512" y="472"/>
      <point x="538" y="624"/>
      <point x="553" y="702" type="curve"/>
      <point x="518" y="700" type="line"/>
      <point x="504" y="615"/>
      <point x="480" y="461"/>
      <point x="464" y="351" type="curve" smooth="yes"/>
      <point x="442" y="208"/>
      <point x="429" y="98"/>
      <point x="412" y="19" type="curve"/>
      <point x="400" y="83"/>
      <point x="369" y="218"/>
      <point x="354" y="301" type="curve" smooth="yes"/>
      <point x="330" y="432"/>
      <point x="308" y="578"/>
      <point x="299" y="652" type="curve"/>
      <point x="270" y="652" type="line"/>
      <point x="256" y="566"/>
      <point x="231" y="411"/>
      <point x="213" y="301" type="curve" smooth="yes"/>
      <point x="188" y="150"/>
      <point x="179" y="100"/>
      <point x="161" y="19" type="curve"/>
      <point x="149" y="83"/>
      <point x="116" y="268"/>
      <point x="103" y="351" type="curve" smooth="yes"/>
      <point x="85" y="470"/>
      <point x="67" y="590"/>
      <point x="49" y="709" type="curve"/>
      <point x="14" y="709" type="line"/>
      <point x="30" y="627"/>
      <point x="58" y="471"/>
      <point x="77" y="341" type="curve" smooth="yes"/>
      <point x="95" y="226"/>
      <point x="112" y="110"/>
      <point x="130" y="-5" type="curve"/>
    </contour>
  </outline>
</glyph>
<glyph name="X" format="2">
  <advance width="307"/>
  <unicode hex="0058"/>
  <outline>
    <contour>
      <point x="-2" y="-1" type="curve"/>
      <point x="36" y="0" type="line"/>
      <point x="50" y="42"/>
      <point x="109" y="207"/>
      <point x="165" y="356" type="curve" smooth="yes"/>
      <point x="216" y="489"/>
      <point x="280" y="641"/>
      <point x="302" y="693" type="curve"/>
      <point x="263" y="694" type="line"/>
      <point x="249" y="651"/>
      <point x="192" y="495"/>
      <point x="139" y="354" type="curve" smooth="yes"/>
      <point x="87" y="215"/>
      <point x="20" y="55"/>
    </contour>
    <contour>
      <point x="269" y="-5" type="curve"/>
      <point x="309" y="-5" type="line"/>
      <point x="287" y="52"/>
      <point x="221" y="224"/>
      <point x="172" y="364" type="curve" smooth="yes"/>
      <point x="124" y="503"/>
      <point x="74" y="642"/>
      <point x="59" y="688" type="curve"/>
      <point x="18" y="689" type="line"/>
      <point x="39" y="636"/>
      <point x="99" y="484"/>
      <point x="148" y="351" type="curve" smooth="yes"/>
      <point x="201" y="205"/>
      <point x="256" y="40"/>
    </contour>
  </outline>
</glyph>
<glyph name="Y" format="2">
  <advance width="277"/>
  <unicode hex="0059"/>
  <anchor x="136" y="0" name="bottom"/>
  <anchor x="138" y="693" name="top"/>
  <outline>
    <contour>
      <point x="118" y="0" type="curve"/>
      <point x="154" y="1" type="line"/>
      <point x="153" y="43"/>
      <point x="151" y="143"/>
      <point x="148" y="222" type="curve"/>
      <point x="118" y="226" type="line"/>
      <point x="119" y="122"/>
      <point x="119" y="43"/>
    </contour>
    <contour>
      <point x="4" y="704" type="line"/>
      <point x="14" y="661"/>
      <point x="42" y="541"/>
      <point x="64" y="438" type="curve" smooth="yes"/>
      <point x="88" y="328"/>
      <point x="114" y="213"/>
      <point x="122" y="171" type="curve"/>
      <point x="147" y="174" type="line"/>
      <point x="162" y="243"/>
      <point x="179" y="308"/>
      <point x="210" y="438" type="curve" smooth="yes"/>
      <point x="234" y="538"/>
      <point x="263" y="654"/>
      <point x="274" y="697" type="curve"/>
      <point x="234" y="697" type="line"/>
      <point x="227" y="656"/>
      <point x="200" y="534"/>
      <point x="180" y="444" type="curve" smooth="yes"/>
      <point x="155" y="330"/>
      <point x="145" y="294"/>
      <point x="134" y="245" type="curve"/>
      <point x="125" y="291"/>
      <point x="117" y="329"/>
      <point x="94" y="448" type="curve" smooth="yes"/>
      <point x="73" y="554"/>
      <point x="52" y="667"/>
      <point x="46" y="704" type="curve"/>
    </contour>
  </outline>
</glyph>
<glyph name="Z" format="2">
  <advance width="273"/>
  <unicode hex="005A"/>
  <anchor x="132" y="693" name="top"/>
  <outline>
    <contour>
      <point x="30" y="693" type="curve"/>
      <point x="28" y="664" type="line"/>
      <point x="53" y="665"/>
      <point x="88" y="666"/>
      <point x="125" y="666" type="curve" smooth="yes"/>
      <point x="154" y="666"/>
      <point x="180" y="665"/>
      <point x="215" y="664" type="curve"/>
      <point x="185" y="563"/>
      <point x="150" y="448"/>
      <point x="114" y="336" type="curve" smooth="yes"/>
      <point x="80" y="228"/>
      <point x="45" y="121"/>
      <point x="15" y="29" type="curve"/>
      <point x="16" y="1" type="line"/>
      <point x="45" y="2"/>
      <point x="95" y="3"/>
      <point x="136" y="3" type="curve" smooth="yes"/>
      <point x="177" y="3"/>
      <point x="225" y="1"/>
      <point x="253" y="0" type="curve"/>
      <point x="256" y="32" type="line"/>
      <point x="229" y="31"/>
      <point x="190" y="30"/>
      <point x="152" y="29" type="curve" smooth="yes"/>
      <point x="122" y="28"/>
      <point x="86" y="29"/>
      <point x="47" y="29" type="curve"/>
      <point x="78" y="126"/>
      <point x="108" y="223"/>
      <point x="140" y="321" type="curve" smooth="yes"/>
      <point x="175" y="431"/>
      <point x="211" y="545"/>
      <point x="250" y="664" type="curve"/>
      <point x="250" y="695" type="line"/>
      <point x="224" y="694"/>
      <point x="184" y="693"/>
      <point x="143" y="692" type="curve" smooth="yes"/>
      <point x="102" y="691"/>
      <point x="57" y="692"/>
    </contour>
  </outline>
</glyph>
<glyph name="bracketleft" format="2">
  <advance width="317"/>
  <unicode hex="005B"/>
  <outline>
    <contour>
      <point x="88" y="-136" type="curve"/>
      <point x="121" y="-131" type="line"/>
      <point x="121" y="-70"/>
      <point x="121" y="196"/>
      <point x="121" y="315" type="curve" smooth="yes"/>
      <point x="121" y="434"/>
      <point x="121" y="635"/>
      <point x="121" y="681" type="curve"/>
      <point x="89" y="691" type="line"/>
      <point x="90" y="637"/>
      <point x="93" y="465"/>
      <point x="93" y="304" type="curve" smooth="yes"/>
      <point x="93" y="136"/>
      <point x="90" y="-78"/>
    </contour>
    <contour>
      <point x="88" y="-136" type="line"/>
      <point x="134" y="-134"/>
      <point x="206" y="-132"/>
      <point x="236" y="-131" type="curve"/>
      <point x="237" y="-105" type="line"/>
      <point x="208" y="-104"/>
      <point x="143" y="-103"/>
      <point x="102" y="-102" type="curve"/>
    </contour>
    <contour>
      <point x="111" y="661" type="line"/>
      <point x="149" y="662"/>
      <point x="209" y="663"/>
      <point x="237" y="663" type="curve"/>
      <point x="234" y="693" type="line"/>
      <point x="206" y="692"/>
      <point x="132" y="691"/>
      <point x="89" y="691" type="curve"/>
    </contour>
  </outline>
</glyph>
<glyph name="bracketright" format="2">
  <advance width="317"/>
  <unicode hex="005D"/>
  <outline>
    <contour>
      <point x="227" y="-134" type="line"/>
      <point x="226" y="-5"/>
      <point x="224" y="124"/>
      <point x="223" y="253" type="curve"/>
      <point x="225" y="400"/>
      <point x="226" y="546"/>
      <point x="228" y="693" type="curve"/>
      <point x="195" y="688" type="line"/>
      <point x="195" y="539"/>
      <point x="195" y="391"/>
      <point x="195" y="242" type="curve"/>
      <point x="195" y="120"/>
      <point x="195" y="-2"/>
      <point x="195" y="-124" type="curve"/>
    </contour>
    <contour>
      <point x="82" y="-136" type="line"/>
      <point x="130" y="-135"/>
      <point x="179" y="-135"/>
      <point x="227" y="-134" type="curve"/>
      <point x="205" y="-104" type="line"/>
      <point x="163" y="-105"/>
      <point x="121" y="-105"/>
      <point x="79" y="-106" type="curve"/>
    </contour>
    <contour>
      <point x="79" y="662" type="line"/>
      <point x="108" y="661"/>
      <point x="173" y="660"/>
      <point x="214" y="659" type="curve"/>
      <point x="228" y="693" type="line"/>
      <point x="182" y="691"/>
      <point x="110" y="689"/>
      <point x="80" y="688" type="curve"/>
    </contour>
  </outline>
</glyph>
<glyph name="underscore" format="2">
  <advance width="318"/>
  <unicode hex="005F"/>
  <outline>
    <contour>
      <point x="28" y="-93" type="line"/>
      <point x="28" y="-93"/>
      <point x="108" y="-90"/>
      <point x="160" y="-89" type="curve" smooth="yes"/>
      <point x="215" y="-88"/>
      <point x="284" y="-90"/>
      <point x="284" y="-90" type="curve"/>
      <point x="291" y="-64" type="line"/>
      <point x="291" y="-64"/>
      <point x="213" y="-67"/>
      <point x="155" y="-68" type="curve" smooth="yes"/>
      <point x="98" y="-69"/>
      <point x="27" y="-66"/>
      <point x="27" y="-66" type="curve"/>
    </contour>
  </outline>
</glyph>
<glyph name="a" format="2">
  <advance width="275"/>
  <unicode hex="0061"/>
  <anchor x="137" y="0" name="bottom"/>
  <anchor x="233" y="5" name="ogonek"/>
  <anchor x="137" y="555" name="top"/>
  <outline>
    <contour>
      <point x="202" y="0" type="line"/>
      <point x="234" y="-1" type="line"/>
      <point x="231" y="238" type="line"/>
      <point x="234" y="423" type="line" smooth="yes"/>
      <point x="235" y="488"/>
      <point x="225" y="565"/>
      <point x="141" y="565" type="curve" smooth="yes"/>
      <point x="75" y="565"/>
      <point x="42" y="513"/>
      <point x="42" y="443" type="curve" smooth="yes"/>
      <point x="42" y="406"/>
      <point x="45" y="390"/>
      <point x="49" y="368" type="curve"/>
      <point x="77" y="371" type="line"/>
      <point x="74" y="388"/>
      <point x="71" y="411"/>
      <point x="71" y="439" type="curve" smooth="yes"/>
      <point x="71" y="501"/>
      <point x="90" y="538"/>
      <point x="136" y="538" type="curve" smooth="yes"/>
      <point x="195" y="538"/>
      <point x="205" y="501"/>
      <point x="204" y="407" type="curve" smooth="yes"/>
      <point x="202" y="149" type="line"/>
    </contour>
    <contour>
      <point x="107" y="-10" type="curve" smooth="yes"/>
      <point x="198" y="-10"/>
      <point x="226" y="144"/>
      <point x="226" y="277" type="curve"/>
      <point x="203" y="239" type="line"/>
      <point x="203" y="118"/>
      <point x="168" y="22"/>
      <point x="113" y="22" type="curve" smooth="yes"/>
      <point x="71" y="22"/>
      <point x="64" y="57"/>
      <point x="64" y="107" type="curve" smooth="yes"/>
      <point x="64" y="173"/>
      <point x="90" y="206"/>
      <point x="131" y="248" type="curve" smooth="yes"/>
      <point x="175" y="293"/>
      <point x="215" y="313"/>
      <point x="215" y="396" type="curve"/>
      <point x="204" y="407" type="line"/>
      <point x="204" y="346"/>
      <point x="151" y="309"/>
      <point x="111" y="268" type="curve" smooth="yes"/>
      <point x="70" y="225"/>
      <point x="31" y="177"/>
      <point x="31" y="102" type="curve" smooth="yes"/>
      <point x="31" y="17"/>
      <point x="66" y="-10"/>
    </contour>
  </outline>
</glyph>
<glyph name="b" format="2">
  <advance width="312"/>
  <unicode hex="0062"/>
  <outline>
    <contour>
      <point x="160" y="-8" type="curve"/>
      <point x="219" y="-8"/>
      <point x="258" y="44"/>
      <point x="263" y="121" type="curve"/>
      <point x="269" y="226"/>
      <point x="269" y="320"/>
      <point x="269" y="414" type="curve"/>
      <point x="269" y="486"/>
      <point x="246" y="554"/>
      <point x="183" y="554" type="curve"/>
      <point x="93" y="554"/>
      <point x="52" y="464"/>
      <point x="52" y="270" type="curve"/>
      <point x="79" y="313" type="line"/>
      <point x="79" y="469"/>
      <point x="121" y="525"/>
      <point x="177" y="525" type="curve"/>
      <point x="224" y="525"/>
      <point x="240" y="474"/>
      <point x="240" y="390" type="curve"/>
      <point x="240" y="345"/>
      <point x="240" y="198"/>
      <point x="236" y="128" type="curve"/>
      <point x="232" y="77"/>
      <point x="210" y="21"/>
      <point x="162" y="21" type="curve"/>
      <point x="98" y="21"/>
      <point x="79" y="102"/>
      <point x="79" y="235" type="curve"/>
      <point x="52" y="276" type="line"/>
      <point x="52" y="47"/>
      <point x="89" y="-8"/>
    </contour>
    <contour>
      <point x="80" y="-1" type="line"/>
      <point x="78" y="93" type="line"/>
      <point x="78" y="173"/>
      <point x="79" y="275"/>
      <point x="79" y="343" type="curve"/>
      <point x="79" y="489"/>
      <point x="80" y="690"/>
      <point x="80" y="690" type="curve"/>
      <point x="49" y="687" type="line"/>
      <point x="49" y="687"/>
      <point x="51" y="488"/>
      <point x="51" y="345" type="curve"/>
      <point x="51" y="201"/>
      <point x="51" y="0"/>
      <point x="51" y="0" type="curve"/>
    </contour>
  </outline>
</glyph>
<glyph name="e" format="2">
  <advance width="293"/>
  <unicode hex="0065"/>
  <anchor x="154" y="0" name="bottom"/>
  <anchor x="192" y="-1" name="ogonek"/>
  <anchor x="159" y="555" name="top"/>
  <outline>
    <contour>
      <point x="154" y="-10" type="curve"/>
      <point x="250" y="-10"/>
      <point x="265" y="62"/>
      <point x="265" y="115" type="curve"/>
      <point x="265" y="141"/>
      <point x="263" y="172"/>
      <point x="261" y="187" type="curve"/>
      <point x="229" y="187" type="line"/>
      <point x="232" y="173"/>
      <point x="236" y="146"/>
      <point x="236" y="113" type="curve"/>
      <point x="236" y="50"/>
      <point x="213" y="18"/>
      <point x="159" y="18" type="curve"/>
      <point x="108" y="18"/>
      <point x="85" y="51"/>
      <point x="78" y="123" type="curve"/>
      <point x="73" y="164"/>
      <point x="72" y="235"/>
      <point x="72" y="290" type="curve"/>
      <point x="73" y="341"/>
      <point x="72" y="373"/>
      <point x="76" y="412" type="curve"/>
      <point x="86" y="511"/>
      <point x="119" y="540"/>
      <point x="164" y="540" type="curve"/>
      <point x="206" y="540"/>
      <point x="231" y="512"/>
      <point x="231" y="395" type="curve" smooth="yes"/>
      <point x="231" y="369"/>
      <point x="230" y="338"/>
      <point x="227" y="303" type="curve"/>
      <point x="253" y="276" type="line"/>
      <point x="257" y="318"/>
      <point x="259" y="367"/>
      <point x="259" y="428" type="curve"/>
      <point x="259" y="542"/>
      <point x="211" y="566"/>
      <point x="169" y="566" type="curve"/>
      <point x="104" y="566"/>
      <point x="58" y="530"/>
      <point x="48" y="421" type="curve"/>
      <point x="44" y="372"/>
      <point x="43" y="339"/>
      <point x="43" y="291" type="curve"/>
      <point x="43" y="226"/>
      <point x="45" y="154"/>
      <point x="53" y="98" type="curve"/>
      <point x="62" y="25"/>
      <point x="97" y="-10"/>
    </contour>
    <contour>
      <point x="59" y="272" type="line"/>
      <point x="142" y="277"/>
      <point x="253" y="276"/>
      <point x="253" y="276" type="curve"/>
      <point x="255" y="304" type="line"/>
      <point x="59" y="302" type="line"/>
    </contour>
  </outline>
</glyph>
<glyph name="f" format="2">
  <advance width="210"/>
  <unicode hex="0066"/>
  <outline>
    <contour>
      <point x="13" y="522" type="line"/>
      <point x="13" y="522"/>
      <point x="80" y="525"/>
      <point x="130" y="525" type="curve"/>
      <point x="180" y="526"/>
      <point x="227" y="526"/>
      <point x="227" y="526" type="curve"/>
      <point x="229" y="553" type="line"/>
      <point x="229" y="553"/>
      <point x="181" y="551"/>
      <point x="132" y="551" type="curve"/>
      <point x="83" y="551"/>
      <point x="17" y="553"/>
      <point x="17" y="553" type="curve"/>
    </contour>
    <contour>
      <point x="179" y="699" type="curve" smooth="yes"/>
      <point x="94" y="699"/>
      <point x="75" y="622"/>
      <point x="75" y="557" type="curve" smooth="yes"/>
      <point x="75" y="462"/>
      <point x="74" y="401"/>
      <point x="74" y="270" type="curve" smooth="yes"/>
      <point x="74" y="124"/>
      <point x="70" y="-3"/>
      <point x="70" y="-3" type="curve"/>
      <point x="103" y="0" type="line"/>
      <point x="103" y="0"/>
      <point x="102" y="128"/>
      <point x="102" y="271" type="curve" smooth="yes"/>
      <point x="102" y="397"/>
      <point x="104" y="477"/>
      <point x="105" y="546" type="curve" smooth="yes"/>
      <point x="106" y="640"/>
      <point x="129" y="675"/>
      <point x="180" y="675" type="curve" smooth="yes"/>
      <point x="221" y="675"/>
      <point x="244" y="650"/>
      <point x="242" y="603" type="curve"/>
      <point x="269" y="601" type="line"/>
      <point x="273" y="659"/>
      <point x="244" y="699"/>
    </contour>
  </outline>
</glyph>
<glyph name="g" format="2">
  <advance width="308"/>
  <unicode hex="0067"/>
  <anchor x="169" y="555" name="top"/>
  <outline>
    <contour>
      <point x="141" y="-157" type="curve"/>
      <point x="229" y="-157"/>
      <point x="255" y="-104"/>
      <point x="255" y="-15" type="curve"/>
      <point x="255" y="48"/>
      <point x="256" y="171"/>
      <point x="256" y="277" type="curve"/>
      <point x="256" y="384"/>
      <point x="263" y="498"/>
      <point x="269" y="555" type="curve"/>
      <point x="232" y="555" type="line"/>
      <point x="230" y="508"/>
      <point x="227" y="410"/>
      <point x="227" y="276" type="curve"/>
      <point x="227" y="172"/>
      <point x="226" y="50"/>
      <point x="226" y="-12" type="curve"/>
      <point x="226" y="-97"/>
      <point x="205" y="-130"/>
      <point x="146" y="-130" type="curve"/>
      <point x="105" y="-130"/>
      <point x="80" y="-115"/>
      <point x="80" y="-70" type="curve" smooth="yes"/>
      <point x="80" y="-64"/>
      <point x="80" y="-58"/>
      <point x="81" y="-52" type="curve"/>
      <point x="51" y="-58" type="line"/>
      <point x="50" y="-64"/>
      <point x="50" y="-70"/>
      <point x="50" y="-76" type="curve"/>
      <point x="50" y="-115"/>
      <point x="72" y="-157"/>
    </contour>
    <contour>
      <point x="134" y="-9" type="curve"/>
      <point x="239" y="-9"/>
      <point x="254" y="166"/>
      <point x="254" y="275" type="curve"/>
      <point x="227" y="232" type="line"/>
      <point x="227" y="82"/>
      <point x="179" y="22"/>
      <point x="141" y="22" type="curve"/>
      <point x="109" y="22"/>
      <point x="91" y="32"/>
      <point x="80" y="110" type="curve"/>
      <point x="77" y="136"/>
      <point x="73" y="214"/>
      <point x="73" y="282" type="curve"/>
      <point x="73" y="334"/>
      <point x="75" y="385"/>
      <point x="78" y="419" type="curve"/>
      <point x="85" y="495"/>
      <point x="103" y="537"/>
      <point x="147" y="537" type="curve"/>
      <point x="192" y="537"/>
      <point x="227" y="462"/>
      <point x="227" y="311" type="curve"/>
      <point x="254" y="269" type="line"/>
      <point x="254" y="491"/>
      <point x="216" y="563"/>
      <point x="143" y="563" type="curve"/>
      <point x="83" y="563"/>
      <point x="63" y="517"/>
      <point x="50" y="437" type="curve" smooth="yes"/>
      <point x="44" y="400"/>
      <point x="43" y="329"/>
      <point x="43" y="281" type="curve"/>
      <point x="44" y="216"/>
      <point x="48" y="136"/>
      <point x="56" y="85" type="curve"/>
      <point x="66" y="23"/>
      <point x="87" y="-9"/>
    </contour>
  </outline>
</glyph>
<glyph name="h" format="2">
  <advance width="309"/>
  <unicode hex="0068"/>
  <anchor x="152" y="0" name="bottom"/>
  <anchor x="106" y="618" name="center"/>
  <anchor x="67" y="669" name="top"/>
  <outline>
    <contour>
      <point x="50" y="0" type="curve"/>
      <point x="81" y="0" type="line"/>
      <point x="81" y="0"/>
      <point x="81" y="176"/>
      <point x="81" y="319" type="curve"/>
      <point x="81" y="463"/>
      <point x="83" y="694"/>
      <point x="83" y="694" type="curve"/>
      <point x="50" y="694" type="line"/>
      <point x="50" y="694"/>
      <point x="53" y="431"/>
      <point x="53" y="285" type="curve"/>
      <point x="53" y="140"/>
      <point x="50" y="0"/>
    </contour>
    <contour>
      <point x="261" y="-1" type="line"/>
      <point x="261" y="50"/>
      <point x="259" y="111"/>
      <point x="259" y="244" type="curve" smooth="yes"/>
      <point x="259" y="337"/>
      <point x="259" y="393"/>
      <point x="259" y="441" type="curve" smooth="yes"/>
      <point x="259" y="526"/>
      <point x="234" y="560"/>
      <point x="183" y="560" type="curve" smooth="yes"/>
      <point x="106" y="560"/>
      <point x="62" y="449"/>
      <point x="62" y="295" type="curve"/>
      <point x="81" y="319" type="line"/>
      <point x="81" y="430"/>
      <point x="126" y="535"/>
      <point x="180" y="535" type="curve" smooth="yes"/>
      <point x="211" y="535"/>
      <point x="231" y="510"/>
      <point x="231" y="438" type="curve" smooth="yes"/>
      <point x="231" y="393"/>
      <point x="231" y="315"/>
      <point x="231" y="243" type="curve" smooth="yes"/>
      <point x="231" y="113"/>
      <point x="229" y="46"/>
      <point x="227" y="0" type="curve"/>
    </contour>
  </outline>
</glyph>
<glyph name="i" format="2">
  <advance width="172"/>
  <unicode hex="0069"/>
  <anchor x="85" y="0" name="bottom"/>
  <anchor x="102" y="8" name="ogonek"/>
  <outline>
    <contour>
      <point x="103" y="0" type="line"/>
      <point x="102" y="61"/>
      <point x="101" y="181"/>
      <point x="101" y="285" type="curve"/>
      <point x="101" y="390"/>
      <point x="103" y="501"/>
      <point x="105" y="556" type="curve"/>
      <point x="72" y="556" type="line"/>
      <point x="72" y="503"/>
      <point x="73" y="393"/>
      <point x="73" y="286" type="curve"/>
      <point x="73" y="180"/>
      <point x="71" y="62"/>
      <point x="69" y="2" type="curve"/>
    </contour>
    <contour>
      <point x="106" y="635" type="line"/>
      <point x="106" y="705" type="line"/>
      <point x="68" y="703" type="line"/>
      <point x="71" y="633" type="line"/>
    </contour>
  </outline>
</glyph>
<glyph name="j" format="2">
  <advance width="157"/>
  <unicode hex="006A"/>
  <outline>
    <contour>
      <point x="-2" y="-156" type="line"/>
      <point x="68" y="-155"/>
      <point x="93" y="-104"/>
      <point x="93" y="-42" type="curve" smooth="yes"/>
      <point x="93" y="-7"/>
      <point x="94" y="142"/>
      <point x="94" y="285" type="curve"/>
      <point x="94" y="429"/>
      <point x="98" y="556"/>
      <point x="98" y="556" type="curve"/>
      <point x="65" y="556" type="line"/>
      <point x="65" y="556"/>
      <point x="66" y="432"/>
      <point x="66" y="286" type="curve"/>
      <point x="66" y="142"/>
      <point x="62" y="-1"/>
      <point x="62" y="-42" type="curve" smooth="yes"/>
      <point x="62" y="-94"/>
      <point x="47" y="-130"/>
      <point x="-2" y="-130" type="curve"/>
    </contour>
    <contour>
      <point x="64" y="633" type="line"/>
      <point x="99" y="636" type="line"/>
      <point x="99" y="705" type="line"/>
      <point x="61" y="703" type="line"/>
    </contour>
  </outline>
</glyph>
<glyph name="k" format="2">
  <advance width="287"/>
  <unicode hex="006B"/>
  <anchor x="157" y="0" name="bottom"/>
  <outline>
    <contour>
      <point x="251" y="0" type="curve"/>
      <point x="289" y="3" type="line"/>
      <point x="225" y="103"/>
      <point x="163" y="199"/>
      <point x="113" y="290" type="curve"/>
      <point x="163" y="386"/>
      <point x="218" y="478"/>
      <point x="265" y="559" type="curve"/>
      <point x="230" y="561" type="line"/>
      <point x="196" y="485"/>
      <point x="147" y="403"/>
      <point x="81" y="289" type="curve"/>
      <point x="139" y="197"/>
      <point x="207" y="88"/>
    </contour>
    <contour>
      <point x="57" y="0" type="curve"/>
      <point x="88" y="0" type="line"/>
      <point x="88" y="0"/>
      <point x="88" y="141"/>
      <point x="88" y="284" type="curve"/>
      <point x="88" y="428"/>
      <point x="90" y="694"/>
      <point x="90" y="694" type="curve"/>
      <point x="57" y="694" type="line"/>
      <point x="57" y="694"/>
      <point x="60" y="431"/>
      <point x="60" y="285" type="curve"/>
      <point x="60" y="140"/>
      <point x="57" y="0"/>
    </contour>
  </outline>
</glyph>
<glyph name="m" format="2">
  <advance width="475"/>
  <unicode hex="006D"/>
  <outline>
    <contour>
      <point x="222" y="-1" type="curve"/>
      <point x="258" y="0" type="line"/>
      <point x="256" y="70"/>
      <point x="254" y="201"/>
      <point x="254" y="307" type="curve"/>
      <point x="254" y="494"/>
      <point x="255" y="552"/>
      <point x="177" y="552" type="curve"/>
      <point x="109" y="552"/>
      <point x="67" y="445"/>
      <point x="67" y="272" type="curve"/>
      <point x="89" y="307" type="line"/>
      <point x="89" y="428"/>
      <point x="122" y="527"/>
      <point x="174" y="527" type="curve"/>
      <point x="201" y="527"/>
      <point x="225" y="519"/>
      <point x="225" y="430" type="curve"/>
      <point x="225" y="386"/>
      <point x="225" y="359"/>
      <point x="225" y="287" type="curve"/>
      <point x="225" y="182"/>
      <point x="223" y="61"/>
    </contour>
    <contour>
      <point x="56" y="-9" type="curve"/>
      <point x="92" y="-7" type="line"/>
      <point x="91" y="51"/>
      <point x="89" y="168"/>
      <point x="89" y="272" type="curve"/>
      <point x="89" y="377"/>
      <point x="91" y="494"/>
      <point x="92" y="552" type="curve"/>
      <point x="56" y="549" type="line"/>
      <point x="57" y="493"/>
      <point x="59" y="380"/>
      <point x="59" y="274" type="curve"/>
      <point x="59" y="167"/>
      <point x="57" y="50"/>
    </contour>
    <contour>
      <point x="420" y="2" type="line"/>
      <point x="421" y="56"/>
      <point x="424" y="161"/>
      <point x="425" y="249" type="curve" smooth="yes"/>
      <point x="426" y="330"/>
      <point x="427" y="409"/>
      <point x="427" y="447" type="curve" smooth="yes"/>
      <point x="427" y="532"/>
      <point x="394" y="559"/>
      <point x="358" y="559" type="curve"/>
      <point x="267" y="559"/>
      <point x="239" y="474"/>
      <point x="239" y="290" type="curve"/>
      <point x="254" y="307" type="line"/>
      <point x="254" y="481"/>
      <point x="304" y="534"/>
      <point x="343" y="534" type="curve"/>
      <point x="378" y="534"/>
      <point x="399" y="521"/>
      <point x="399" y="433" type="curve" smooth="yes"/>
      <point x="399" y="380"/>
      <point x="398" y="313"/>
      <point x="396" y="244" type="curve" smooth="yes"/>
      <point x="393" y="152"/>
      <point x="389" y="72"/>
      <point x="386" y="8" type="curve"/>
    </contour>
  </outline>
</glyph>
<glyph name="n" format="2">
  <advance width="315"/>
  <unicode hex="006E"/>
  <anchor x="159" y="0" name="bottom"/>
  <anchor x="166" y="555" name="top"/>
  <anchor x="101" y="555" name="topright"/>
  <outline>
    <contour>
      <point x="267" y="-1" type="line"/>
      <point x="267" y="50"/>
      <point x="265" y="111"/>
      <point x="265" y="244" type="curve" smooth="yes"/>
      <point x="265" y="337"/>
      <point x="265" y="393"/>
      <point x="265" y="441" type="curve" smooth="yes"/>
      <point x="265" y="526"/>
      <point x="240" y="560"/>
      <point x="189" y="560" type="curve" smooth="yes"/>
      <point x="112" y="560"/>
      <point x="68" y="449"/>
      <point x="68" y="295" type="curve"/>
      <point x="87" y="319" type="line"/>
      <point x="87" y="430"/>
      <point x="132" y="535"/>
      <point x="186" y="535" type="curve" smooth="yes"/>
      <point x="217" y="535"/>
      <point x="237" y="510"/>
      <point x="237" y="438" type="curve" smooth="yes"/>
      <point x="237" y="393"/>
      <point x="237" y="315"/>
      <point x="237" y="243" type="curve" smooth="yes"/>
      <point x="238" y="113"/>
      <point x="235" y="46"/>
      <point x="233" y="0" type="curve"/>
    </contour>
    <contour>
      <point x="56" y="0" type="curve"/>
      <point x="87" y="0" type="line"/>
      <point x="86" y="50"/>
      <point x="87" y="186"/>
      <point x="87" y="319" type="curve"/>
      <point x="86" y="448"/>
      <point x="88" y="523"/>
      <point x="90" y="559" type="curve"/>
      <point x="56" y="556" type="line"/>
      <point x="57" y="524"/>
      <point x="58" y="421"/>
      <point x="59" y="285" type="curve" smooth="yes"/>
      <point x="59" y="152"/>
      <point x="57" y="51"/>
    </contour>
  </outline>
</glyph>
<glyph name="p" format="2">
  <advance width="315"/>
  <unicode hex="0070"/>
  <outline>
    <contour>
      <point x="52" y="-149" type="curve"/>
      <point x="85" y="-147" type="line"/>
      <point x="83" y="48" type="line"/>
      <point x="101" y="6"/>
      <point x="128" y="-8"/>
      <point x="163" y="-8" type="curve" smooth="yes"/>
      <point x="213" y="-8"/>
      <point x="242" y="21"/>
      <point x="254" y="68" type="curve" smooth="yes"/>
      <point x="268" y="121"/>
      <point x="271" y="196"/>
      <point x="271" y="275" type="curve" smooth="yes"/>
      <point x="273" y="356"/>
      <point x="269" y="430"/>
      <point x="259" y="481" type="curve" smooth="yes"/>
      <point x="250" y="526"/>
      <point x="222" y="554"/>
      <point x="181" y="554" type="curve" smooth="yes"/>
      <point x="133" y="554"/>
      <point x="104" y="528"/>
      <point x="83" y="475" type="curve"/>
      <point x="83" y="559" type="line"/>
      <point x="52" y="555" type="line"/>
      <point x="53" y="512"/>
      <point x="54" y="343"/>
      <point x="54" y="208" type="curve" smooth="yes"/>
      <point x="54" y="64"/>
      <point x="52" y="-149"/>
    </contour>
    <contour>
      <point x="82" y="230" type="curve" smooth="yes"/>
      <point x="82" y="330" type="line" smooth="yes"/>
      <point x="85" y="473"/>
      <point x="121" y="525"/>
      <point x="175" y="525" type="curve" smooth="yes"/>
      <point x="207" y="525"/>
      <point x="227" y="503"/>
      <point x="232" y="466" type="curve" smooth="yes"/>
      <point x="238" y="421"/>
      <point x="243" y="353"/>
      <point x="243" y="273" type="curve" smooth="yes"/>
      <point x="241" y="194"/>
      <point x="239" y="122"/>
      <point x="228" y="75" type="curve" smooth="yes"/>
      <point x="220" y="41"/>
      <point x="199" y="21"/>
      <point x="165" y="21" type="curve" smooth="yes"/>
      <point x="102" y="21"/>
      <point x="82" y="100"/>
    </contour>
  </outline>
</glyph>
<glyph name="q" format="2">
  <advance width="311"/>
  <unicode hex="0071"/>
  <outline>
    <contour>
      <point x="43" y="271" type="curve" smooth="yes"/>
      <point x="43" y="223"/>
      <point x="46" y="176"/>
      <point x="51" y="132" type="curve" smooth="yes"/>
      <point x="59" y="60"/>
      <point x="76" y="-8"/>
      <point x="139" y="-8" type="curve" smooth="yes"/>
      <point x="182" y="-8"/>
      <point x="213" y="13"/>
      <point x="233" y="55" type="curve"/>
      <point x="232" y="-146" type="line"/>
      <point x="264" y="-147" type="line"/>
      <point x="262" y="-44"/>
      <point x="261" y="76"/>
      <point x="261" y="218" type="curve" smooth="yes"/>
      <point x="261" y="361"/>
      <point x="263" y="567"/>
      <point x="263" y="567" type="curve"/>
      <point x="232" y="565" type="line"/>
      <point x="232" y="483" type="line"/>
      <point x="213" y="544"/>
      <point x="183" y="565"/>
      <point x="145" y="565" type="curve" smooth="yes"/>
      <point x="89" y="565"/>
      <point x="58" y="513"/>
      <point x="50" y="436" type="curve" smooth="yes"/>
      <point x="45" y="385"/>
      <point x="42" y="325"/>
    </contour>
    <contour>
      <point x="72" y="276" type="curve" smooth="yes"/>
      <point x="71" y="332"/>
      <point x="73" y="392"/>
      <point x="77" y="429" type="curve" smooth="yes"/>
      <point x="83" y="480"/>
      <point x="96" y="536"/>
      <point x="144" y="536" type="curve" smooth="yes"/>
      <point x="187" y="536"/>
      <point x="210" y="495"/>
      <point x="223" y="429" type="curve" smooth="yes"/>
      <point x="232" y="379"/>
      <point x="233" y="339"/>
      <point x="233" y="281" type="curve" smooth="yes"/>
      <point x="233" y="225"/>
      <point x="233" y="183"/>
      <point x="226" y="127" type="curve" smooth="yes"/>
      <point x="216" y="53"/>
      <point x="195" y="21"/>
      <point x="144" y="21" type="curve" smooth="yes"/>
      <point x="97" y="21"/>
      <point x="86" y="72"/>
      <point x="78" y="156" type="curve" smooth="yes"/>
      <point x="76" y="177"/>
      <point x="73" y="225"/>
    </contour>
  </outline>
</glyph>
<glyph name="r" format="2">
  <advance width="267"/>
  <unicode hex="0072"/>
  <anchor x="73" y="0" name="bottom"/>
  <anchor x="149" y="555" name="top"/>
  <outline>
    <contour>
      <point x="217" y="270" type="curve"/>
      <point x="245" y="271" type="line"/>
      <point x="254" y="345"/>
      <point x="258" y="405"/>
      <point x="258" y="451" type="curve"/>
      <point x="258" y="536"/>
      <point x="227" y="570"/>
      <point x="185" y="570" type="curve"/>
      <point x="84" y="570"/>
      <point x="66" y="371"/>
      <point x="66" y="288" type="curve"/>
      <point x="87" y="325" type="line"/>
      <point x="87" y="446"/>
      <point x="136" y="545"/>
      <point x="181" y="545" type="curve"/>
      <point x="213" y="545"/>
      <point x="229" y="519"/>
      <point x="229" y="448" type="curve"/>
      <point x="229" y="389"/>
      <point x="225" y="329"/>
    </contour>
    <contour>
      <point x="56" y="-3" type="curve"/>
      <point x="88" y="0" type="line"/>
      <point x="88" y="0"/>
      <point x="87" y="140"/>
      <point x="87" y="283" type="curve"/>
      <point x="87" y="419"/>
      <point x="90" y="531"/>
      <point x="91" y="560" type="curve"/>
      <point x="57" y="557" type="line"/>
      <point x="57" y="557"/>
      <point x="59" y="430"/>
      <point x="59" y="284" type="curve"/>
      <point x="59" y="139"/>
      <point x="56" y="-3"/>
    </contour>
  </outline>
</glyph>
<glyph name="s" format="2">
  <advance width="265"/>
  <unicode hex="0073"/>
  <anchor x="122" y="0" name="bottom"/>
  <anchor x="135" y="555" name="top"/>
  <outline>
    <contour>
      <point x="138" y="-10" type="curve"/>
      <point x="200" y="-10"/>
      <point x="243" y="30"/>
      <point x="243" y="113" type="curve"/>
      <point x="243" y="195"/>
      <point x="168" y="245"/>
      <point x="137" y="277" type="curve"/>
      <point x="106" y="308"/>
      <point x="56" y="354"/>
      <point x="56" y="417" type="curve"/>
      <point x="56" y="518"/>
      <point x="96" y="544"/>
      <point x="142" y="544" type="curve"/>
      <point x="188" y="544"/>
      <point x="214" y="505"/>
      <point x="214" y="429" type="curve"/>
      <point x="214" y="396"/>
      <point x="214" y="368"/>
      <point x="208" y="320" type="curve"/>
      <point x="238" y="320" type="line"/>
      <point x="242" y="361"/>
      <point x="243" y="378"/>
      <point x="243" y="437" type="curve"/>
      <point x="243" y="547"/>
      <point x="184" y="572"/>
      <point x="136" y="572" type="curve"/>
      <point x="81" y="572"/>
      <point x="27" y="526"/>
      <point x="27" y="424" type="curve"/>
      <point x="27" y="355"/>
      <point x="62" y="308"/>
      <point x="115" y="260" type="curve"/>
      <point x="171" y="209"/>
      <point x="215" y="166"/>
      <point x="215" y="107" type="curve"/>
      <point x="215" y="53"/>
      <point x="181" y="15"/>
      <point x="133" y="15" type="curve"/>
      <point x="94" y="15"/>
      <point x="60" y="38"/>
      <point x="56" y="104" type="curve"/>
      <point x="54" y="135"/>
      <point x="57" y="159"/>
      <point x="59" y="177" type="curve"/>
      <point x="30" y="177" type="line"/>
      <point x="29" y="161"/>
      <point x="27" y="133"/>
      <point x="27" y="111" type="curve"/>
      <point x="27" y="60"/>
      <point x="42" y="-10"/>
    </contour>
  </outline>
</glyph>
<glyph name="t" format="2">
  <advance width="275"/>
  <unicode hex="0074"/>
  <anchor x="136" y="0" name="bottom"/>
  <anchor x="114" y="401" name="center"/>
  <anchor x="126" y="555" name="topright"/>
  <outline>
    <contour>
      <point x="146" y="-11" type="curve"/>
      <point x="230" y="-11"/>
      <point x="252" y="55"/>
      <point x="252" y="127" type="curve"/>
      <point x="252" y="214"/>
      <point x="249" y="246"/>
      <point x="245" y="298" type="curve"/>
      <point x="217" y="298" type="line"/>
      <point x="225" y="218"/>
      <point x="223" y="176"/>
      <point x="223" y="136" type="curve"/>
      <point x="223" y="53"/>
      <point x="197" y="15"/>
      <point x="149" y="15" type="curve"/>
      <point x="86" y="15"/>
      <point x="75" y="37"/>
      <point x="75" y="132" type="curve"/>
      <point x="75" y="173"/>
      <point x="75" y="225"/>
      <point x="79" y="294" type="curve"/>
      <point x="82" y="356"/>
      <point x="86" y="510"/>
      <point x="95" y="628" type="curve"/>
      <point x="60" y="627" type="line"/>
      <point x="64" y="541"/>
      <point x="52" y="390"/>
      <point x="50" y="300" type="curve"/>
      <point x="49" y="235"/>
      <point x="45" y="170"/>
      <point x="45" y="99" type="curve"/>
      <point x="45" y="17"/>
      <point x="81" y="-11"/>
    </contour>
    <contour>
      <point x="15" y="524" type="line"/>
      <point x="15" y="524"/>
      <point x="82" y="527"/>
      <point x="132" y="528" type="curve"/>
      <point x="182" y="529"/>
      <point x="249" y="528"/>
      <point x="249" y="528" type="curve"/>
      <point x="251" y="555" type="line"/>
      <point x="251" y="555"/>
      <point x="167" y="553"/>
      <point x="118" y="552" type="curve"/>
      <point x="70" y="552"/>
      <point x="17" y="553"/>
      <point x="17" y="553" type="curve"/>
    </contour>
  </outline>
</glyph>
<glyph name="u" format="2">
  <advance width="303"/>
  <unicode hex="0075"/>
  <anchor x="151" y="0" name="bottom"/>
  <anchor x="257" y="5" name="ogonek"/>
  <anchor x="150" y="555" name="top"/>
  <anchor x="209" y="555" name="topright"/>
  <outline>
    <contour>
      <point x="131" y="-8" type="curve" smooth="yes"/>
      <point x="226" y="-8"/>
      <point x="249" y="138"/>
      <point x="249" y="262" type="curve"/>
      <point x="225" y="245" type="line"/>
      <point x="225" y="124"/>
      <point x="190" y="20"/>
      <point x="138" y="20" type="curve" smooth="yes"/>
      <point x="105" y="20"/>
      <point x="77" y="30"/>
      <point x="77" y="115" type="curve" smooth="yes"/>
      <point x="77" y="159"/>
      <point x="80" y="242"/>
      <point x="81" y="266" type="curve" smooth="yes"/>
      <point x="87" y="418"/>
      <point x="91" y="564"/>
      <point x="91" y="564" type="curve"/>
      <point x="55" y="559" type="line"/>
      <point x="55" y="559"/>
      <point x="57" y="421"/>
      <point x="52" y="265" type="curve" smooth="yes"/>
      <point x="51" y="235"/>
      <point x="48" y="205"/>
      <point x="48" y="111" type="curve" smooth="yes"/>
      <point x="48" y="34"/>
      <point x="69" y="-8"/>
    </contour>
    <contour>
      <point x="226" y="0" type="line"/>
      <point x="258" y="0" type="line"/>
      <point x="258" y="96"/>
      <point x="254" y="183"/>
      <point x="255" y="279" type="curve" smooth="yes"/>
      <point x="256" y="391"/>
      <point x="255" y="451"/>
      <point x="256" y="563" type="curve"/>
      <point x="222" y="566" type="line"/>
      <point x="224" y="451"/>
      <point x="225" y="383"/>
      <point x="225" y="268" type="curve" smooth="yes"/>
      <point x="225" y="219"/>
      <point x="225" y="167"/>
      <point x="226" y="116" type="curve"/>
    </contour>
  </outline>
</glyph>
<glyph name="v" format="2">
  <advance width="274"/>
  <unicode hex="0076"/>
  <outline>
    <contour>
      <point x="11" y="561" type="line"/>
      <point x="11" y="561"/>
      <point x="39" y="420"/>
      <point x="65" y="276" type="curve" smooth="yes"/>
      <point x="82" y="184"/>
      <point x="102" y="91"/>
      <point x="119" y="-1" type="curve"/>
      <point x="161" y="-1" type="line"/>
      <point x="161" y="-1"/>
      <point x="190" y="126"/>
      <point x="217" y="276" type="curve" smooth="yes"/>
      <point x="243" y="420"/>
      <point x="269" y="559"/>
      <point x="269" y="559" type="curve"/>
      <point x="236" y="556" type="line"/>
      <point x="236" y="556"/>
      <point x="214" y="427"/>
      <point x="191" y="284" type="curve" smooth="yes"/>
      <point x="180" y="217"/>
      <point x="150" y="85"/>
      <point x="140" y="34" type="curve"/>
      <point x="130" y="86"/>
      <point x="104" y="206"/>
      <point x="91" y="284" type="curve" smooth="yes"/>
      <point x="67" y="425"/>
      <point x="45" y="561"/>
      <point x="45" y="561" type="curve"/>
    </contour>
  </outline>
</glyph>
<glyph name="w" format="2">
  <advance width="451"/>
  <unicode hex="0077"/>
  <anchor x="228" y="555" name="top"/>
  <outline>
    <contour>
      <point x="91" y="-1" type="curve"/>
      <point x="142" y="1" type="line"/>
      <point x="153" y="50"/>
      <point x="174" y="157"/>
      <point x="194" y="266" type="curve" smooth="yes"/>
      <point x="206" y="334"/>
      <point x="218" y="392"/>
      <point x="228" y="434" type="curve"/>
      <point x="237" y="392"/>
      <point x="249" y="334"/>
      <point x="260" y="266" type="curve" smooth="yes"/>
      <point x="280" y="156"/>
      <point x="301" y="49"/>
      <point x="311" y="0" type="curve"/>
      <point x="362" y="-1" type="line"/>
      <point x="368" y="54"/>
      <point x="384" y="167"/>
      <point x="402" y="276" type="curve" smooth="yes"/>
      <point x="420" y="381"/>
      <point x="436" y="498"/>
      <point x="444" y="556" type="curve"/>
      <point x="412" y="556" type="line"/>
      <point x="405" y="501"/>
      <point x="390" y="388"/>
      <point x="375" y="284" type="curve" smooth="yes"/>
      <point x="365" y="217"/>
      <point x="347" y="88"/>
      <point x="337" y="37" type="curve"/>
      <point x="327" y="88"/>
      <point x="302" y="196"/>
      <point x="289" y="274" type="curve" smooth="yes"/>
      <point x="269" y="377"/>
      <point x="252" y="469"/>
      <point x="245" y="509" type="curve"/>
      <point x="210" y="509" type="line"/>
      <point x="203" y="469"/>
      <point x="187" y="378"/>
      <point x="167" y="274" type="curve" smooth="yes"/>
      <point x="156" y="207"/>
      <point x="127" y="88"/>
      <point x="117" y="37" type="curve"/>
      <point x="107" y="88"/>
      <point x="92" y="206"/>
      <point x="81" y="284" type="curve" smooth="yes"/>
      <point x="67" y="387"/>
      <point x="55" y="499"/>
      <point x="49" y="555" type="curve"/>
      <point x="11" y="555" type="line"/>
      <point x="20" y="497"/>
      <point x="38" y="381"/>
      <point x="52" y="276" type="curve" smooth="yes"/>
      <point x="67" y="166"/>
      <point x="83" y="53"/>
    </contour>
  </outline>
</glyph>
<glyph name="x" format="2">
  <advance width="246"/>
  <unicode hex="0078"/>
  <outline>
    <contour>
      <point x="33" y="-4" type="line"/>
      <point x="59" y="86"/>
      <point x="81" y="154"/>
      <point x="130" y="281" type="curve" smooth="yes"/>
      <point x="177" y="404"/>
      <point x="212" y="486"/>
      <point x="243" y="558" type="curve"/>
      <point x="207" y="558" type="line"/>
      <point x="183" y="488"/>
      <point x="157" y="424"/>
      <point x="111" y="299" type="curve" smooth="yes"/>
      <point x="62" y="166"/>
      <point x="32" y="86"/>
      <point x="-6" y="-2" type="curve"/>
    </contour>
    <contour>
      <point x="216" y="-2" type="curve"/>
      <point x="253" y="1" type="line"/>
      <point x="224" y="68"/>
      <point x="186" y="161"/>
      <point x="135" y="299" type="curve" smooth="yes"/>
      <point x="90" y="422"/>
      <point x="64" y="494"/>
      <point x="45" y="558" type="curve"/>
      <point x="7" y="555" type="line"/>
      <point x="45" y="465"/>
      <point x="70" y="403"/>
      <point x="115" y="281" type="curve" smooth="yes"/>
      <point x="165" y="145"/>
      <point x="195" y="60"/>
    </contour>
  </outline>
</glyph>
<glyph name="z" format="2">
  <advance width="227"/>
  <unicode hex="007A"/>
  <anchor x="109" y="555" name="top"/>
  <outline>
    <contour>
      <point x="38" y="10" type="line"/>
      <point x="57" y="69"/>
      <point x="89" y="167"/>
      <point x="121" y="265" type="curve" smooth="yes"/>
      <point x="154" y="365"/>
      <point x="188" y="464"/>
      <point x="208" y="521" type="curve"/>
      <point x="182" y="537" type="line"/>
      <point x="166" y="485"/>
      <point x="136" y="388"/>
      <point x="100" y="281" type="curve" smooth="yes"/>
      <point x="73" y="197"/>
      <point x="43" y="107"/>
      <point x="15" y="27" type="curve"/>
    </contour>
    <contour>
      <point x="16" y="-4" type="line"/>
      <point x="16" y="-4"/>
      <point x="65" y="0"/>
      <point x="115" y="0" type="curve"/>
      <point x="165" y="-1"/>
      <point x="217" y="0"/>
      <point x="217" y="0" type="curve"/>
      <point x="217" y="29" type="line"/>
      <point x="217" y="29"/>
      <point x="178" y="26"/>
      <point x="130" y="26" type="curve" smooth="yes"/>
      <point x="81" y="26"/>
      <point x="15" y="27"/>
      <point x="15" y="27" type="curve"/>
    </contour>
    <contour>
      <point x="24" y="521" type="line"/>
      <point x="24" y="521"/>
      <point x="57" y="523"/>
      <point x="106" y="523" type="curve"/>
      <point x="154" y="523"/>
      <point x="208" y="521"/>
      <point x="208" y="521" type="curve"/>
      <point x="205" y="555" type="line"/>
      <point x="205" y="555"/>
      <point x="172" y="552"/>
      <point x="122" y="552" type="curve"/>
      <point x="72" y="551"/>
      <point x="24" y="552"/>
      <point x="24" y="552" type="curve"/>
    </contour>
  </outline>
</glyph>
<glyph name="braceleft" format="2">
  <advance width="387"/>
  <unicode hex="007B"/>
  <outline>
    <contour>
      <point x="250" y="-129" type="curve" smooth="yes"/>
      <point x="269" y="-129"/>
      <point x="289" y="-124"/>
      <point x="308" y="-113" type="curve"/>
      <point x="303" y="-94" type="line"/>
      <point x="287" y="-102"/>
      <point x="270" y="-106"/>
      <point x="255" y="-106" type="curve" smooth="yes"/>
      <point x="209" y="-106"/>
      <point x="186" y="-89"/>
      <point x="186" y="-30" type="curve" smooth="yes"/>
      <point x="186" y="12"/>
      <point x="207" y="153"/>
      <point x="207" y="187" type="curve" smooth="yes"/>
      <point x="207" y="227"/>
      <point x="181" y="260"/>
      <point x="119" y="274" type="curve"/>
      <point x="183" y="293"/>
      <point x="205" y="326"/>
      <point x="205" y="364" type="curve" smooth="yes"/>
      <point x="205" y="405"/>
      <point x="174" y="555"/>
      <point x="174" y="604" type="curve" smooth="yes"/>
      <point x="174" y="651"/>
      <point x="193" y="677"/>
      <point x="233" y="677" type="curve" smooth="yes"/>
      <point x="248" y="677"/>
      <point x="265" y="673"/>
      <point x="286" y="666" type="curve"/>
      <point x="293" y="687" type="line"/>
      <point x="275" y="698"/>
      <point x="253" y="702"/>
      <point x="234" y="702" type="curve" smooth="yes"/>
      <point x="176" y="702"/>
      <point x="146" y="668"/>
      <point x="146" y="596" type="curve" smooth="yes"/>
      <point x="146" y="549"/>
      <point x="178" y="423"/>
      <point x="178" y="374" type="curve" smooth="yes"/>
      <point x="178" y="328"/>
      <point x="148" y="298"/>
      <point x="85" y="288" type="curve"/>
      <point x="88" y="257" type="line"/>
      <point x="150" y="250"/>
      <point x="178" y="219"/>
      <point x="178" y="171" type="curve" smooth="yes"/>
      <point x="178" y="123"/>
      <point x="156" y="24"/>
      <point x="156" y="-23" type="curve" smooth="yes"/>
      <point x="156" y="-94"/>
      <point x="188" y="-129"/>
    </contour>
  </outline>
</glyph>
<glyph name="bar" format="2">
  <advance width="199"/>
  <unicode hex="007C"/>
  <outline>
    <contour>
      <point x="120" y="-136" type="line"/>
      <point x="118" y="-77"/>
      <point x="112" y="142"/>
      <point x="112" y="289" type="curve" smooth="yes"/>
      <point x="112" y="436"/>
      <point x="117" y="639"/>
      <point x="119" y="694" type="curve"/>
      <point x="81" y="693" type="line"/>
      <point x="82" y="639"/>
      <point x="82" y="433"/>
      <point x="82" y="288" type="curve" smooth="yes"/>
      <point x="82" y="142"/>
      <point x="81" y="-78"/>
      <point x="80" y="-134" type="curve"/>
    </contour>
  </outline>
</glyph>
<glyph name="braceright" format="2">
  <advance width="387"/>
  <unicode hex="007D"/>
  <outline>
    <contour>
      <point x="153" y="-129" type="curve" smooth="yes"/>
      <point x="211" y="-129"/>
      <point x="241" y="-95"/>
      <point x="241" y="-23" type="curve" smooth="yes"/>
      <point x="241" y="24"/>
      <point x="209" y="150"/>
      <point x="209" y="199" type="curve" smooth="yes"/>
      <point x="209" y="245"/>
      <point x="239" y="275"/>
      <point x="302" y="285" type="curve"/>
      <point x="299" y="316" type="line"/>
      <point x="237" y="323"/>
      <point x="209" y="354"/>
      <point x="209" y="402" type="curve" smooth="yes"/>
      <point x="209" y="450"/>
      <point x="231" y="549"/>
      <point x="231" y="596" type="curve" smooth="yes"/>
      <point x="231" y="667"/>
      <point x="199" y="702"/>
      <point x="137" y="702" type="curve" smooth="yes"/>
      <point x="118" y="702"/>
      <point x="98" y="697"/>
      <point x="79" y="686" type="curve"/>
      <point x="84" y="667" type="line"/>
      <point x="100" y="675"/>
      <point x="117" y="679"/>
      <point x="132" y="679" type="curve" smooth="yes"/>
      <point x="178" y="679"/>
      <point x="201" y="662"/>
      <point x="201" y="603" type="curve" smooth="yes"/>
      <point x="201" y="561"/>
      <point x="180" y="420"/>
      <point x="180" y="386" type="curve" smooth="yes"/>
      <point x="180" y="346"/>
      <point x="206" y="313"/>
      <point x="268" y="299" type="curve"/>
      <point x="204" y="280"/>
      <point x="182" y="247"/>
      <point x="182" y="209" type="curve" smooth="yes"/>
      <point x="182" y="168"/>
      <point x="213" y="18"/>
      <point x="213" y="-31" type="curve" smooth="yes"/>
      <point x="213" y="-78"/>
      <point x="194" y="-104"/>
      <point x="154" y="-104" type="curve" smooth="yes"/>
      <point x="139" y="-104"/>
      <point x="122" y="-100"/>
      <point x="101" y="-93" type="curve"/>
      <point x="94" y="-114" type="line"/>
      <point x="112" y="-125"/>
      <point x="134" y="-129"/>
    </contour>
  </outline>
</glyph>
<glyph name="asciitilde" format="2">
  <advance width="393"/>
  <unicode hex="007E"/>
  <outline>
    <contour>
      <point x="71" y="270" type="line"/>
      <point x="88" y="276"/>
      <point x="114" y="280"/>
      <point x="132" y="280" type="curve" smooth="yes"/>
      <point x="169" y="280"/>
      <point x="201" y="264"/>
      <point x="247" y="264" type="curve" smooth="yes"/>
      <point x="283" y="264"/>
      <point x="310" y="273"/>
      <point x="324" y="281" type="curve"/>
      <point x="323" y="305" type="line"/>
      <point x="304" y="296"/>
      <point x="277" y="288"/>
      <point x="245" y="288" type="curve" smooth="yes"/>
      <point x="199" y="288"/>
      <point x="171" y="305"/>
      <point x="131" y="305" type="curve" smooth="yes"/>
      <point x="114" y="305"/>
      <point x="86" y="299"/>
      <point x="70" y="291" type="curve"/>
    </contour>
  </outline>
</glyph>
<glyph name="exclamdown" format="2">
  <advance width="217"/>
  <unicode hex="00A1"/>
  <outline>
    <contour>
      <point x="83" y="-151" type="curve"/>
      <point x="135" y="-148" type="line"/>
      <point x="134" y="-102"/>
      <point x="129" y="44"/>
      <point x="127" y="134" type="curve" smooth="yes"/>
      <point x="125" y="211"/>
      <point x="124" y="313"/>
      <point x="123" y="341" type="curve"/>
      <point x="95" y="341" type="line"/>
      <point x="94" y="307"/>
      <point x="93" y="190"/>
      <point x="92" y="132" type="curve" smooth="yes"/>
      <point x="91" y="70"/>
      <point x="85" y="-98"/>
    </contour>
    <contour>
      <point x="90" y="456" type="line"/>
      <point x="127" y="458" type="line"/>
      <point x="130" y="555" type="line"/>
      <point x="85" y="551" type="line"/>
    </contour>
  </outline>
</glyph>
<glyph name="brokenbar" format="2">
  <advance width="199"/>
  <unicode hex="00A6"/>
  <outline>
    <contour>
      <point x="81" y="352" type="curve"/>
      <point x="111" y="352" type="line"/>
      <point x="112" y="489"/>
      <point x="116" y="646"/>
      <point x="118" y="694" type="curve"/>
      <point x="80" y="693" type="line"/>
      <point x="81" y="647"/>
      <point x="81" y="488"/>
    </contour>
    <contour>
      <point x="79" y="-134" type="curve"/>
      <point x="119" y="-136" type="line"/>
      <point x="117" y="-90"/>
      <point x="113" y="55"/>
      <point x="112" y="187" type="curve"/>
      <point x="81" y="187" type="line"/>
      <point x="81" y="56"/>
      <point x="80" y="-90"/>
    </contour>
  </outline>
</glyph>
<glyph name="copyright" format="2">
  <advance width="608"/>
  <unicode hex="00A9"/>
  <outline>
    <contour>
      <point x="296" y="81" type="curve" smooth="yes"/>
      <point x="447" y="81"/>
      <point x="533" y="195"/>
      <point x="533" y="381" type="curve" smooth="yes"/>
      <point x="533" y="575"/>
      <point x="450" y="690"/>
      <point x="306" y="690" type="curve" smooth="yes"/>
      <point x="162" y="690"/>
      <point x="74" y="571"/>
      <point x="74" y="384" type="curve" smooth="yes"/>
      <point x="74" y="191"/>
      <point x="155" y="81"/>
    </contour>
    <contour>
      <point x="294" y="195" type="curve" smooth="yes"/>
      <point x="350" y="195"/>
      <point x="364" y="238"/>
      <point x="364" y="292" type="curve" smooth="yes"/>
      <point x="364" y="302"/>
      <point x="364" y="312"/>
      <point x="363" y="323" type="curve"/>
      <point x="337" y="322" type="line"/>
      <point x="338" y="309"/>
      <point x="339" y="295"/>
      <point x="339" y="283" type="curve" smooth="yes"/>
      <point x="339" y="248"/>
      <point x="332" y="221"/>
      <point x="298" y="221" type="curve" smooth="yes"/>
      <point x="275" y="221"/>
      <point x="259" y="238"/>
      <point x="256" y="284" type="curve" smooth="yes"/>
      <point x="255" y="301"/>
      <point x="253" y="334"/>
      <point x="253" y="381" type="curve" smooth="yes"/>
      <point x="253" y="418"/>
      <point x="254" y="454"/>
      <point x="256" y="480" type="curve" smooth="yes"/>
      <point x="260" y="529"/>
      <point x="271" y="548"/>
      <point x="301" y="548" type="curve" smooth="yes"/>
      <point x="326" y="548"/>
      <point x="337" y="530"/>
      <point x="337" y="485" type="curve" smooth="yes"/>
      <point x="337" y="467"/>
      <point x="336" y="435"/>
      <point x="331" y="408" type="curve"/>
      <point x="359" y="408" type="line"/>
      <point x="363" y="432"/>
      <point x="364" y="453"/>
      <point x="364" y="494" type="curve" smooth="yes"/>
      <point x="364" y="547"/>
      <point x="343" y="574"/>
      <point x="302" y="574" type="curve" smooth="yes"/>
      <point x="257" y="574"/>
      <point x="233" y="545"/>
      <point x="228" y="487" type="curve" smooth="yes"/>
      <point x="226" y="463"/>
      <point x="224" y="427"/>
      <point x="224" y="383" type="curve" smooth="yes"/>
      <point x="224" y="340"/>
      <point x="226" y="306"/>
      <point x="231" y="267" type="curve" smooth="yes"/>
      <point x="237" y="220"/>
      <point x="259" y="195"/>
    </contour>
    <contour>
      <point x="299" y="112" type="curve" smooth="yes"/>
      <point x="177" y="112"/>
      <point x="106" y="210"/>
      <point x="106" y="384" type="curve" smooth="yes"/>
      <point x="106" y="558"/>
      <point x="179" y="659"/>
      <point x="302" y="659" type="curve" smooth="yes"/>
      <point x="428" y="659"/>
      <point x="501" y="558"/>
      <point x="501" y="382" type="curve" smooth="yes"/>
      <point x="501" y="210"/>
      <point x="426" y="112"/>
    </contour>
  </outline>
</glyph>
<glyph name="ordfeminine" format="2">
  <advance width="327"/>
  <unicode hex="00AA"/>
  <outline>
    <contour>
      <point x="77" y="516" type="curve" smooth="yes"/>
      <point x="77" y="484"/>
      <point x="96" y="462"/>
      <point x="136" y="462" type="curve" smooth="yes"/>
      <point x="166" y="462"/>
      <point x="191" y="474"/>
      <point x="207" y="499" type="curve"/>
      <point x="208" y="485"/>
      <point x="214" y="473"/>
      <point x="223" y="464" type="curve"/>
      <point x="250" y="476" type="line"/>
      <point x="241" y="488"/>
      <point x="235" y="503"/>
      <point x="235" y="516" type="curve" smooth="yes"/>
      <point x="236" y="640" type="line" smooth="yes"/>
      <point x="236" y="681"/>
      <point x="210" y="703"/>
      <point x="164" y="703" type="curve" smooth="yes"/>
      <point x="119" y="703"/>
      <point x="90" y="680"/>
      <point x="86" y="638" type="curve"/>
      <point x="113" y="634" type="line"/>
      <point x="118" y="666"/>
      <point x="137" y="680"/>
      <point x="164" y="680" type="curve" smooth="yes"/>
      <point x="199" y="680"/>
      <point x="209" y="665"/>
      <point x="209" y="630" type="curve"/>
      <point x="206" y="611"/>
      <point x="158" y="592"/>
      <point x="139" y="583" type="curve" smooth="yes"/>
      <point x="102" y="566"/>
      <point x="77" y="552"/>
    </contour>
    <contour>
      <point x="105" y="514" type="curve" smooth="yes"/>
      <point x="105" y="543"/>
      <point x="128" y="553"/>
      <point x="163" y="570" type="curve" smooth="yes"/>
      <point x="183" y="580"/>
      <point x="198" y="588"/>
      <point x="208" y="598" type="curve"/>
      <point x="208" y="558" type="line" smooth="yes"/>
      <point x="205" y="511"/>
      <point x="179" y="484"/>
      <point x="139" y="484" type="curve" smooth="yes"/>
      <point x="117" y="484"/>
      <point x="105" y="497"/>
    </contour>
  </outline>
</glyph>
<glyph name="logicalnot" format="2">
  <advance width="537"/>
  <unicode hex="00AC"/>
  <outline>
    <contour>
      <point x="72" y="327" type="line"/>
      <point x="110" y="329"/>
      <point x="228" y="331"/>
      <point x="271" y="331" type="curve" smooth="yes"/>
      <point x="316" y="331"/>
      <point x="426" y="331"/>
      <point x="462" y="330" type="curve"/>
      <point x="464" y="365" type="line"/>
      <point x="425" y="362"/>
      <point x="310" y="360"/>
      <point x="263" y="360" type="curve" smooth="yes"/>
      <point x="218" y="360"/>
      <point x="108" y="360"/>
      <point x="70" y="362" type="curve"/>
    </contour>
    <contour>
      <point x="434" y="174" type="curve"/>
      <point x="467" y="176" type="line"/>
      <point x="466" y="197"/>
      <point x="464" y="238"/>
      <point x="463" y="275" type="curve" smooth="yes"/>
      <point x="462" y="308"/>
      <point x="463" y="336"/>
      <point x="464" y="365" type="curve"/>
      <point x="431" y="354" type="line"/>
      <point x="432" y="346"/>
      <point x="435" y="289"/>
      <point x="435" y="267" type="curve" smooth="yes"/>
      <point x="435" y="229"/>
      <point x="435" y="194"/>
    </contour>
  </outline>
</glyph>
<glyph name="degree" format="2">
  <advance width="307"/>
  <unicode hex="00B0"/>
  <outline>
    <contour>
      <point x="155" y="501" type="curve" smooth="yes"/>
      <point x="218" y="501"/>
      <point x="262" y="546"/>
      <point x="262" y="609" type="curve" smooth="yes"/>
      <point x="262" y="664"/>
      <point x="218" y="703"/>
      <point x="152" y="703" type="curve"/>
      <point x="85" y="703"/>
      <point x="45" y="659"/>
      <point x="45" y="599" type="curve" smooth="yes"/>
      <point x="45" y="545"/>
      <point x="86" y="501"/>
    </contour>
    <contour>
      <point x="156" y="523" type="curve" smooth="yes"/>
      <point x="89" y="523"/>
      <point x="72" y="566"/>
      <point x="72" y="603" type="curve" smooth="yes"/>
      <point x="72" y="642"/>
      <point x="100" y="681"/>
      <point x="152" y="681" type="curve" smooth="yes"/>
      <point x="194" y="681"/>
      <point x="234" y="658"/>
      <point x="234" y="602" type="curve" smooth="yes"/>
      <point x="234" y="562"/>
      <point x="210" y="523"/>
    </contour>
  </outline>
</glyph>
<glyph name="twosuperior" format="2">
  <advance width="225"/>
  <unicode hex="00B2"/>
  <outline>
    <contour>
      <point x="70" y="576" type="line"/>
      <point x="119" y="612"/>
      <point x="168" y="685"/>
      <point x="168" y="746" type="curve" smooth="yes"/>
      <point x="168" y="780"/>
      <point x="152" y="804"/>
      <point x="116" y="805" type="curve" smooth="yes"/>
      <point x="79" y="806"/>
      <point x="56" y="782"/>
      <point x="56" y="748" type="curve" smooth="yes"/>
      <point x="56" y="738"/>
      <point x="57" y="728"/>
      <point x="58" y="720" type="curve"/>
      <point x="78" y="721" type="line"/>
      <point x="77" y="728"/>
      <point x="76" y="736"/>
      <point x="76" y="744" type="curve" smooth="yes"/>
      <point x="76" y="773"/>
      <point x="89" y="788"/>
      <point x="112" y="788" type="curve" smooth="yes"/>
      <point x="135" y="788"/>
      <point x="147" y="774"/>
      <point x="147" y="740" type="curve" smooth="yes"/>
      <point x="147" y="674"/>
      <point x="92" y="616"/>
      <point x="50" y="581" type="curve"/>
    </contour>
    <contour>
      <point x="49" y="563" type="line"/>
      <point x="65" y="564"/>
      <point x="96" y="565"/>
      <point x="111" y="565" type="curve" smooth="yes"/>
      <point x="126" y="565"/>
      <point x="156" y="565"/>
      <point x="172" y="565" type="curve"/>
      <point x="171" y="584" type="line"/>
      <point x="157" y="583"/>
      <point x="130" y="583"/>
      <point x="116" y="582" type="curve" smooth="yes"/>
      <point x="101" y="581"/>
      <point x="66" y="581"/>
      <point x="50" y="581" type="curve"/>
    </contour>
  </outline>
</glyph>
<glyph name="threesuperior" format="2">
  <advance width="225"/>
  <unicode hex="00B3"/>
  <outline>
    <contour>
      <point x="108" y="559" type="curve" smooth="yes"/>
      <point x="144" y="559"/>
      <point x="167" y="584"/>
      <point x="167" y="623" type="curve" smooth="yes"/>
      <point x="167" y="644"/>
      <point x="153" y="662"/>
      <point x="131" y="667" type="curve"/>
      <point x="153" y="676"/>
      <point x="171" y="702"/>
      <point x="171" y="742" type="curve" smooth="yes"/>
      <point x="171" y="779"/>
      <point x="154" y="806"/>
      <point x="115" y="806" type="curve" smooth="yes"/>
      <point x="76" y="806"/>
      <point x="56" y="776"/>
      <point x="56" y="743" type="curve" smooth="yes"/>
      <point x="56" y="738"/>
      <point x="56" y="733"/>
      <point x="57" y="728" type="curve"/>
      <point x="75" y="729" type="line"/>
      <point x="74" y="733"/>
      <point x="74" y="737"/>
      <point x="74" y="741" type="curve" smooth="yes"/>
      <point x="74" y="765"/>
      <point x="84" y="789"/>
      <point x="113" y="789" type="curve" smooth="yes"/>
      <point x="138" y="789"/>
      <point x="151" y="776"/>
      <point x="151" y="735" type="curve" smooth="yes"/>
      <point x="151" y="680"/>
      <point x="116" y="675"/>
      <point x="98" y="675" type="curve" smooth="yes"/>
      <point x="92" y="675"/>
      <point x="87" y="675"/>
      <point x="83" y="675" type="curve"/>
      <point x="83" y="659" type="line"/>
      <point x="89" y="659"/>
      <point x="97" y="659"/>
      <point x="100" y="659" type="curve" smooth="yes"/>
      <point x="117" y="659"/>
      <point x="147" y="653"/>
      <point x="147" y="622" type="curve" smooth="yes"/>
      <point x="147" y="589"/>
      <point x="132" y="575"/>
      <point x="109" y="575" type="curve" smooth="yes"/>
      <point x="87" y="575"/>
      <point x="74" y="586"/>
      <point x="71" y="606" type="curve"/>
      <point x="53" y="605" type="line"/>
      <point x="58" y="576"/>
      <point x="75" y="559"/>
    </contour>
  </outline>
</glyph>
<glyph name="acute" format="2">
  <advance width="189"/>
  <unicode hex="00B4"/>
  <anchor x="85" y="555" name="_top"/>
  <outline>
    <contour>
      <point x="47" y="625" type="line"/>
      <point x="63" y="635"/>
      <point x="82" y="647"/>
      <point x="100" y="659" type="curve" smooth="yes"/>
      <point x="119" y="671"/>
      <point x="138" y="682"/>
      <point x="156" y="693" type="curve"/>
      <point x="140" y="718" type="line"/>
      <point x="124" y="705"/>
      <point x="106" y="691"/>
      <point x="88" y="678" type="curve" smooth="yes"/>
      <point x="69" y="664"/>
      <point x="50" y="650"/>
      <point x="35" y="640" type="curve"/>
    </contour>
  </outline>
</glyph>
<glyph name="periodcentered" format="2">
  <advance width="210"/>
  <unicode hex="00B7"/>
  <outline>
    <contour>
      <point x="128" y="254" type="line"/>
      <point x="126" y="354" type="line"/>
      <point x="83" y="351" type="line"/>
      <point x="85" y="256" type="line"/>
    </contour>
  </outline>
</glyph>
<glyph name="cedilla" format="2">
  <advance width="302"/>
  <unicode hex="00B8"/>
  <anchor x="152" y="0" name="_bottom"/>
  <outline>
    <contour>
      <point x="117" y="-152" type="curve" smooth="yes"/>
      <point x="177" y="-152"/>
      <point x="227" y="-138"/>
      <point x="227" y="-98" type="curve" smooth="yes"/>
      <point x="227" y="-68"/>
      <point x="193" y="-47"/>
      <point x="125" y="-47" type="curve"/>
      <point x="120" y="-67" type="line"/>
      <point x="167" y="-68"/>
      <point x="198" y="-77"/>
      <point x="198" y="-99" type="curve" smooth="yes"/>
      <point x="198" y="-122"/>
      <point x="167" y="-129"/>
      <point x="130" y="-129" type="curve" smooth="yes"/>
      <point x="114" y="-129"/>
      <point x="97" y="-128"/>
      <point x="81" y="-126" type="curve"/>
      <point x="77" y="-150" type="line"/>
      <point x="90" y="-151"/>
      <point x="104" y="-152"/>
    </contour>
    <contour>
      <point x="158" y="0" type="line"/>
      <point x="135" y="0" type="line"/>
      <point x="120" y="-67" type="line"/>
      <point x="143" y="-67" type="line"/>
    </contour>
  </outline>
</glyph>
<glyph name="onesuperior" format="2">
  <advance width="225"/>
  <unicode hex="00B9"/>
  <outline>
    <contour>
      <point x="118" y="567" type="curve"/>
      <point x="141" y="567" type="line"/>
      <point x="138" y="638"/>
      <point x="138" y="728"/>
      <point x="142" y="801" type="curve"/>
      <point x="131" y="801" type="line"/>
      <point x="120" y="773" type="line"/>
      <point x="120" y="717"/>
      <point x="120" y="619"/>
    </contour>
    <contour>
      <point x="61" y="745" type="line"/>
      <point x="79" y="746"/>
      <point x="103" y="751"/>
      <point x="121" y="757" type="curve"/>
      <point x="131" y="801" type="line"/>
      <point x="108" y="776"/>
      <point x="79" y="764"/>
      <point x="60" y="758" type="curve"/>
    </contour>
  </outline>
</glyph>
<glyph name="ordmasculine" format="2">
  <advance width="312"/>
  <unicode hex="00BA"/>
  <outline>
    <contour>
      <point x="154" y="469" type="curve" smooth="yes"/>
      <point x="212" y="469"/>
      <point x="238" y="504"/>
      <point x="238" y="590" type="curve" smooth="yes"/>
      <point x="238" y="672"/>
      <point x="214" y="703"/>
      <point x="159" y="703" type="curve" smooth="yes"/>
      <point x="103" y="703"/>
      <point x="74" y="668"/>
      <point x="74" y="590" type="curve" smooth="yes"/>
      <point x="74" y="505"/>
      <point x="100" y="469"/>
    </contour>
    <contour>
      <point x="154" y="497" type="curve" smooth="yes"/>
      <point x="120" y="497"/>
      <point x="102" y="526"/>
      <point x="102" y="589" type="curve" smooth="yes"/>
      <point x="102" y="653"/>
      <point x="120" y="678"/>
      <point x="158" y="678" type="curve" smooth="yes"/>
      <point x="194" y="678"/>
      <point x="210" y="654"/>
      <point x="210" y="593" type="curve" smooth="yes"/>
      <point x="210" y="542"/>
      <point x="204" y="497"/>
    </contour>
  </outline>
</glyph>
<glyph name="guillemetright" format="2">
  <advance width="542"/>
  <unicode hex="00BB"/>
  <outline>
    <contour>
      <point x="467" y="266" type="curve"/>
      <point x="467" y="309" type="line"/>
      <point x="438" y="333"/>
      <point x="410" y="358"/>
      <point x="381" y="382" type="curve"/>
      <point x="353" y="409"/>
      <point x="325" y="437"/>
      <point x="297" y="464" type="curve"/>
      <point x="275" y="418" type="line"/>
      <point x="307" y="394"/>
      <point x="340" y="370"/>
      <point x="372" y="346" type="curve"/>
      <point x="404" y="319"/>
      <point x="435" y="293"/>
    </contour>
    <contour>
      <point x="267" y="266" type="curve"/>
      <point x="267" y="309" type="line"/>
      <point x="238" y="333"/>
      <point x="210" y="358"/>
      <point x="181" y="382" type="curve"/>
      <point x="153" y="409"/>
      <point x="125" y="437"/>
      <point x="97" y="464" type="curve"/>
      <point x="75" y="418" type="line"/>
      <point x="107" y="394"/>
      <point x="140" y="370"/>
      <point x="172" y="346" type="curve"/>
      <point x="204" y="319"/>
      <point x="235" y="293"/>
    </contour>
    <contour>
      <point x="297" y="111" type="line"/>
      <point x="325" y="138"/>
      <point x="353" y="166"/>
      <point x="381" y="193" type="curve"/>
      <point x="410" y="217"/>
      <point x="438" y="242"/>
      <point x="467" y="266" type="curve"/>
      <point x="467" y="309" type="line"/>
      <point x="435" y="282"/>
      <point x="404" y="256"/>
      <point x="372" y="229" type="curve"/>
      <point x="340" y="205"/>
      <point x="307" y="181"/>
      <point x="275" y="157" type="curve"/>
    </contour>
    <contour>
      <point x="97" y="111" type="line"/>
      <point x="125" y="138"/>
      <point x="153" y="166"/>
      <point x="181" y="193" type="curve"/>
      <point x="210" y="217"/>
      <point x="238" y="242"/>
      <point x="267" y="266" type="curve"/>
      <point x="267" y="309" type="line"/>
      <point x="235" y="282"/>
      <point x="204" y="256"/>
      <point x="172" y="229" type="curve"/>
      <point x="140" y="205"/>
      <point x="107" y="181"/>
      <point x="75" y="157" type="curve"/>
    </contour>
  </outline>
</glyph>
<glyph name="onequarter" format="2">
  <advance width="536"/>
  <unicode hex="00BC"/>
  <outline>
    <contour>
      <point x="87" y="-1" type="curve"/>
      <point x="116" y="0" type="line"/>
      <point x="154" y="87"/>
      <point x="222" y="239"/>
      <point x="267" y="340" type="curve" smooth="yes"/>
      <point x="314" y="445"/>
      <point x="384" y="604"/>
      <point x="424" y="695" type="curve"/>
      <point x="395" y="697" type="line"/>
      <point x="357" y="606"/>
      <point x="289" y="446"/>
      <point x="241" y="339" type="curve" smooth="yes"/>
      <point x="195" y="237"/>
      <point x="126" y="85"/>
    </contour>
    <contour>
      <point x="147" y="461" type="curve"/>
      <point x="175" y="461" type="line"/>
      <point x="172" y="532"/>
      <point x="172" y="622"/>
      <point x="176" y="695" type="curve"/>
      <point x="165" y="695" type="line"/>
      <point x="142" y="670"/>
      <point x="111" y="658"/>
      <point x="92" y="652" type="curve"/>
      <point x="93" y="639" type="line"/>
      <point x="111" y="640"/>
      <point x="131" y="645"/>
      <point x="149" y="651" type="curve"/>
      <point x="149" y="594"/>
      <point x="149" y="508"/>
    </contour>
    <contour>
      <point x="381" y="-1" type="line"/>
      <point x="406" y="0" type="line"/>
      <point x="405" y="59" type="line"/>
      <point x="439" y="59" type="line"/>
      <point x="439" y="81" type="line"/>
      <point x="405" y="80" type="line"/>
      <point x="405" y="121" type="line" smooth="yes"/>
      <point x="405" y="159"/>
      <point x="406" y="197"/>
      <point x="406" y="235" type="curve"/>
      <point x="380" y="236" type="line"/>
      <point x="368" y="216"/>
      <point x="355" y="196"/>
      <point x="343" y="176" type="curve" smooth="yes"/>
      <point x="284" y="79" type="line"/>
      <point x="289" y="58" type="line"/>
      <point x="382" y="59" type="line"/>
    </contour>
    <contour>
      <point x="309" y="79" type="line"/>
      <point x="381" y="201" type="line"/>
      <point x="382" y="79" type="line"/>
    </contour>
  </outline>
</glyph>
<glyph name="onehalf" format="2">
  <advance width="536"/>
  <unicode hex="00BD"/>
  <outline>
    <contour>
      <point x="94" y="-1" type="curve"/>
      <point x="123" y="0" type="line"/>
      <point x="161" y="87"/>
      <point x="229" y="239"/>
      <point x="274" y="340" type="curve" smooth="yes"/>
      <point x="321" y="445"/>
      <point x="391" y="604"/>
      <point x="431" y="695" type="curve"/>
      <point x="402" y="697" type="line"/>
      <point x="364" y="606"/>
      <point x="296" y="446"/>
      <point x="248" y="339" type="curve" smooth="yes"/>
      <point x="202" y="237"/>
      <point x="133" y="85"/>
    </contour>
    <contour>
      <point x="311" y="-1" type="line"/>
      <point x="327" y="0"/>
      <point x="358" y="1"/>
      <point x="373" y="1" type="curve" smooth="yes"/>
      <point x="434" y="1" type="line"/>
      <point x="433" y="20" type="line"/>
      <point x="426" y="19"/>
      <point x="357" y="17"/>
      <point x="339" y="17" type="curve"/>
      <point x="385" y="55"/>
      <point x="430" y="124"/>
      <point x="430" y="182" type="curve" smooth="yes"/>
      <point x="430" y="216"/>
      <point x="414" y="240"/>
      <point x="378" y="241" type="curve" smooth="yes"/>
      <point x="341" y="242"/>
      <point x="318" y="218"/>
      <point x="318" y="184" type="curve" smooth="yes"/>
      <point x="318" y="174"/>
      <point x="319" y="164"/>
      <point x="320" y="156" type="curve"/>
      <point x="340" y="157" type="line"/>
      <point x="339" y="164"/>
      <point x="338" y="172"/>
      <point x="338" y="180" type="curve" smooth="yes"/>
      <point x="338" y="209"/>
      <point x="351" y="224"/>
      <point x="374" y="224" type="curve" smooth="yes"/>
      <point x="397" y="224"/>
      <point x="409" y="210"/>
      <point x="409" y="176" type="curve" smooth="yes"/>
      <point x="409" y="110"/>
      <point x="354" y="52"/>
      <point x="312" y="17" type="curve"/>
    </contour>
    <contour>
      <point x="154" y="461" type="curve"/>
      <point x="182" y="461" type="line"/>
      <point x="179" y="532"/>
      <point x="179" y="622"/>
      <point x="183" y="695" type="curve"/>
      <point x="172" y="695" type="line"/>
      <point x="149" y="670"/>
      <point x="118" y="658"/>
      <point x="99" y="652" type="curve"/>
      <point x="100" y="639" type="line"/>
      <point x="118" y="640"/>
      <point x="138" y="645"/>
      <point x="156" y="651" type="curve"/>
      <point x="156" y="594"/>
      <point x="156" y="508"/>
    </contour>
  </outline>
</glyph>
<glyph name="threequarters" format="2">
  <advance width="536"/>
  <unicode hex="00BE"/>
  <outline>
    <contour>
      <point x="87" y="-1" type="curve"/>
      <point x="116" y="0" type="line"/>
      <point x="154" y="87"/>
      <point x="222" y="239"/>
      <point x="267" y="340" type="curve" smooth="yes"/>
      <point x="314" y="445"/>
      <point x="384" y="604"/>
      <point x="424" y="695" type="curve"/>
      <point x="395" y="697" type="line"/>
      <point x="357" y="606"/>
      <point x="289" y="446"/>
      <point x="241" y="339" type="curve" smooth="yes"/>
      <point x="195" y="237"/>
      <point x="126" y="85"/>
    </contour>
    <contour>
      <point x="148" y="454" type="curve" smooth="yes"/>
      <point x="184" y="454"/>
      <point x="207" y="479"/>
      <point x="207" y="518" type="curve" smooth="yes"/>
      <point x="207" y="539"/>
      <point x="193" y="557"/>
      <point x="171" y="562" type="curve"/>
      <point x="193" y="571"/>
      <point x="211" y="597"/>
      <point x="211" y="637" type="curve" smooth="yes"/>
      <point x="211" y="674"/>
      <point x="194" y="701"/>
      <point x="155" y="701" type="curve" smooth="yes"/>
      <point x="116" y="701"/>
      <point x="96" y="671"/>
      <point x="96" y="638" type="curve" smooth="yes"/>
      <point x="96" y="633"/>
      <point x="96" y="628"/>
      <point x="97" y="623" type="curve"/>
      <point x="115" y="624" type="line"/>
      <point x="114" y="628"/>
      <point x="114" y="632"/>
      <point x="114" y="636" type="curve" smooth="yes"/>
      <point x="114" y="660"/>
      <point x="124" y="684"/>
      <point x="153" y="684" type="curve" smooth="yes"/>
      <point x="178" y="684"/>
      <point x="191" y="671"/>
      <point x="191" y="630" type="curve" smooth="yes"/>
      <point x="191" y="575"/>
      <point x="156" y="570"/>
      <point x="138" y="570" type="curve" smooth="yes"/>
      <point x="132" y="570"/>
      <point x="127" y="570"/>
      <point x="123" y="570" type="curve"/>
      <point x="123" y="554" type="line"/>
      <point x="129" y="554"/>
      <point x="137" y="554"/>
      <point x="140" y="554" type="curve" smooth="yes"/>
      <point x="157" y="554"/>
      <point x="187" y="548"/>
      <point x="187" y="517" type="curve" smooth="yes"/>
      <point x="187" y="484"/>
      <point x="172" y="470"/>
      <point x="149" y="470" type="curve" smooth="yes"/>
      <point x="127" y="470"/>
      <point x="114" y="481"/>
      <point x="111" y="501" type="curve"/>
      <point x="93" y="500" type="line"/>
      <point x="98" y="471"/>
      <point x="115" y="454"/>
    </contour>
    <contour>
      <point x="381" y="-1" type="line"/>
      <point x="406" y="0" type="line"/>
      <point x="405" y="59" type="line"/>
      <point x="439" y="59" type="line"/>
      <point x="439" y="81" type="line"/>
      <point x="405" y="80" type="line"/>
      <point x="405" y="121" type="line" smooth="yes"/>
      <point x="405" y="159"/>
      <point x="406" y="197"/>
      <point x="406" y="235" type="curve"/>
      <point x="380" y="236" type="line"/>
      <point x="368" y="216"/>
      <point x="355" y="196"/>
      <point x="343" y="176" type="curve" smooth="yes"/>
      <point x="284" y="79" type="line"/>
      <point x="289" y="58" type="line"/>
      <point x="382" y="59" type="line"/>
    </contour>
    <contour>
      <point x="309" y="79" type="line"/>
      <point x="381" y="201" type="line"/>
      <point x="382" y="79" type="line"/>
    </contour>
  </outline>
</glyph>
<glyph name="questiondown" format="2">
  <advance width="395"/>
  <unicode hex="00BF"/>
  <outline>
    <contour>
      <point x="186" y="340" type="line"/>
      <point x="188" y="325"/>
      <point x="190" y="311"/>
      <point x="190" y="297" type="curve" smooth="yes"/>
      <point x="190" y="248"/>
      <point x="173" y="209"/>
      <point x="141" y="168" type="curve" smooth="yes"/>
      <point x="110" y="128"/>
      <point x="77" y="73"/>
      <point x="77" y="-32" type="curve" smooth="yes"/>
      <point x="77" y="-111"/>
      <point x="117" y="-159"/>
      <point x="188" y="-159" type="curve" smooth="yes"/>
      <point x="280" y="-159"/>
      <point x="309" y="-89"/>
      <point x="309" y="-2" type="curve" smooth="yes"/>
      <point x="309" y="25"/>
      <point x="305" y="54"/>
      <point x="300" y="83" type="curve"/>
      <point x="270" y="84" type="line"/>
      <point x="275" y="58"/>
      <point x="278" y="31"/>
      <point x="278" y="6" type="curve" smooth="yes"/>
      <point x="278" y="-68"/>
      <point x="263" y="-132"/>
      <point x="191" y="-132" type="curve" smooth="yes"/>
      <point x="137" y="-132"/>
      <point x="107" y="-98"/>
      <point x="107" y="-40" type="curve" smooth="yes"/>
      <point x="107" y="79"/>
      <point x="142" y="121"/>
      <point x="172" y="163" type="curve" smooth="yes"/>
      <point x="204" y="207"/>
      <point x="218" y="242"/>
      <point x="218" y="292" type="curve" smooth="yes"/>
      <point x="218" y="306"/>
      <point x="217" y="322"/>
      <point x="215" y="339" type="curve"/>
    </contour>
    <contour>
      <point x="215" y="558" type="line"/>
      <point x="170" y="554" type="line"/>
      <point x="174" y="464" type="line"/>
      <point x="211" y="462" type="line"/>
    </contour>
  </outline>
</glyph>
<glyph name="AE" format="2">
  <advance width="500"/>
  <unicode hex="00C6"/>
  <anchor x="328" y="693" name="top"/>
  <outline>
    <contour>
      <point x="15" y="1" type="curve"/>
      <point x="50" y="0" type="line"/>
      <point x="70" y="60"/>
      <point x="91" y="121"/>
      <point x="111" y="181" type="curve"/>
      <point x="268" y="185" type="line"/>
      <point x="265" y="-5" type="line"/>
      <point x="475" y="0" type="line"/>
      <point x="474" y="23" type="line"/>
      <point x="303" y="28" type="line"/>
      <point x="300" y="217" type="line"/>
      <point x="468" y="221" type="line"/>
      <point x="470" y="247" type="line"/>
      <point x="300" y="250" type="line"/>
      <point x="299" y="350" type="line" smooth="yes"/>
      <point x="299" y="443"/>
      <point x="301" y="605"/>
      <point x="302" y="664" type="curve"/>
      <point x="465" y="665" type="line"/>
      <point x="465" y="693" type="line"/>
      <point x="249" y="701" type="line"/>
      <point x="227" y="628"/>
      <point x="181" y="483"/>
      <point x="138" y="354" type="curve" smooth="yes"/>
      <point x="95" y="223"/>
      <point x="43" y="76"/>
    </contour>
    <contour>
      <point x="268" y="211" type="line"/>
      <point x="122" y="215" type="line"/>
      <point x="136" y="258"/>
      <point x="150" y="301"/>
      <point x="164" y="344" type="curve" smooth="yes"/>
      <point x="200" y="455"/>
      <point x="239" y="581"/>
      <point x="264" y="651" type="curve"/>
      <point x="266" y="587"/>
      <point x="269" y="468"/>
      <point x="269" y="352" type="curve" smooth="yes"/>
    </contour>
  </outline>
</glyph>
<glyph name="Thorn" format="2">
  <advance width="313"/>
  <unicode hex="00DE"/>
  <outline>
    <contour>
      <point x="86" y="150" type="line"/>
      <point x="223" y="150"/>
      <point x="282" y="206"/>
      <point x="282" y="372" type="curve" smooth="yes"/>
      <point x="282" y="533"/>
      <point x="243" y="583"/>
      <point x="146" y="583" type="curve" smooth="yes"/>
      <point x="120" y="583"/>
      <point x="99" y="582"/>
      <point x="78" y="580" type="curve"/>
      <point x="78" y="545" type="line"/>
      <point x="97" y="549"/>
      <point x="115" y="551"/>
      <point x="153" y="551" type="curve" smooth="yes"/>
      <point x="227" y="551"/>
      <point x="247" y="480"/>
      <point x="247" y="369" type="curve" smooth="yes"/>
      <point x="247" y="233"/>
      <point x="211" y="182"/>
      <point x="82" y="182" type="curve"/>
    </contour>
    <contour>
      <point x="55" y="-5" type="curve"/>
      <point x="93" y="1" type="line"/>
      <point x="91" y="101"/>
      <point x="88" y="265"/>
      <point x="89" y="350" type="curve" smooth="yes"/>
      <point x="90" y="443"/>
      <point x="91" y="621"/>
      <point x="92" y="698" type="curve"/>
      <point x="52" y="694" type="line"/>
      <point x="55" y="620"/>
      <point x="59" y="477"/>
      <point x="59" y="352" type="curve"/>
      <point x="59" y="227"/>
      <point x="57" y="75"/>
    </contour>
  </outline>
</glyph>
<glyph name="germandbls" format="2">
  <advance width="384"/>
  <unicode hex="00DF"/>
  <outline>
    <contour>
      <point x="72" y="-1" type="curve"/>
      <point x="112" y="0" type="line"/>
      <point x="110" y="40"/>
      <point x="106" y="159"/>
      <point x="106" y="271" type="curve" smooth="yes"/>
      <point x="106" y="388"/>
      <point x="107" y="499"/>
      <point x="110" y="570" type="curve" smooth="yes"/>
      <point x="113" y="640"/>
      <point x="139" y="673"/>
      <point x="202" y="673" type="curve" smooth="yes"/>
      <point x="252" y="673"/>
      <point x="274" y="640"/>
      <point x="274" y="581" type="curve" smooth="yes"/>
      <point x="274" y="493"/>
      <point x="188" y="441"/>
      <point x="188" y="374" type="curve" smooth="yes"/>
      <point x="188" y="324"/>
      <point x="211" y="298"/>
      <point x="262" y="245" type="curve" smooth="yes"/>
      <point x="297" y="208"/>
      <point x="319" y="187"/>
      <point x="319" y="127" type="curve" smooth="yes"/>
      <point x="319" y="60"/>
      <point x="272" y="31"/>
      <point x="197" y="26" type="curve"/>
      <point x="195" y="0" type="line"/>
      <point x="291" y="5"/>
      <point x="350" y="47"/>
      <point x="350" y="129" type="curve" smooth="yes"/>
      <point x="350" y="192"/>
      <point x="322" y="222"/>
      <point x="285" y="259" type="curve" smooth="yes"/>
      <point x="243" y="301"/>
      <point x="218" y="324"/>
      <point x="218" y="374" type="curve" smooth="yes"/>
      <point x="218" y="441"/>
      <point x="303" y="485"/>
      <point x="303" y="588" type="curve" smooth="yes"/>
      <point x="303" y="652"/>
      <point x="264" y="700"/>
      <point x="201" y="700" type="curve" smooth="yes"/>
      <point x="121" y="700"/>
      <point x="83" y="642"/>
      <point x="81" y="562" type="curve" smooth="yes"/>
      <point x="80" y="522"/>
      <point x="79" y="348"/>
      <point x="79" y="270" type="curve" smooth="yes"/>
      <point x="79" y="157"/>
      <point x="74" y="39"/>
    </contour>
  </outline>
</glyph>
<glyph name="ae" format="2">
  <advance width="439"/>
  <unicode hex="00E6"/>
  <anchor x="223" y="555" name="top"/>
  <outline>
    <contour>
      <point x="97" y="-10" type="curve" smooth="yes"/>
      <point x="154" y="-10"/>
      <point x="184" y="52"/>
      <point x="199" y="130" type="curve"/>
      <point x="204" y="42"/>
      <point x="234" y="-10"/>
      <point x="304" y="-10" type="curve" smooth="yes"/>
      <point x="400" y="-10"/>
      <point x="415" y="62"/>
      <point x="415" y="115" type="curve" smooth="yes"/>
      <point x="415" y="141"/>
      <point x="413" y="172"/>
      <point x="411" y="187" type="curve"/>
      <point x="379" y="187" type="line"/>
      <point x="382" y="173"/>
      <point x="386" y="146"/>
      <point x="386" y="113" type="curve" smooth="yes"/>
      <point x="386" y="50"/>
      <point x="363" y="18"/>
      <point x="309" y="18" type="curve" smooth="yes"/>
      <point x="258" y="18"/>
      <point x="235" y="51"/>
      <point x="228" y="123" type="curve" smooth="yes"/>
      <point x="224" y="160"/>
      <point x="222" y="221"/>
      <point x="222" y="273" type="curve"/>
      <point x="281" y="276"/>
      <point x="360" y="276"/>
      <point x="403" y="276" type="curve"/>
      <point x="407" y="318"/>
      <point x="409" y="369"/>
      <point x="409" y="430" type="curve" smooth="yes"/>
      <point x="409" y="544"/>
      <point x="361" y="566"/>
      <point x="319" y="566" type="curve" smooth="yes"/>
      <point x="272" y="566"/>
      <point x="235" y="548"/>
      <point x="214" y="497" type="curve"/>
      <point x="203" y="538"/>
      <point x="179" y="565"/>
      <point x="131" y="565" type="curve" smooth="yes"/>
      <point x="70" y="565"/>
      <point x="32" y="513"/>
      <point x="32" y="443" type="curve" smooth="yes"/>
      <point x="32" y="406"/>
      <point x="35" y="390"/>
      <point x="39" y="368" type="curve"/>
      <point x="66" y="371" type="line"/>
      <point x="63" y="388"/>
      <point x="60" y="411"/>
      <point x="60" y="439" type="curve" smooth="yes"/>
      <point x="60" y="501"/>
      <point x="83" y="543"/>
      <point x="131" y="543" type="curve" smooth="yes"/>
      <point x="176" y="543"/>
      <point x="194" y="506"/>
      <point x="194" y="412" type="curve" smooth="yes"/>
      <point x="194" y="351"/>
      <point x="141" y="314"/>
      <point x="101" y="273" type="curve" smooth="yes"/>
      <point x="59" y="231"/>
      <point x="21" y="180"/>
      <point x="21" y="105" type="curve" smooth="yes"/>
      <point x="21" y="20"/>
      <point x="56" y="-10"/>
    </contour>
    <contour>
      <point x="103" y="19" type="curve" smooth="yes"/>
      <point x="59" y="19"/>
      <point x="52" y="57"/>
      <point x="52" y="107" type="curve" smooth="yes"/>
      <point x="52" y="173"/>
      <point x="80" y="212"/>
      <point x="121" y="254" type="curve" smooth="yes"/>
      <point x="153" y="285"/>
      <point x="181" y="309"/>
      <point x="194" y="338" type="curve"/>
      <point x="193" y="317"/>
      <point x="193" y="248"/>
      <point x="194" y="224" type="curve" smooth="yes"/>
      <point x="191" y="110"/>
      <point x="156" y="19"/>
    </contour>
    <contour>
      <point x="222" y="302" type="line"/>
      <point x="223" y="346"/>
      <point x="224" y="373"/>
      <point x="228" y="409" type="curve" smooth="yes"/>
      <point x="238" y="508"/>
      <point x="269" y="540"/>
      <point x="314" y="540" type="curve" smooth="yes"/>
      <point x="353" y="540"/>
      <point x="378" y="515"/>
      <point x="380" y="416" type="curve" smooth="yes"/>
      <point x="381" y="386"/>
      <point x="380" y="349"/>
      <point x="377" y="304" type="curve"/>
    </contour>
  </outline>
</glyph>
<glyph name="eth" format="2">
  <advance width="330"/>
  <unicode hex="00F0"/>
  <outline>
    <contour>
      <point x="157" y="-10" type="curve" smooth="yes"/>
      <point x="254" y="-10"/>
      <point x="273" y="64"/>
      <point x="273" y="314" type="curve" smooth="yes"/>
      <point x="273" y="609"/>
      <point x="206" y="671"/>
      <point x="133" y="714" type="curve"/>
      <point x="118" y="687" type="line"/>
      <point x="199" y="648"/>
      <point x="243" y="537"/>
      <point x="243" y="363" type="curve" smooth="yes"/>
      <point x="243" y="314"/>
      <point x="243" y="231"/>
      <point x="243" y="226" type="curve" smooth="yes"/>
      <point x="243" y="76"/>
      <point x="225" y="16"/>
      <point x="158" y="16" type="curve" smooth="yes"/>
      <point x="94" y="16"/>
      <point x="75" y="68"/>
      <point x="75" y="204" type="curve" smooth="yes"/>
      <point x="75" y="317"/>
      <point x="96" y="387"/>
      <point x="154" y="387" type="curve" smooth="yes"/>
      <point x="214" y="387"/>
      <point x="243" y="328"/>
      <point x="243" y="249" type="curve"/>
      <point x="260" y="302" type="line"/>
      <point x="242" y="391"/>
      <point x="197" y="414"/>
      <point x="156" y="414" type="curve" smooth="yes"/>
      <point x="77" y="414"/>
      <point x="46" y="338"/>
      <point x="46" y="196" type="curve" smooth="yes"/>
      <point x="46" y="49"/>
      <point x="78" y="-10"/>
    </contour>
    <contour>
      <point x="139" y="532" type="line"/>
      <point x="155" y="542"/>
      <point x="184" y="561"/>
      <point x="219" y="580" type="curve" smooth="yes"/>
      <point x="245" y="594"/>
      <point x="285" y="617"/>
      <point x="308" y="630" type="curve"/>
      <point x="294" y="653" type="line"/>
      <point x="274" y="640"/>
      <point x="241" y="619"/>
      <point x="213" y="603" type="curve" smooth="yes"/>
      <point x="175" y="581"/>
      <point x="144" y="565"/>
      <point x="126" y="556" type="curve"/>
    </contour>
  </outline>
</glyph>
<glyph name="oslash" format="2">
  <advance width="306"/>
  <unicode hex="00F8"/>
  <anchor x="153" y="555" name="top"/>
  <outline>
    <contour>
      <point x="149" y="-10" type="curve"/>
      <point x="207" y="-10"/>
      <point x="236" y="32"/>
      <point x="247" y="80" type="curve"/>
      <point x="261" y="145"/>
      <point x="263" y="224"/>
      <point x="263" y="282" type="curve"/>
      <point x="263" y="347"/>
      <point x="263" y="391"/>
      <point x="257" y="447" type="curve"/>
      <point x="249" y="521"/>
      <point x="224" y="566"/>
      <point x="162" y="566" type="curve"/>
      <point x="101" y="566"/>
      <point x="71" y="528"/>
      <point x="55" y="441" type="curve"/>
      <point x="49" y="408"/>
      <point x="43" y="327"/>
      <point x="43" y="283" type="curve"/>
      <point x="43" y="240"/>
      <point x="43" y="166"/>
      <point x="50" y="113" type="curve"/>
      <point x="61" y="33"/>
      <point x="82" y="-10"/>
    </contour>
    <contour>
      <point x="151" y="17" type="curve"/>
      <point x="103" y="17"/>
      <point x="86" y="54"/>
      <point x="79" y="127" type="curve"/>
      <point x="72" y="194"/>
      <point x="73" y="223"/>
      <point x="73" y="263" type="curve"/>
      <point x="73" y="303"/>
      <point x="77" y="392"/>
      <point x="83" y="436" type="curve"/>
      <point x="91" y="500"/>
      <point x="113" y="540"/>
      <point x="163" y="540" type="curve"/>
      <point x="210" y="540"/>
      <point x="228" y="499"/>
      <point x="230" y="420" type="curve"/>
      <point x="230" y="393"/>
      <point x="234" y="354"/>
      <point x="233" y="286" type="curve"/>
      <point x="233" y="234"/>
      <point x="232" y="191"/>
      <point x="229" y="153" type="curve"/>
      <point x="221" y="72"/>
      <point x="206" y="17"/>
    </contour>
    <contour>
      <point x="82" y="-40" type="line"/>
      <point x="103" y="41"/>
      <point x="139" y="176"/>
      <point x="159" y="250" type="curve" smooth="yes"/>
      <point x="179" y="324"/>
      <point x="229" y="484"/>
      <point x="261" y="584" type="curve"/>
      <point x="232" y="599" type="line"/>
      <point x="210" y="520"/>
      <point x="170" y="376"/>
      <point x="139" y="267" type="curve" smooth="yes"/>
      <point x="108" y="158"/>
      <point x="72" y="36"/>
      <point x="53" y="-26" type="curve"/>
    </contour>
  </outline>
</glyph>
<glyph name="Hbar" format="2">
  <advance width="364"/>
  <unicode hex="0126"/>
  <anchor x="182" y="459" name="_center"/>
  <outline>
    <contour>
      <point x="23" y="443" type="line"/>
      <point x="23" y="443"/>
      <point x="115" y="444"/>
      <point x="180" y="444" type="curve"/>
      <point x="223" y="444"/>
      <point x="344" y="443"/>
      <point x="344" y="443" type="curve"/>
      <point x="344" y="469" type="line"/>
      <point x="344" y="469"/>
      <point x="232" y="466"/>
      <point x="185" y="467" type="curve"/>
      <point x="117" y="468"/>
      <point x="24" y="469"/>
      <point x="24" y="469" type="curve"/>
    </contour>
    <component base="H"/>
  </outline>
</glyph>
<glyph name="idotless" format="2">
  <advance width="172"/>
  <unicode hex="0131"/>
  <anchor x="87" y="0" name="bottom"/>
  <anchor x="86" y="555" name="top"/>
  <outline>
    <contour>
      <point x="103" y="0" type="line"/>
      <point x="103" y="0"/>
      <point x="101" y="142"/>
      <point x="101" y="285" type="curve"/>
      <point x="101" y="429"/>
      <point x="105" y="556"/>
      <point x="105" y="556" type="curve"/>
      <point x="72" y="556" type="line"/>
      <point x="72" y="556"/>
      <point x="73" y="432"/>
      <point x="73" y="286" type="curve"/>
      <point x="73" y="141"/>
      <point x="69" y="2"/>
      <point x="69" y="2" type="curve"/>
    </contour>
  </outline>
</glyph>
<glyph name="kgreenlandic" format="2">
  <advance width="287"/>
  <unicode hex="0138"/>
  <outline>
    <contour>
      <point x="251" y="0" type="curve"/>
      <point x="289" y="3" type="line"/>
      <point x="225" y="103"/>
      <point x="163" y="199"/>
      <point x="113" y="290" type="curve"/>
      <point x="163" y="386"/>
      <point x="218" y="478"/>
      <point x="265" y="559" type="curve"/>
      <point x="230" y="561" type="line"/>
      <point x="196" y="485"/>
      <point x="147" y="403"/>
      <point x="81" y="289" type="curve"/>
      <point x="139" y="197"/>
      <point x="207" y="88"/>
    </contour>
    <contour>
      <point x="57" y="0" type="curve"/>
      <point x="88" y="0" type="line"/>
      <point x="88" y="61"/>
      <point x="88" y="180"/>
      <point x="88" y="284" type="curve"/>
      <point x="88" y="361"/>
      <point x="89" y="472"/>
      <point x="89" y="559" type="curve"/>
      <point x="58" y="556" type="line"/>
      <point x="59" y="470"/>
      <point x="60" y="362"/>
      <point x="60" y="285" type="curve"/>
      <point x="60" y="166"/>
      <point x="56" y="79"/>
    </contour>
  </outline>
</glyph>
<glyph name="lcaron" format="2">
  <advance width="181"/>
  <unicode hex="013E"/>
  <outline>
    <contour>
      <point x="62" y="0" type="curve"/>
      <point x="93" y="0" type="line"/>
      <point x="93" y="61"/>
      <point x="93" y="180"/>
      <point x="93" y="284" type="curve"/>
      <point x="93" y="389"/>
      <point x="94" y="580"/>
      <point x="95" y="694" type="curve"/>
      <point x="62" y="694" type="line"/>
      <point x="63" y="581"/>
      <point x="65" y="392"/>
      <point x="65" y="285" type="curve"/>
      <point x="65" y="179"/>
      <point x="63" y="60"/>
    </contour>
    <contour>
      <point x="171" y="552" type="line"/>
      <point x="187" y="569"/>
      <point x="190" y="607"/>
      <point x="190" y="628" type="curve"/>
      <point x="190" y="652"/>
      <point x="189" y="682"/>
      <point x="189" y="697" type="curve"/>
      <point x="151" y="691" type="line"/>
      <point x="156" y="630" type="line"/>
      <point x="172" y="629" type="line"/>
      <point x="173" y="609"/>
      <point x="170" y="581"/>
      <point x="157" y="562" type="curve"/>
    </contour>
  </outline>
</glyph>
<glyph name="ldot" format="2">
  <advance width="156"/>
  <unicode hex="0140"/>
  <outline>
    <contour>
      <point x="62" y="0" type="curve"/>
      <point x="93" y="0" type="line"/>
      <point x="93" y="61"/>
      <point x="93" y="180"/>
      <point x="93" y="284" type="curve"/>
      <point x="93" y="389"/>
      <point x="94" y="580"/>
      <point x="95" y="694" type="curve"/>
      <point x="62" y="694" type="line"/>
      <point x="63" y="581"/>
      <point x="65" y="392"/>
      <point x="65" y="285" type="curve"/>
      <point x="65" y="179"/>
      <point x="63" y="60"/>
    </contour>
    <contour>
      <point x="174" y="321" type="line"/>
      <point x="172" y="387" type="line"/>
      <point x="138" y="384" type="line"/>
      <point x="141" y="323" type="line"/>
    </contour>
  </outline>
</glyph>
<glyph name="napostrophe" format="2">
  <advance width="315"/>
  <unicode hex="0149"/>
  <outline>
    <contour>
      <point x="61" y="603" type="line"/>
      <point x="82" y="625"/>
      <point x="86" y="667"/>
      <point x="86" y="693" type="curve"/>
      <point x="87" y="733"/>
      <point x="84" y="765"/>
      <point x="84" y="765" type="curve"/>
      <point x="47" y="758" type="line"/>
      <point x="53" y="696" type="line"/>
      <point x="67" y="695" type="line"/>
      <point x="69" y="643"/>
      <point x="47" y="614"/>
      <point x="47" y="614" type="curve"/>
    </contour>
    <component base="n"/>
  </outline>
</glyph>
<glyph name="Eng" format="2">
  <advance width="373"/>
  <unicode hex="014A"/>
  <outline>
    <contour>
      <point x="220" y="-156" type="line"/>
      <point x="290" y="-155"/>
      <point x="314" y="-104"/>
      <point x="314" y="-42" type="curve"/>
      <point x="314" y="100"/>
      <point x="314" y="241"/>
      <point x="314" y="383" type="curve"/>
      <point x="314" y="508"/>
      <point x="317" y="646"/>
      <point x="320" y="715" type="curve"/>
      <point x="280" y="715" type="line"/>
      <point x="281" y="621"/>
      <point x="283" y="466"/>
      <point x="283" y="381" type="curve" smooth="yes"/>
      <point x="283" y="305"/>
      <point x="284" y="171"/>
      <point x="283" y="87" type="curve"/>
      <point x="277" y="106"/>
      <point x="245" y="208"/>
      <point x="197" y="369" type="curve" smooth="yes"/>
      <point x="160" y="495"/>
      <point x="120" y="634"/>
      <point x="100" y="704" type="curve"/>
      <point x="53" y="704" type="line"/>
      <point x="56" y="628"/>
      <point x="59" y="481"/>
      <point x="59" y="356" type="curve" smooth="yes"/>
      <point x="59" y="231"/>
      <point x="57" y="80"/>
      <point x="56" y="1" type="curve"/>
      <point x="93" y="0" type="line"/>
      <point x="92" y="102"/>
      <point x="90" y="269"/>
      <point x="90" y="354" type="curve" smooth="yes"/>
      <point x="90" y="444"/>
      <point x="89" y="533"/>
      <point x="89" y="623" type="curve"/>
      <point x="112" y="548"/>
      <point x="153" y="412"/>
      <point x="173" y="344" type="curve" smooth="yes"/>
      <point x="221" y="178"/>
      <point x="276" y="21"/>
      <point x="280" y="10" type="curve"/>
      <point x="279" y="-94"/>
      <point x="272" y="-128"/>
      <point x="215" y="-128" type="curve"/>
    </contour>
  </outline>
</glyph>
<glyph name="eng" format="2">
  <advance width="309"/>
  <unicode hex="014B"/>
  <outline>
    <contour>
      <point x="163" y="-156" type="line"/>
      <point x="233" y="-155"/>
      <point x="258" y="-104"/>
      <point x="258" y="-42" type="curve" smooth="yes"/>
      <point x="258" y="-7"/>
      <point x="259" y="156"/>
      <point x="259" y="299" type="curve" smooth="yes"/>
      <point x="259" y="441" type="line" smooth="yes"/>
      <point x="259" y="529"/>
      <point x="234" y="560"/>
      <point x="183" y="560" type="curve" smooth="yes"/>
      <point x="135" y="560"/>
      <point x="100" y="518"/>
      <point x="81" y="449" type="curve"/>
      <point x="82" y="486"/>
      <point x="82" y="522"/>
      <point x="83" y="559" type="curve"/>
      <point x="50" y="556" type="line"/>
      <point x="51" y="524"/>
      <point x="52" y="421"/>
      <point x="53" y="285" type="curve" smooth="yes"/>
      <point x="53" y="152"/>
      <point x="51" y="51"/>
      <point x="50" y="0" type="curve"/>
      <point x="81" y="0" type="line"/>
      <point x="80" y="50"/>
      <point x="81" y="186"/>
      <point x="81" y="319" type="curve" smooth="yes"/>
      <point x="81" y="430"/>
      <point x="126" y="535"/>
      <point x="180" y="535" type="curve" smooth="yes"/>
      <point x="211" y="535"/>
      <point x="231" y="510"/>
      <point x="231" y="438" type="curve" smooth="yes"/>
      <point x="231" y="298" type="line" smooth="yes"/>
      <point x="231" y="154"/>
      <point x="227" y="-1"/>
      <point x="227" y="-42" type="curve" smooth="yes"/>
      <point x="227" y="-94"/>
      <point x="212" y="-130"/>
      <point x="163" y="-130" type="curve"/>
    </contour>
  </outline>
</glyph>
<glyph name="OE" format="2">
  <advance width="504"/>
  <unicode hex="0152"/>
  <outline>
    <contour>
      <point x="210" y="-6" type="curve" smooth="yes"/>
      <point x="236" y="-6"/>
      <point x="294" y="0"/>
      <point x="346" y="0" type="curve" smooth="yes"/>
      <point x="466" y="0" type="line"/>
      <point x="465" y="23" type="line"/>
      <point x="294" y="28" type="line"/>
      <point x="291" y="217" type="line"/>
      <point x="459" y="221" type="line"/>
      <point x="461" y="247" type="line"/>
      <point x="291" y="250" type="line"/>
      <point x="290" y="350" type="line" smooth="yes"/>
      <point x="290" y="443"/>
      <point x="292" y="605"/>
      <point x="293" y="664" type="curve"/>
      <point x="456" y="665" type="line"/>
      <point x="456" y="693" type="line"/>
      <point x="327" y="693" type="line" smooth="yes"/>
      <point x="268" y="693"/>
      <point x="214" y="697"/>
      <point x="191" y="697" type="curve" smooth="yes"/>
      <point x="63" y="697"/>
      <point x="44" y="614"/>
      <point x="44" y="359" type="curve" smooth="yes"/>
      <point x="44" y="91"/>
      <point x="72" y="-6"/>
    </contour>
    <contour>
      <point x="204" y="22" type="curve" smooth="yes"/>
      <point x="103" y="22"/>
      <point x="79" y="137"/>
      <point x="79" y="373" type="curve" smooth="yes"/>
      <point x="79" y="593"/>
      <point x="90" y="667"/>
      <point x="194" y="667" type="curve" smooth="yes"/>
      <point x="214" y="667"/>
      <point x="230" y="666"/>
      <point x="254" y="663" type="curve"/>
      <point x="256" y="606"/>
      <point x="260" y="479"/>
      <point x="260" y="352" type="curve" smooth="yes"/>
      <point x="260" y="219"/>
      <point x="258" y="81"/>
      <point x="257" y="25" type="curve"/>
      <point x="236" y="23"/>
      <point x="222" y="22"/>
    </contour>
  </outline>
</glyph>
<glyph name="oe" format="2">
  <advance width="467"/>
  <unicode hex="0153"/>
  <outline>
    <contour>
      <point x="134" y="-10" type="curve"/>
      <point x="192" y="-10"/>
      <point x="221" y="32"/>
      <point x="232" y="80" type="curve"/>
      <point x="246" y="145"/>
      <point x="249" y="224"/>
      <point x="249" y="282" type="curve"/>
      <point x="249" y="347"/>
      <point x="248" y="391"/>
      <point x="242" y="447" type="curve"/>
      <point x="234" y="521"/>
      <point x="209" y="566"/>
      <point x="147" y="566" type="curve"/>
      <point x="86" y="566"/>
      <point x="56" y="528"/>
      <point x="40" y="441" type="curve"/>
      <point x="34" y="408"/>
      <point x="28" y="327"/>
      <point x="28" y="283" type="curve"/>
      <point x="28" y="240"/>
      <point x="28" y="166"/>
      <point x="35" y="113" type="curve"/>
      <point x="46" y="33"/>
      <point x="67" y="-10"/>
    </contour>
    <contour>
      <point x="136" y="17" type="curve"/>
      <point x="88" y="17"/>
      <point x="72" y="54"/>
      <point x="65" y="127" type="curve"/>
      <point x="58" y="194"/>
      <point x="59" y="223"/>
      <point x="59" y="263" type="curve"/>
      <point x="59" y="303"/>
      <point x="63" y="392"/>
      <point x="69" y="436" type="curve"/>
      <point x="77" y="500"/>
      <point x="98" y="540"/>
      <point x="148" y="540" type="curve"/>
      <point x="195" y="540"/>
      <point x="213" y="499"/>
      <point x="215" y="420" type="curve"/>
      <point x="215" y="393"/>
      <point x="219" y="354"/>
      <point x="218" y="286" type="curve"/>
      <point x="218" y="234"/>
      <point x="217" y="191"/>
      <point x="214" y="153" type="curve"/>
      <point x="206" y="72"/>
      <point x="191" y="17"/>
    </contour>
    <contour>
      <point x="331" y="-10" type="curve"/>
      <point x="427" y="-10"/>
      <point x="442" y="62"/>
      <point x="442" y="115" type="curve"/>
      <point x="442" y="141"/>
      <point x="440" y="172"/>
      <point x="438" y="187" type="curve"/>
      <point x="406" y="187" type="line"/>
      <point x="409" y="173"/>
      <point x="413" y="146"/>
      <point x="413" y="113" type="curve"/>
      <point x="413" y="50"/>
      <point x="390" y="18"/>
      <point x="336" y="18" type="curve"/>
      <point x="285" y="18"/>
      <point x="262" y="51"/>
      <point x="255" y="123" type="curve"/>
      <point x="250" y="164"/>
      <point x="249" y="235"/>
      <point x="249" y="290" type="curve"/>
      <point x="250" y="341"/>
      <point x="251" y="370"/>
      <point x="255" y="409" type="curve"/>
      <point x="265" y="508"/>
      <point x="296" y="540"/>
      <point x="341" y="540" type="curve"/>
      <point x="380" y="540"/>
      <point x="404" y="516"/>
      <point x="407" y="418" type="curve" smooth="yes"/>
      <point x="408" y="388"/>
      <point x="407" y="350"/>
      <point x="404" y="303" type="curve"/>
      <point x="430" y="276" type="line"/>
      <point x="434" y="318"/>
      <point x="436" y="369"/>
      <point x="436" y="430" type="curve"/>
      <point x="436" y="544"/>
      <point x="388" y="566"/>
      <point x="346" y="566" type="curve"/>
      <point x="281" y="566"/>
      <point x="235" y="532"/>
      <point x="225" y="423" type="curve"/>
      <point x="221" y="374"/>
      <point x="220" y="339"/>
      <point x="220" y="291" type="curve"/>
      <point x="220" y="226"/>
      <point x="222" y="154"/>
      <point x="230" y="98" type="curve"/>
      <point x="239" y="25"/>
      <point x="274" y="-10"/>
    </contour>
    <contour>
      <point x="236" y="272" type="line"/>
      <point x="319" y="277"/>
      <point x="430" y="276"/>
      <point x="430" y="276" type="curve"/>
      <point x="432" y="304" type="line"/>
      <point x="236" y="302" type="line"/>
    </contour>
  </outline>
</glyph>
<glyph name="Schwa" format="2">
  <advance width="341"/>
  <unicode hex="018F"/>
  <outline>
    <contour>
      <point x="154" y="-12" type="curve"/>
      <point x="230" y="-12"/>
      <point x="273" y="25"/>
      <point x="286" y="131" type="curve"/>
      <point x="291" y="171"/>
      <point x="297" y="283"/>
      <point x="297" y="337" type="curve"/>
      <point x="297" y="390"/>
      <point x="297" y="481"/>
      <point x="289" y="547" type="curve"/>
      <point x="277" y="645"/>
      <point x="258" y="699"/>
      <point x="170" y="699" type="curve" smooth="yes"/>
      <point x="82" y="699"/>
      <point x="53" y="631"/>
      <point x="53" y="537" type="curve" smooth="yes"/>
      <point x="53" y="522"/>
      <point x="54" y="506"/>
      <point x="55" y="490" type="curve"/>
      <point x="85" y="493" type="line"/>
      <point x="83" y="511"/>
      <point x="82" y="529"/>
      <point x="82" y="545" type="curve" smooth="yes"/>
      <point x="82" y="621"/>
      <point x="105" y="669"/>
      <point x="167" y="669" type="curve" smooth="yes"/>
      <point x="236" y="669"/>
      <point x="250" y="622"/>
      <point x="258" y="539" type="curve"/>
      <point x="263" y="484"/>
      <point x="264" y="389"/>
      <point x="264" y="322" type="curve" smooth="yes"/>
      <point x="264" y="258"/>
      <point x="261" y="185"/>
      <point x="254" y="130" type="curve"/>
      <point x="244" y="55"/>
      <point x="219" y="17"/>
      <point x="159" y="17" type="curve"/>
      <point x="86" y="17"/>
      <point x="73" y="82"/>
      <point x="73" y="177" type="curve" smooth="yes"/>
      <point x="73" y="225"/>
      <point x="77" y="284"/>
      <point x="83" y="339" type="curve"/>
      <point x="52" y="339" type="line"/>
      <point x="45" y="286"/>
      <point x="41" y="231"/>
      <point x="41" y="182" type="curve" smooth="yes"/>
      <point x="41" y="74"/>
      <point x="59" y="-12"/>
    </contour>
    <contour>
      <point x="58" y="312" type="line"/>
      <point x="278" y="314" type="line"/>
      <point x="277" y="346" type="line"/>
      <point x="195" y="341"/>
      <point x="52" y="339"/>
      <point x="52" y="339" type="curve"/>
    </contour>
  </outline>
</glyph>
<glyph name="Nhookleft" format="2">
  <advance width="375"/>
  <unicode hex="019D"/>
  <outline>
    <contour>
      <point x="-6" y="-128" type="curve"/>
      <point x="-1" y="-156" type="line"/>
      <point x="69" y="-155"/>
      <point x="92" y="-104"/>
      <point x="92" y="-42" type="curve" smooth="yes"/>
      <point x="92" y="-7"/>
      <point x="93" y="142"/>
      <point x="93" y="285" type="curve" smooth="yes"/>
      <point x="93" y="398"/>
      <point x="92" y="510"/>
      <point x="92" y="623" type="curve"/>
      <point x="115" y="548"/>
      <point x="157" y="412"/>
      <point x="176" y="344" type="curve" smooth="yes"/>
      <point x="227" y="161"/>
      <point x="278" y="-1"/>
      <point x="278" y="-1" type="curve"/>
      <point x="321" y="3" type="line"/>
      <point x="321" y="3"/>
      <point x="318" y="202"/>
      <point x="317" y="383" type="curve" smooth="yes"/>
      <point x="316" y="554"/>
      <point x="323" y="715"/>
      <point x="323" y="715" type="curve"/>
      <point x="283" y="715" type="line"/>
      <point x="283" y="715"/>
      <point x="286" y="497"/>
      <point x="286" y="381" type="curve" smooth="yes"/>
      <point x="286" y="305"/>
      <point x="288" y="156"/>
      <point x="287" y="72" type="curve"/>
      <point x="281" y="92"/>
      <point x="249" y="198"/>
      <point x="200" y="369" type="curve" smooth="yes"/>
      <point x="150" y="543"/>
      <point x="103" y="704"/>
      <point x="103" y="704" type="curve"/>
      <point x="56" y="704" type="line"/>
      <point x="56" y="704"/>
      <point x="62" y="532"/>
      <point x="62" y="286" type="curve" smooth="yes"/>
      <point x="62" y="142"/>
      <point x="58" y="1"/>
      <point x="58" y="-40" type="curve" smooth="yes"/>
      <point x="58" y="-92"/>
      <point x="43" y="-128"/>
    </contour>
  </outline>
</glyph>
<glyph name="ohorn" format="2">
  <advance width="306"/>
  <unicode hex="01A1"/>
  <anchor x="155" y="0" name="bottom"/>
  <anchor x="153" y="276" name="center"/>
  <anchor x="190" y="0" name="ogonek"/>
  <anchor x="160" y="555" name="top"/>
  <anchor x="184" y="555" name="topright"/>
  <outline>
    <contour>
      <point x="149" y="-10" type="curve"/>
      <point x="207" y="-10"/>
      <point x="236" y="32"/>
      <point x="247" y="80" type="curve"/>
      <point x="261" y="145"/>
      <point x="263" y="224"/>
      <point x="263" y="282" type="curve"/>
      <point x="263" y="347"/>
      <point x="263" y="391"/>
      <point x="257" y="447" type="curve"/>
      <point x="249" y="521"/>
      <point x="224" y="566"/>
      <point x="162" y="566" type="curve"/>
      <point x="101" y="566"/>
      <point x="71" y="528"/>
      <point x="55" y="441" type="curve"/>
      <point x="49" y="408"/>
      <point x="43" y="327"/>
      <point x="43" y="283" type="curve"/>
      <point x="43" y="240"/>
      <point x="43" y="166"/>
      <point x="50" y="113" type="curve"/>
      <point x="61" y="33"/>
      <point x="82" y="-10"/>
    </contour>
    <contour>
      <point x="151" y="17" type="curve"/>
      <point x="103" y="17"/>
      <point x="86" y="54"/>
      <point x="79" y="127" type="curve"/>
      <point x="72" y="194"/>
      <point x="73" y="223"/>
      <point x="73" y="263" type="curve"/>
      <point x="73" y="303"/>
      <point x="77" y="392"/>
      <point x="83" y="436" type="curve"/>
      <point x="91" y="500"/>
      <point x="113" y="540"/>
      <point x="163" y="540" type="curve"/>
      <point x="210" y="540"/>
      <point x="228" y="499"/>
      <point x="230" y="420" type="curve"/>
      <point x="230" y="393"/>
      <point x="234" y="354"/>
      <point x="233" y="286" type="curve"/>
      <point x="233" y="234"/>
      <point x="232" y="191"/>
      <point x="229" y="153" type="curve"/>
      <point x="221" y="72"/>
      <point x="206" y="17"/>
    </contour>
    <contour>
      <point x="228" y="478" type="line"/>
      <point x="277" y="491"/>
      <point x="311" y="529"/>
      <point x="314" y="584" type="curve"/>
      <point x="315" y="610"/>
      <point x="316" y="634"/>
      <point x="316" y="645" type="curve"/>
      <point x="272" y="648" type="line"/>
      <point x="275" y="583" type="line"/>
      <point x="294" y="582" type="line"/>
      <point x="294" y="527"/>
      <point x="245" y="502"/>
      <point x="223" y="496" type="curve"/>
    </contour>
  </outline>
</glyph>
<glyph name="LJ" format="2">
  <advance width="560"/>
  <unicode hex="01C7"/>
  <outline>
    <contour>
      <point x="394" y="-6" type="curve"/>
      <point x="489" y="-6"/>
      <point x="498" y="91"/>
      <point x="498" y="190" type="curve" smooth="yes"/>
      <point x="498" y="260"/>
      <point x="498" y="334"/>
      <point x="498" y="402" type="curve"/>
      <point x="498" y="492"/>
      <point x="498" y="607"/>
      <point x="500" y="700" type="curve"/>
      <point x="458" y="698" type="line"/>
      <point x="462" y="611"/>
      <point x="463" y="464"/>
      <point x="463" y="396" type="curve"/>
      <point x="464" y="319"/>
      <point x="464" y="207"/>
      <point x="464" y="167" type="curve" smooth="yes"/>
      <point x="464" y="66"/>
      <point x="450" y="23"/>
      <point x="394" y="23" type="curve"/>
      <point x="335" y="23"/>
      <point x="320" y="90"/>
      <point x="320" y="179" type="curve" smooth="yes"/>
      <point x="320" y="216"/>
      <point x="322" y="257"/>
      <point x="326" y="298" type="curve"/>
      <point x="296" y="299" type="line"/>
      <point x="293" y="259"/>
      <point x="290" y="218"/>
      <point x="290" y="180" type="curve" smooth="yes"/>
      <point x="290" y="77"/>
      <point x="310" y="-6"/>
    </contour>
    <contour>
      <point x="55" y="-5" type="line"/>
      <point x="265" y="0" type="line"/>
      <point x="265" y="25" type="line"/>
      <point x="89" y="28" type="line"/>
    </contour>
    <contour>
      <point x="55" y="-5" type="curve"/>
      <point x="93" y="1" type="line"/>
      <point x="91" y="101"/>
      <point x="89" y="265"/>
      <point x="89" y="350" type="curve" smooth="yes"/>
      <point x="89" y="435"/>
      <point x="91" y="602"/>
      <point x="92" y="704" type="curve"/>
      <point x="52" y="700" type="line"/>
      <point x="55" y="624"/>
      <point x="59" y="477"/>
      <point x="59" y="352" type="curve" smooth="yes"/>
      <point x="59" y="227"/>
      <point x="57" y="75"/>
    </contour>
  </outline>
</glyph>
<glyph name="jdotless" format="2">
  <advance width="157"/>
  <unicode hex="0237"/>
  <anchor x="81" y="555" name="top"/>
  <outline>
    <contour>
      <point x="-2" y="-156" type="line"/>
      <point x="68" y="-155"/>
      <point x="93" y="-104"/>
      <point x="93" y="-42" type="curve" smooth="yes"/>
      <point x="93" y="-7"/>
      <point x="94" y="142"/>
      <point x="94" y="285" type="curve"/>
      <point x="94" y="429"/>
      <point x="98" y="556"/>
      <point x="98" y="556" type="curve"/>
      <point x="65" y="556" type="line"/>
      <point x="65" y="556"/>
      <point x="66" y="432"/>
      <point x="66" y="286" type="curve"/>
      <point x="66" y="142"/>
      <point x="62" y="-1"/>
      <point x="62" y="-42" type="curve" smooth="yes"/>
      <point x="62" y="-94"/>
      <point x="47" y="-130"/>
      <point x="-2" y="-130" type="curve"/>
    </contour>
  </outline>
</glyph>
<glyph name="nhookleft" format="2">
  <advance width="310"/>
  <unicode hex="0272"/>
  <outline>
    <contour>
      <point x="269" y="-1" type="line"/>
      <point x="269" y="50"/>
      <point x="267" y="111"/>
      <point x="267" y="244" type="curve" smooth="yes"/>
      <point x="267" y="337"/>
      <point x="267" y="393"/>
      <point x="267" y="441" type="curve" smooth="yes"/>
      <point x="267" y="526"/>
      <point x="242" y="560"/>
      <point x="191" y="560" type="curve" smooth="yes"/>
      <point x="114" y="560"/>
      <point x="70" y="449"/>
      <point x="70" y="295" type="curve"/>
      <point x="89" y="319" type="line"/>
      <point x="89" y="430"/>
      <point x="134" y="535"/>
      <point x="188" y="535" type="curve" smooth="yes"/>
      <point x="219" y="535"/>
      <point x="239" y="510"/>
      <point x="239" y="438" type="curve" smooth="yes"/>
      <point x="239" y="393"/>
      <point x="239" y="315"/>
      <point x="239" y="243" type="curve" smooth="yes"/>
      <point x="239" y="113"/>
      <point x="237" y="46"/>
      <point x="235" y="0" type="curve"/>
    </contour>
    <contour>
      <point x="-7" y="-156" type="line"/>
      <point x="63" y="-155"/>
      <point x="88" y="-104"/>
      <point x="88" y="-42" type="curve" smooth="yes"/>
      <point x="88" y="-7"/>
      <point x="89" y="176"/>
      <point x="89" y="319" type="curve"/>
      <point x="89" y="445"/>
      <point x="91" y="505"/>
      <point x="93" y="556" type="curve"/>
      <point x="60" y="556" type="line"/>
      <point x="61" y="492"/>
      <point x="61" y="416"/>
      <point x="61" y="286" type="curve"/>
      <point x="61" y="142"/>
      <point x="57" y="-1"/>
      <point x="57" y="-42" type="curve" smooth="yes"/>
      <point x="57" y="-94"/>
      <point x="42" y="-130"/>
      <point x="-7" y="-130" type="curve"/>
    </contour>
  </outline>
</glyph>
<glyph name="primemod" format="2">
  <advance width="294"/>
  <unicode hex="02B9"/>
  <outline>
    <contour>
      <point x="93" y="533" type="line"/>
      <point x="107" y="551"/>
      <point x="147" y="607"/>
      <point x="168" y="630" type="curve"/>
      <point x="184" y="649"/>
      <point x="211" y="681"/>
      <point x="223" y="693" type="curve"/>
      <point x="175" y="721" type="line"/>
      <point x="166" y="705"/>
      <point x="141" y="666"/>
      <point x="124" y="639" type="curve" smooth="yes"/>
      <point x="106" y="611"/>
      <point x="75" y="563"/>
      <point x="63" y="545" type="curve"/>
    </contour>
  </outline>
</glyph>
<glyph name="doubleprimemod" format="2">
  <advance width="477"/>
  <unicode hex="02BA"/>
  <outline>
    <contour>
      <point x="268" y="533" type="line"/>
      <point x="282" y="551"/>
      <point x="322" y="607"/>
      <point x="343" y="630" type="curve"/>
      <point x="359" y="649"/>
      <point x="386" y="681"/>
      <point x="398" y="693" type="curve"/>
      <point x="350" y="721" type="line"/>
      <point x="341" y="705"/>
      <point x="316" y="666"/>
      <point x="299" y="639" type="curve" smooth="yes"/>
      <point x="281" y="611"/>
      <point x="250" y="563"/>
      <point x="238" y="545" type="curve"/>
    </contour>
    <contour>
      <point x="98" y="533" type="line"/>
      <point x="112" y="551"/>
      <point x="152" y="607"/>
      <point x="173" y="630" type="curve"/>
      <point x="189" y="649"/>
      <point x="216" y="681"/>
      <point x="228" y="693" type="curve"/>
      <point x="180" y="721" type="line"/>
      <point x="171" y="705"/>
      <point x="146" y="666"/>
      <point x="129" y="639" type="curve" smooth="yes"/>
      <point x="111" y="611"/>
      <point x="80" y="563"/>
      <point x="68" y="545" type="curve"/>
    </contour>
  </outline>
</glyph>
<glyph name="circumflex" format="2">
  <advance width="305"/>
  <unicode hex="02C6"/>
  <anchor x="153" y="555" name="_top"/>
  <outline>
    <contour>
      <point x="237" y="636" type="line"/>
      <point x="247" y="653" type="line"/>
      <point x="169" y="705" type="line"/>
      <point x="135" y="707" type="line"/>
      <point x="59" y="651" type="line"/>
      <point x="69" y="638" type="line"/>
      <point x="152" y="679" type="line"/>
    </contour>
  </outline>
</glyph>
<glyph name="caron" format="2">
  <advance width="305"/>
  <unicode hex="02C7"/>
  <anchor x="153" y="555" name="_top"/>
  <outline>
    <contour>
      <point x="171" y="636" type="line"/>
      <point x="247" y="692" type="line"/>
      <point x="237" y="705" type="line"/>
      <point x="154" y="664" type="line"/>
      <point x="69" y="707" type="line"/>
      <point x="59" y="690" type="line"/>
      <point x="137" y="638" type="line"/>
    </contour>
  </outline>
</glyph>
<glyph name="breve" format="2">
  <advance width="305"/>
  <unicode hex="02D8"/>
  <anchor x="153" y="555" name="_top"/>
  <outline>
    <contour>
      <point x="153" y="643" type="curve" smooth="yes"/>
      <point x="193" y="643"/>
      <point x="232" y="662"/>
      <point x="257" y="688" type="curve"/>
      <point x="247" y="700" type="line"/>
      <point x="224" y="682"/>
      <point x="184" y="669"/>
      <point x="151" y="669" type="curve" smooth="yes"/>
      <point x="122" y="669"/>
      <point x="88" y="678"/>
      <point x="60" y="699" type="curve"/>
      <point x="49" y="685" type="line"/>
      <point x="79" y="657"/>
      <point x="114" y="643"/>
    </contour>
  </outline>
</glyph>
<glyph name="dotaccent" format="2">
  <advance width="246"/>
  <unicode hex="02D9"/>
  <anchor x="123" y="555" name="_top"/>
  <outline>
    <contour>
      <point x="102" y="653" type="line"/>
      <point x="139" y="654" type="line"/>
      <point x="142" y="715" type="line"/>
      <point x="102" y="717" type="line"/>
    </contour>
  </outline>
</glyph>
<glyph name="ring" format="2">
  <advance width="305"/>
  <unicode hex="02DA"/>
  <anchor x="153" y="555" name="_top"/>
  <outline>
    <contour>
      <point x="153" y="618" type="curve"/>
      <point x="187" y="618"/>
      <point x="211" y="642"/>
      <point x="211" y="676" type="curve"/>
      <point x="211" y="706"/>
      <point x="187" y="727"/>
      <point x="151" y="727" type="curve"/>
      <point x="115" y="727"/>
      <point x="92" y="704"/>
      <point x="92" y="668" type="curve"/>
      <point x="92" y="656"/>
      <point x="97" y="618"/>
    </contour>
    <contour>
      <point x="153" y="637" type="curve"/>
      <point x="110" y="637"/>
      <point x="110" y="660"/>
      <point x="110" y="667" type="curve"/>
      <point x="110" y="693"/>
      <point x="124" y="708"/>
      <point x="151" y="708" type="curve"/>
      <point x="171" y="708"/>
      <point x="193" y="702"/>
      <point x="193" y="677" type="curve"/>
      <point x="193" y="641"/>
      <point x="163" y="637"/>
    </contour>
  </outline>
</glyph>
<glyph name="tilde" format="2">
  <advance width="305"/>
  <unicode hex="02DC"/>
  <anchor x="157" y="555" name="_top"/>
  <outline>
    <contour>
      <point x="89" y="645" type="line"/>
      <point x="92" y="661"/>
      <point x="99" y="667"/>
      <point x="114" y="667" type="curve" smooth="yes"/>
      <point x="140" y="667"/>
      <point x="166" y="645"/>
      <point x="196" y="645" type="curve" smooth="yes"/>
      <point x="227" y="645"/>
      <point x="247" y="663"/>
      <point x="249" y="695" type="curve"/>
      <point x="224" y="695" type="line"/>
      <point x="221" y="679"/>
      <point x="214" y="673"/>
      <point x="199" y="673" type="curve" smooth="yes"/>
      <point x="173" y="673"/>
      <point x="147" y="695"/>
      <point x="117" y="695" type="curve" smooth="yes"/>
      <point x="86" y="695"/>
      <point x="66" y="677"/>
      <point x="64" y="645" type="curve"/>
    </contour>
  </outline>
</glyph>
<glyph name="hungarumlaut" format="2">
  <advance width="269"/>
  <unicode hex="02DD"/>
  <anchor x="95" y="555" name="_top"/>
  <outline>
    <contour>
      <point x="151" y="619" type="line"/>
      <point x="161" y="630"/>
      <point x="175" y="646"/>
      <point x="189" y="661" type="curve" smooth="yes"/>
      <point x="204" y="677"/>
      <point x="218" y="691"/>
      <point x="229" y="702" type="curve"/>
      <point x="208" y="722" type="line"/>
      <point x="197" y="707"/>
      <point x="184" y="690"/>
      <point x="171" y="674" type="curve" smooth="yes"/>
      <point x="159" y="660"/>
      <point x="148" y="644"/>
      <point x="136" y="631" type="curve"/>
    </contour>
    <contour>
      <point x="55" y="619" type="line"/>
      <point x="65" y="630"/>
      <point x="79" y="646"/>
      <point x="93" y="661" type="curve" smooth="yes"/>
      <point x="108" y="677"/>
      <point x="122" y="691"/>
      <point x="133" y="702" type="curve"/>
      <point x="112" y="722" type="line"/>
      <point x="101" y="707"/>
      <point x="88" y="690"/>
      <point x="75" y="674" type="curve" smooth="yes"/>
      <point x="63" y="660"/>
      <point x="52" y="644"/>
      <point x="40" y="631" type="curve"/>
    </contour>
  </outline>
</glyph>
<glyph name="gravecomb" format="2">
  <unicode hex="0300"/>
  <anchor x="-85" y="555" name="_top"/>
  <outline>
    <contour>
      <point x="-52" y="629" type="curve"/>
      <point x="-40" y="644" type="line"/>
      <point x="-55" y="654"/>
      <point x="-70" y="666"/>
      <point x="-85" y="677" type="curve" smooth="yes"/>
      <point x="-102" y="689"/>
      <point x="-119" y="702"/>
      <point x="-133" y="714" type="curve"/>
      <point x="-149" y="689" type="line"/>
      <point x="-135" y="681"/>
      <point x="-117" y="670"/>
      <point x="-99" y="659" type="curve" smooth="yes"/>
      <point x="-82" y="649"/>
      <point x="-65" y="637"/>
    </contour>
  </outline>
</glyph>
<glyph name="acutecomb" format="2">
  <unicode hex="0301"/>
  <anchor x="-104" y="555" name="_top"/>
  <outline>
    <contour>
      <point x="-142" y="625" type="line"/>
      <point x="-126" y="635"/>
      <point x="-107" y="647"/>
      <point x="-89" y="659" type="curve" smooth="yes"/>
      <point x="-70" y="671"/>
      <point x="-51" y="682"/>
      <point x="-33" y="693" type="curve"/>
      <point x="-49" y="718" type="line"/>
      <point x="-65" y="705"/>
      <point x="-83" y="691"/>
      <point x="-101" y="678" type="curve" smooth="yes"/>
      <point x="-120" y="664"/>
      <point x="-139" y="650"/>
      <point x="-154" y="640" type="curve"/>
    </contour>
  </outline>
</glyph>
<glyph name="circumflexcomb" format="2">
  <unicode hex="0302"/>
  <anchor x="-152" y="555" name="_top"/>
  <outline>
    <contour>
      <point x="-68" y="636" type="line"/>
      <point x="-58" y="653" type="line"/>
      <point x="-136" y="705" type="line"/>
      <point x="-170" y="707" type="line"/>
      <point x="-246" y="651" type="line"/>
      <point x="-236" y="638" type="line"/>
      <point x="-153" y="679" type="line"/>
    </contour>
  </outline>
</glyph>
<glyph name="macroncomb" format="2">
  <unicode hex="0304"/>
  <anchor x="-153" y="555" name="_top"/>
  <outline>
    <contour>
      <point x="-242" y="660" type="line"/>
      <point x="-66" y="663" type="line"/>
      <point x="-68" y="684" type="line"/>
      <point x="-242" y="687" type="line"/>
    </contour>
  </outline>
</glyph>
<glyph name="brevecomb" format="2">
  <unicode hex="0306"/>
  <anchor x="-152" y="555" name="_top"/>
  <outline>
    <contour>
      <point x="-152" y="643" type="curve" smooth="yes"/>
      <point x="-112" y="643"/>
      <point x="-73" y="662"/>
      <point x="-48" y="688" type="curve"/>
      <point x="-58" y="700" type="line"/>
      <point x="-81" y="682"/>
      <point x="-121" y="669"/>
      <point x="-154" y="669" type="curve" smooth="yes"/>
      <point x="-183" y="669"/>
      <point x="-217" y="678"/>
      <point x="-245" y="699" type="curve"/>
      <point x="-256" y="685" type="line"/>
      <point x="-226" y="657"/>
      <point x="-191" y="643"/>
    </contour>
  </outline>
</glyph>
<glyph name="dieresiscomb" format="2">
  <unicode hex="0308"/>
  <anchor x="-123" y="555" name="_top"/>
  <outline>
    <contour>
      <point x="-44" y="637" type="line"/>
      <point x="-44" y="702" type="line"/>
      <point x="-82" y="700" type="line"/>
      <point x="-79" y="638" type="line"/>
    </contour>
    <contour>
      <point x="-166" y="637" type="line"/>
      <point x="-166" y="702" type="line"/>
      <point x="-204" y="700" type="line"/>
      <point x="-201" y="638" type="line"/>
    </contour>
  </outline>
</glyph>
<glyph name="commaabovecomb" format="2">
  <unicode hex="0313"/>
  <anchor x="-133" y="555" name="_top"/>
  <outline>
    <contour>
      <point x="-132" y="643" type="line"/>
      <point x="-118" y="667"/>
      <point x="-111" y="704"/>
      <point x="-111" y="740" type="curve" smooth="yes"/>
      <point x="-111" y="767"/>
      <point x="-112" y="779"/>
      <point x="-112" y="805" type="curve"/>
      <point x="-151" y="801" type="line"/>
      <point x="-149" y="737" type="line"/>
      <point x="-131" y="735" type="line"/>
      <point x="-130" y="709"/>
      <point x="-137" y="678"/>
      <point x="-149" y="651" type="curve"/>
    </contour>
  </outline>
</glyph>
